{"glyphs":{"0":{"ha":980,"x_min":97,"x_max":889,"o":"m 526 1239 q 803 1083 706 1238 q 888 732 888 946 q 813 349 889 528 q 612 92 736 168 q 453 46 538 45 q 194 198 289 47 q 103 546 109 334 q 168 933 98 753 q 366 1194 241 1118 q 526 1239 440 1239 m 440 142 q 587 286 519 144 q 682 646 656 431 q 672 1000 709 863 q 558 1128 638 1128 q 397 982 467 1128 q 307 623 328 838 q 324 273 286 411 q 435 142 359 144 q 440 142 437 142 z "},"1":{"ha":680,"x_min":94,"x_max":625,"o":"m 375 1202 q 477 1248 401 1244 q 585 1225 542 1251 q 606 1168 625 1200 q 530 962 573 1113 q 455 638 487 810 q 413 312 423 467 q 435 96 402 158 q 409 47 451 64 q 297 41 362 28 q 193 109 218 58 q 183 142 184 124 q 214 452 176 224 q 302 879 251 680 q 262 844 283 859 q 217 821 241 829 q 172 815 193 812 q 129 838 150 819 q 94 893 109 857 q 264 1046 197 961 q 375 1202 323 1118 z "},"2":{"ha":865,"x_min":52,"x_max":804,"o":"m 682 307 q 714 281 704 316 q 718 193 725 250 q 675 96 712 138 q 607 56 655 71 q 490 37 559 41 q 366 33 422 33 q 239 35 311 33 q 151 37 168 37 q 113 45 130 37 q 86 68 96 53 q 70 99 76 83 q 60 138 63 115 q 56 177 57 161 q 54 216 55 193 q 64 318 52 276 q 124 434 81 376 q 222 541 168 492 q 338 637 276 589 q 458 732 400 686 q 564 824 517 779 q 640 921 612 870 q 668 1023 669 972 q 595 1090 668 1090 q 517 1074 563 1090 q 426 1030 471 1057 q 342 971 380 1003 q 285 901 304 939 q 277 832 266 864 q 275 814 282 821 q 257 808 270 808 q 233 815 245 808 q 171 928 187 848 q 179 1031 162 981 q 233 1119 197 1081 q 316 1186 269 1157 q 415 1232 363 1216 q 515 1249 467 1247 q 670 1205 603 1251 q 771 1087 737 1160 q 804 930 804 1015 q 769 781 804 853 q 678 653 734 709 q 555 545 622 597 q 421 451 488 494 q 301 369 355 408 q 217 292 248 330 q 192 221 186 254 q 276 220 224 221 q 392 223 328 218 q 515 237 457 229 q 621 263 574 245 q 682 307 667 281 z "},"3":{"ha":861,"x_min":56,"x_max":782,"o":"m 782 930 q 599 599 782 759 q 672 455 644 532 q 700 332 700 377 q 666 175 700 248 q 565 58 632 103 q 411 16 498 13 q 285 42 350 17 q 167 108 220 67 q 85 209 114 149 q 66 335 56 269 q 127 447 83 416 q 153 454 142 454 q 171 449 165 454 q 172 431 176 444 q 191 344 159 391 q 276 260 222 297 q 389 199 329 224 q 489 174 449 174 q 564 239 564 172 q 558 281 564 260 q 546 321 553 303 q 523 362 538 340 q 495 400 507 384 q 459 439 483 416 q 420 476 435 462 q 375 514 405 490 q 330 551 345 538 q 280 589 314 563 q 232 627 246 615 q 439 734 330 763 q 593 882 539 814 q 646 1023 646 951 q 572 1090 646 1090 q 495 1074 541 1090 q 403 1030 449 1057 q 319 971 357 1003 q 262 901 281 939 q 254 832 243 864 q 253 814 260 821 q 235 808 248 808 q 211 815 222 808 q 149 928 165 848 q 157 1031 140 981 q 210 1119 174 1081 q 293 1186 246 1157 q 392 1232 340 1216 q 493 1249 444 1247 q 648 1205 581 1251 q 748 1087 715 1160 q 782 930 782 1015 z "},"4":{"ha":884,"x_min":25,"x_max":800,"o":"m 550 1202 q 652 1248 576 1244 q 760 1225 717 1251 q 781 1168 800 1200 q 707 968 749 1114 q 633 656 665 822 q 725 688 693 664 q 765 667 747 704 q 779 569 785 625 q 724 488 770 501 q 720 486 722 487 q 604 478 680 476 q 610 96 563 183 q 583 47 626 64 q 471 42 536 28 q 368 109 393 58 q 359 142 361 124 q 400 494 352 217 q 90 554 181 524 q 32 627 40 572 q 44 694 26 668 q 71 705 56 711 q 86 700 74 703 q 224 853 149 759 q 357 1051 299 947 q 411 1211 415 1155 q 446 1235 410 1238 q 534 1198 489 1232 q 543 1190 538 1194 q 547 1196 545 1192 q 550 1202 549 1200 m 428 647 q 494 956 462 825 q 250 664 385 802 q 428 647 366 650 z "},"5":{"ha":822,"x_min":60,"x_max":777,"o":"m 724 1258 q 758 1239 743 1273 q 768 1152 776 1200 q 720 1089 758 1099 q 569 1085 663 1079 q 367 1108 475 1091 q 288 892 327 1011 q 244 713 250 773 q 335 845 279 789 q 463 900 391 900 q 650 784 589 899 q 688 515 706 677 q 587 222 669 351 q 361 43 494 79 q 285 33 324 34 q 193 49 234 33 q 127 94 153 65 q 85 160 101 122 q 65 240 69 197 q 65 328 60 283 q 82 414 69 372 q 107 425 90 426 q 127 411 125 423 q 157 267 128 319 q 233 215 185 215 q 396 326 316 214 q 499 553 467 425 q 499 738 530 679 q 446 772 482 771 q 396 758 421 773 q 346 711 370 742 q 308 661 321 681 q 275 611 294 641 q 226 589 260 589 q 160 603 193 588 q 103 645 127 617 q 81 701 79 672 q 94 773 86 736 q 114 855 102 811 q 134 928 125 899 q 158 1008 142 957 q 179 1079 174 1059 q 200 1143 196 1128 q 195 1145 199 1144 q 191 1147 192 1147 q 140 1211 146 1162 q 153 1266 136 1246 q 174 1274 163 1278 q 336 1237 225 1253 q 564 1224 447 1221 q 724 1258 681 1227 z "},"6":{"ha":812,"x_min":72,"x_max":728,"o":"m 334 807 q 452 815 397 821 q 550 787 508 809 q 626 729 591 764 q 681 649 661 694 q 715 553 702 604 q 727 448 728 502 q 717 339 726 393 q 614 126 691 203 q 437 40 536 49 q 282 62 351 32 q 172 150 214 92 q 105 289 130 208 q 76 460 80 370 q 84 649 72 551 q 122 837 96 746 q 191 1008 149 927 q 283 1145 232 1088 q 478 1251 373 1243 q 591 1236 538 1257 q 673 1175 643 1214 q 700 1097 702 1138 q 689 1087 699 1090 q 673 1086 680 1083 q 485 1078 568 1145 q 334 807 401 1010 m 386 129 q 482 232 439 134 q 537 472 529 338 q 498 678 546 617 q 425 711 470 715 q 343 672 378 707 q 292 585 309 637 q 268 473 275 534 q 265 358 261 413 q 279 264 269 304 q 327 159 300 192 q 386 129 355 125 z "},"7":{"ha":794,"x_min":64,"x_max":707,"o":"m 669 1218 q 696 1197 687 1223 q 690 1131 707 1164 q 642 1095 674 1102 l 640 1095 q 476 768 576 1013 q 572 790 535 778 q 596 773 587 796 q 592 715 608 743 q 558 686 581 694 q 433 659 516 671 q 322 297 360 462 q 307 65 284 132 q 277 22 318 33 q 167 31 230 9 q 73 109 94 57 q 66 150 65 128 q 211 633 75 252 q 119 639 149 631 q 79 701 83 647 q 92 772 75 745 q 115 779 102 789 q 254 750 151 752 q 346 977 306 884 l 382 1071 q 109 1089 184 1063 q 67 1165 67 1103 q 88 1247 66 1215 q 122 1258 106 1273 q 277 1208 161 1223 q 505 1198 393 1193 q 669 1218 616 1202 z "},"8":{"ha":825,"x_min":69,"x_max":744,"o":"m 476 1258 q 582 1242 532 1258 q 668 1194 631 1225 q 725 1113 705 1163 q 739 1002 744 1063 q 713 884 735 943 q 654 769 691 825 q 583 670 616 712 q 501 575 549 627 q 578 457 541 526 q 632 258 634 350 q 562 92 630 157 q 386 20 494 27 q 246 37 314 15 q 130 112 178 59 q 75 239 81 165 q 92 350 69 302 q 145 436 113 398 q 225 515 178 473 q 297 583 273 556 l 300 583 q 277 614 294 590 q 253 647 259 638 q 231 677 247 655 q 209 711 216 699 q 189 743 202 722 q 170 778 176 763 q 154 811 163 792 q 139 849 145 831 q 129 886 134 867 q 176 1111 99 1008 q 311 1220 230 1182 q 476 1258 391 1258 m 395 260 q 411 354 416 302 q 383 450 407 406 q 290 332 316 374 q 262 223 248 255 q 324 204 277 192 q 395 260 371 216 m 416 726 q 515 883 472 786 q 542 1047 558 979 q 498 1084 532 1084 q 431 1047 463 1084 q 383 970 399 1010 q 368 843 359 905 q 416 726 377 781 z "},"9":{"ha":789,"x_min":61,"x_max":717,"o":"m 351 1251 q 506 1229 438 1259 q 616 1141 574 1199 q 684 1003 659 1083 q 713 831 709 922 q 705 643 717 741 q 666 455 693 545 q 598 284 640 365 q 505 147 557 203 q 311 39 415 48 q 198 56 251 34 q 115 117 144 79 q 89 195 85 156 q 99 205 90 201 q 115 205 108 209 q 304 214 220 147 q 456 484 388 281 q 337 476 393 470 q 239 505 281 482 q 163 562 197 527 q 107 643 128 597 q 74 739 87 688 q 62 844 61 790 q 72 953 63 899 q 175 1165 98 1089 q 351 1251 252 1242 m 364 579 q 446 620 412 584 q 498 707 481 655 q 522 819 515 759 q 525 933 528 879 q 510 1028 521 988 q 461 1132 490 1099 q 403 1162 433 1166 q 306 1059 350 1157 q 252 819 259 954 q 290 612 243 675 q 364 579 319 575 z "},"\u0000":{"ha":0,"x_min":0,"x_max":0,"o":""},"\r":{"ha":369,"x_min":0,"x_max":0,"o":""}," ":{"ha":369,"x_min":0,"x_max":0,"o":""},"!":{"ha":600,"x_min":94,"x_max":538,"o":"m 184 268 q 240 264 207 271 q 301 240 273 258 q 328 197 330 222 q 307 109 326 168 q 272 22 288 50 q 257 5 264 9 q 233 0 249 1 q 171 6 207 -1 q 117 31 134 14 q 100 100 94 50 q 116 177 103 132 q 144 244 130 223 q 184 268 157 266 m 532 1069 q 494 793 538 999 q 387 389 449 588 q 365 359 381 370 q 325 346 349 348 q 279 345 301 344 q 229 349 258 346 q 187 351 201 351 q 260 644 229 494 q 301 926 290 795 q 283 1108 311 1058 q 310 1152 269 1137 q 425 1158 358 1171 q 525 1094 503 1143 q 532 1069 530 1082 z "},"\"":{"ha":772,"x_min":151,"x_max":582,"o":"m 579 1139 q 576 1071 582 1099 q 530 951 568 1006 q 433 892 492 896 q 386 907 409 890 q 361 946 363 923 q 368 964 359 964 q 441 997 419 964 q 424 1044 427 1007 q 429 1103 424 1069 q 441 1154 433 1137 q 469 1175 448 1171 q 537 1173 496 1182 q 579 1139 577 1164 m 371 1139 q 368 1071 374 1099 q 321 951 359 1006 q 225 892 283 896 q 178 907 201 890 q 153 946 155 923 q 160 964 151 964 q 233 997 211 964 q 215 1044 215 1010 q 220 1103 215 1069 q 233 1154 225 1137 q 260 1175 239 1171 q 329 1173 288 1182 q 371 1139 369 1164 z "},"#":{"ha":1238,"x_min":111,"x_max":1211,"o":"m 925 1099 q 1050 1133 963 1152 q 1166 1076 1118 1118 q 1196 1012 1211 1038 q 1185 1002 1192 1006 q 1034 751 1113 956 q 1086 737 1067 745 q 1145 645 1140 718 q 1123 542 1148 587 q 1078 514 1101 503 q 1069 519 1074 516 q 968 568 1043 547 q 952 515 963 551 q 937 463 942 479 q 1086 433 1043 450 q 1145 341 1140 414 q 1123 237 1148 283 q 1077 210 1101 197 q 1069 215 1073 212 q 893 282 1028 254 q 848 -11 848 81 q 814 -41 848 -35 q 727 -20 771 -47 q 668 84 666 16 q 668 89 668 86 q 699 309 670 166 q 465 322 590 320 q 411 -11 411 91 q 376 -41 411 -35 q 290 -20 334 -47 q 231 85 229 17 q 231 89 231 87 q 262 318 235 176 q 160 304 201 314 q 125 330 138 298 q 127 413 111 370 q 201 476 148 465 q 297 488 231 483 q 329 625 300 505 q 160 608 219 623 q 125 634 138 602 q 128 718 111 673 q 201 781 148 769 q 374 794 252 792 q 489 1099 442 1033 q 615 1133 527 1152 q 729 1076 681 1118 q 758 1012 773 1038 q 747 1002 754 1006 q 612 791 683 962 q 807 779 717 787 q 925 1099 875 1025 m 733 481 q 761 607 735 490 q 550 624 652 620 q 509 490 530 570 q 733 481 633 488 z "},"$":{"ha":814,"x_min":41,"x_max":733,"o":"m 347 522 q 395 524 365 522 q 450 528 425 526 q 506 530 475 530 q 563 527 538 530 q 612 515 587 524 q 654 492 637 507 q 682 453 671 477 q 694 396 693 429 q 664 264 696 335 q 579 133 631 193 q 460 26 528 73 q 329 -35 393 -20 q 325 -143 313 -110 q 299 -172 333 -165 q 211 -158 258 -178 q 157 -89 155 -133 q 176 -11 159 -66 q 96 132 112 34 q 98 218 86 190 q 110 224 103 231 q 198 192 141 193 q 316 214 256 191 q 433 267 377 236 q 525 330 489 297 q 561 383 561 363 q 504 410 561 412 q 397 396 470 409 q 283 382 323 382 q 213 387 245 381 q 149 411 181 393 q 95 456 117 428 q 59 533 73 485 q 43 644 44 581 q 54 779 41 708 q 93 920 67 850 q 159 1054 119 990 q 249 1167 199 1118 q 364 1245 299 1216 q 500 1276 429 1275 q 529 1381 511 1341 q 615 1411 550 1421 q 694 1378 665 1404 q 701 1341 720 1356 q 643 1226 671 1314 q 705 1133 683 1191 q 730 1011 728 1074 q 719 883 733 948 q 678 766 705 818 q 609 681 651 714 q 517 647 566 648 q 455 665 482 647 q 416 720 429 684 q 424 721 421 720 q 518 827 467 730 q 589 1029 572 927 q 566 1147 606 1133 q 553 1149 559 1149 q 457 1076 513 1147 q 355 910 401 1004 q 276 724 309 817 q 244 587 243 631 q 268 538 244 553 q 347 522 292 522 z "},"%":{"ha":1208,"x_min":58,"x_max":1147,"o":"m 946 1015 q 812 856 888 986 q 674 570 736 726 q 566 265 612 414 q 511 40 519 115 q 479 14 509 14 q 414 43 445 12 q 380 155 370 87 q 460 463 396 255 q 605 873 524 671 q 737 1133 686 1075 q 854 1156 780 1183 q 944 1093 909 1137 q 959 1025 978 1050 q 946 1015 954 1019 m 297 1171 q 440 1101 387 1170 q 497 935 493 1033 q 479 739 501 837 q 396 573 457 642 q 257 505 335 505 q 122 574 174 506 q 64 741 71 643 q 78 937 58 839 q 157 1103 97 1034 q 297 1171 217 1171 m 249 558 q 355 697 311 560 q 390 971 399 835 q 315 1108 381 1108 q 202 970 245 1109 q 173 694 160 832 q 249 558 185 556 m 932 676 q 1099 568 1045 676 q 1130 330 1146 471 q 1049 102 1114 193 q 892 11 983 10 q 757 80 809 12 q 699 247 705 149 q 712 443 693 345 q 792 609 732 541 q 932 676 852 677 m 884 65 q 990 204 946 67 q 1025 478 1034 342 q 950 615 1016 615 q 837 477 880 615 q 807 201 795 338 q 884 65 820 63 z "},"&":{"ha":751,"x_min":73,"x_max":682,"o":"m 679 243 q 645 144 682 191 q 550 66 608 96 q 430 17 493 35 q 317 0 367 -1 q 147 54 214 1 q 75 192 81 107 q 83 270 73 233 q 118 345 94 308 q 164 409 142 382 q 224 475 187 436 q 175 610 213 508 q 119 777 136 713 q 102 889 101 840 q 130 997 102 952 q 199 1063 157 1042 q 294 1086 241 1084 q 425 1066 359 1090 q 538 996 492 1042 q 610 828 610 924 q 592 729 610 779 q 539 630 574 680 q 471 543 505 581 q 389 456 437 505 q 415 354 407 404 q 420 285 420 315 q 398 232 419 254 q 334 203 377 210 q 286 202 308 199 q 252 214 264 204 q 245 236 239 223 q 257 322 261 275 q 161 149 158 216 q 180 112 163 125 q 227 102 197 100 q 316 130 264 104 q 414 191 368 155 q 492 271 460 227 q 519 353 523 315 q 523 363 519 360 q 534 366 527 367 q 631 326 586 361 q 679 243 676 292 m 216 930 q 221 887 218 909 q 233 838 224 865 q 247 794 241 812 q 266 743 252 776 q 286 697 280 710 q 309 646 291 684 q 330 597 326 607 q 407 803 412 703 q 395 867 405 838 q 334 972 376 929 q 260 1013 293 1015 q 216 930 214 1010 z "},"'":{"ha":477,"x_min":137,"x_max":359,"o":"m 357 1139 q 354 1071 359 1099 q 307 951 345 1006 q 211 892 269 896 q 164 907 186 890 q 139 946 142 923 q 146 964 137 964 q 220 997 197 964 q 201 1044 201 1010 q 207 1103 201 1069 q 220 1154 212 1137 q 245 1175 226 1171 q 314 1173 274 1182 q 357 1139 355 1164 z "},"(":{"ha":529,"x_min":65,"x_max":488,"o":"m 239 1137 q 350 1177 274 1192 q 450 1125 408 1165 q 472 1061 488 1088 q 461 1050 469 1055 q 365 931 408 1014 q 295 745 321 848 q 256 524 269 642 q 248 300 243 406 q 274 106 252 195 q 335 -26 296 18 q 321 -83 359 -54 q 221 -121 283 -115 q 109 -81 143 -127 q 96 -56 100 -70 q 66 198 68 28 q 86 547 65 368 q 148 893 106 726 q 239 1137 189 1061 z "},")":{"ha":547,"x_min":41,"x_max":463,"o":"m 432 1114 q 462 860 460 1030 q 443 511 463 690 q 381 165 422 332 q 290 -79 340 -2 q 179 -119 255 -134 q 79 -67 121 -107 q 57 -3 41 -30 q 68 8 60 3 q 164 127 121 44 q 234 313 207 210 q 273 534 260 416 q 282 758 286 652 q 256 952 278 863 q 195 1084 233 1040 q 208 1143 170 1112 q 309 1179 247 1174 q 419 1139 386 1185 q 432 1114 427 1128 z "},"*":{"ha":644,"x_min":81,"x_max":554,"o":"m 504 1107 q 541 1079 528 1126 q 545 967 554 1028 q 515 914 536 912 q 504 920 510 915 q 374 957 479 939 q 412 827 391 852 q 384 790 431 802 q 271 787 332 777 q 219 816 217 795 q 224 827 219 821 q 244 878 233 840 q 261 957 255 916 q 131 920 157 939 q 95 947 107 901 q 92 1061 82 999 q 121 1112 100 1115 q 131 1107 125 1111 q 182 1086 144 1097 q 261 1069 220 1076 q 244 1148 255 1110 q 224 1200 233 1187 q 252 1236 205 1223 q 366 1239 304 1249 q 418 1211 419 1231 q 412 1200 417 1205 q 374 1069 392 1175 q 454 1086 415 1076 q 504 1107 492 1097 z "},"+":{"ha":901,"x_min":102,"x_max":817,"o":"m 778 657 q 804 639 793 671 q 806 552 817 598 q 768 501 796 508 q 538 507 723 490 q 515 509 523 508 q 512 356 507 427 q 539 258 516 284 q 522 233 553 243 q 435 230 481 220 q 383 268 391 240 q 392 521 372 321 q 140 497 186 536 q 115 515 125 484 q 112 601 102 555 q 150 652 122 645 q 380 646 195 663 q 403 644 395 645 q 407 797 411 726 q 379 895 402 869 q 397 921 366 910 q 484 923 437 934 q 534 885 527 913 q 526 633 547 834 q 778 657 732 616 z "},",":{"ha":404,"x_min":58,"x_max":280,"o":"m 167 184 q 235 183 195 192 q 278 149 276 174 q 275 81 280 110 q 252 3 269 41 q 203 -65 235 -35 q 132 -97 172 -95 q 85 -83 108 -99 q 60 -43 62 -67 q 66 -26 58 -26 q 140 7 119 -24 q 122 56 122 20 q 127 113 122 79 q 140 164 132 147 q 167 184 146 180 z "},"-":{"ha":772,"x_min":104,"x_max":686,"o":"m 647 657 q 673 639 663 671 q 675 552 686 598 q 637 501 665 508 q 548 496 598 492 q 437 508 498 501 q 320 522 375 515 q 217 524 266 529 q 143 497 168 518 q 118 515 128 484 q 115 601 104 555 q 153 652 125 645 q 242 656 192 661 q 353 645 292 652 q 470 631 415 637 q 573 630 524 625 q 647 657 623 636 z "},".":{"ha":450,"x_min":149,"x_max":306,"o":"m 193 184 q 262 183 221 192 q 304 149 302 174 q 298 82 306 126 q 281 16 290 37 q 272 2 277 6 q 256 -4 267 -2 q 212 -6 241 -8 q 167 7 182 -4 q 149 56 149 20 q 154 113 149 79 q 167 164 159 147 q 193 184 173 180 z "},"/":{"ha":662,"x_min":86,"x_max":545,"o":"m 542 1084 q 520 929 545 1028 q 458 724 495 829 q 380 497 421 619 q 309 272 339 375 q 270 76 279 170 q 286 -66 260 -18 q 262 -110 300 -94 q 168 -115 220 -127 q 92 -54 105 -101 q 89 -37 90 -46 q 111 114 86 16 q 172 317 135 212 q 250 546 210 423 q 321 773 291 669 q 360 972 351 878 q 345 1114 370 1066 q 368 1158 331 1142 q 463 1162 410 1175 q 539 1101 526 1148 q 542 1084 541 1093 z "},":":{"ha":486,"x_min":149,"x_max":335,"o":"m 193 184 q 262 183 221 192 q 304 149 302 174 q 298 82 306 126 q 281 16 290 37 q 272 2 277 6 q 256 -4 267 -2 q 212 -6 241 -8 q 167 7 182 -4 q 149 56 149 20 q 154 113 149 79 q 167 164 159 147 q 193 184 173 180 m 334 606 q 327 538 335 583 q 310 472 319 494 q 301 458 306 462 q 283 453 296 455 q 241 451 271 449 q 196 464 211 453 q 178 513 178 475 q 182 570 178 536 q 195 621 187 604 q 222 642 203 637 q 291 640 250 649 q 334 606 332 631 z "},";":{"ha":443,"x_min":58,"x_max":309,"o":"m 167 184 q 235 183 195 192 q 278 149 276 174 q 275 81 280 110 q 252 3 269 41 q 203 -65 235 -35 q 132 -97 172 -95 q 85 -83 108 -99 q 60 -43 62 -67 q 66 -26 58 -26 q 140 7 119 -24 q 122 56 122 20 q 127 113 122 79 q 140 164 132 147 q 167 184 146 180 m 307 606 q 301 539 309 584 q 283 472 293 494 q 275 459 281 463 q 258 453 270 455 q 215 451 244 449 q 171 464 185 453 q 151 513 151 476 q 156 570 151 536 q 170 621 161 604 q 196 642 176 637 q 264 640 224 649 q 307 606 305 631 z "},"<":{"ha":761,"x_min":104,"x_max":637,"o":"m 272 507 q 388 450 312 483 q 524 387 463 416 q 611 329 584 357 q 608 245 637 303 q 562 188 588 204 q 539 192 544 176 q 492 252 530 222 q 403 305 454 281 q 299 352 352 330 q 197 401 247 375 q 122 450 146 427 q 105 509 104 467 q 125 567 106 551 q 200 616 150 590 q 301 664 250 642 q 404 710 353 686 q 492 763 455 734 q 539 822 530 792 q 572 819 545 843 q 617 749 603 791 q 611 686 631 707 q 524 628 584 659 q 388 565 463 598 q 272 507 312 532 z "},"=":{"ha":886,"x_min":86,"x_max":801,"o":"m 762 519 q 788 502 777 533 q 791 416 801 463 q 753 366 781 372 q 649 360 712 356 q 505 372 587 365 q 349 386 422 380 q 212 387 275 393 q 125 359 149 380 q 100 378 109 346 q 97 465 86 418 q 135 515 107 509 q 238 520 176 525 q 383 508 301 515 q 539 494 465 501 q 676 493 613 488 q 762 519 739 498 m 125 632 q 100 650 110 618 q 97 735 87 689 q 135 786 106 779 q 238 791 176 795 q 383 780 301 787 q 539 766 465 772 q 676 765 613 760 q 762 791 739 770 q 788 774 778 805 q 791 687 801 734 q 753 636 781 644 q 649 631 712 627 q 505 643 587 636 q 349 657 422 650 q 212 659 275 664 q 125 632 149 653 z "},">":{"ha":794,"x_min":149,"x_max":682,"o":"m 514 507 q 398 565 474 532 q 262 628 323 598 q 175 686 202 659 q 178 769 149 712 q 224 827 199 810 q 248 822 243 838 q 314 749 259 785 q 432 687 370 712 q 563 628 494 661 q 661 567 631 595 q 681 509 680 551 q 664 450 682 467 q 590 401 640 427 q 487 352 540 375 q 384 305 435 330 q 295 252 332 281 q 248 192 257 222 q 215 195 241 172 q 170 266 184 222 q 175 329 155 309 q 262 387 202 357 q 398 450 323 416 q 514 507 474 483 z "},"?":{"ha":711,"x_min":64,"x_max":621,"o":"m 220 268 q 275 264 242 271 q 336 240 308 258 q 363 197 364 222 q 342 109 361 168 q 306 22 323 50 q 291 5 299 9 q 267 0 283 1 q 204 6 241 -1 q 150 31 168 14 q 134 100 127 51 q 151 179 139 135 q 178 244 163 224 q 220 268 191 266 m 458 1186 q 581 1090 541 1163 q 593 914 621 1018 q 541 782 581 870 q 467 618 501 694 q 411 462 432 543 q 403 336 389 381 q 379 310 410 317 q 313 314 350 304 q 261 339 280 323 q 238 377 243 355 q 236 421 234 399 q 248 473 239 443 q 302 610 264 533 q 376 750 340 688 q 448 887 412 813 q 498 1013 484 960 q 502 1080 509 1057 q 472 1109 494 1103 q 366 1065 420 1125 q 287 919 312 1004 q 282 782 262 833 q 271 765 288 770 q 187 770 229 759 q 79 876 95 796 q 119 1036 64 950 q 260 1165 172 1121 q 458 1186 359 1215 z "},"@":{"ha":1232,"x_min":58,"x_max":1167,"o":"m 1053 0 q 1126 -37 1099 -12 q 1158 -91 1154 -63 q 1155 -146 1162 -119 q 1129 -191 1147 -173 q 1004 -275 1076 -241 q 707 -351 857 -347 q 275 -190 441 -357 q 98 163 138 -54 q 121 585 58 374 q 338 936 186 802 q 768 1093 516 1094 q 920 1066 850 1093 q 1044 985 989 1039 q 1132 843 1099 932 q 1165 637 1164 753 q 1133 393 1167 519 q 1104 292 1121 343 q 1062 184 1086 240 q 1005 84 1038 128 q 937 21 972 40 q 869 0 900 2 q 772 45 807 -4 q 726 179 737 94 q 646 56 703 102 q 542 11 591 11 q 414 106 457 11 q 387 332 373 199 q 466 554 401 469 q 618 633 528 637 q 746 589 684 630 q 765 578 761 579 l 766 576 l 766 578 q 880 634 800 638 q 981 599 938 631 q 1004 545 1018 570 q 999 538 1002 541 q 932 382 964 501 q 909 197 899 258 q 932 167 913 165 q 994 244 957 169 q 1059 400 1030 319 q 1092 639 1092 522 q 1066 798 1091 728 q 997 909 1040 867 q 897 973 953 951 q 778 993 842 994 q 423 820 560 989 q 279 463 309 679 q 304 81 250 261 q 471 -176 357 -96 q 653 -228 552 -233 q 913 -123 772 -224 q 1053 0 982 -74 m 648 232 q 742 494 709 327 q 688 509 715 517 q 635 468 659 500 q 579 301 589 402 q 581 229 574 262 q 610 201 589 199 q 648 232 629 201 z "},"A":{"ha":1196,"x_min":0,"x_max":1189,"o":"m 835 1074 q 972 1126 867 1131 q 1129 1083 1057 1121 q 1185 1023 1189 1052 q 1178 1007 1185 1015 q 1098 804 1131 955 q 1048 461 1065 653 q 1122 469 1086 467 q 1156 454 1146 472 q 1157 415 1166 435 q 1129 393 1149 395 q 1042 379 1111 392 q 1036 135 1034 235 q 1084 -33 1045 -9 q 1099 -50 1099 -42 q 1091 -67 1099 -58 q 1074 -81 1083 -76 q 974 -107 1031 -107 q 894 -92 928 -107 q 838 -52 859 -77 q 802 8 816 -28 q 783 79 789 43 q 778 159 778 115 q 780 236 777 202 q 789 309 783 271 q 789 315 789 311 q 790 322 790 320 q 627 294 673 301 q 501 86 548 155 q 471 42 480 55 q 441 1 463 29 q 405 -42 419 -28 q 368 -76 391 -56 q 324 -107 345 -97 q 277 -124 304 -117 q 222 -132 250 -132 q 118 -103 170 -132 q 34 -27 67 -75 q 0 75 1 22 q 39 106 0 118 q 82 98 58 98 q 349 290 191 104 q 229 329 281 302 q 145 393 176 357 q 98 471 114 430 q 81 555 81 513 q 131 700 79 640 q 268 760 182 760 q 331 748 307 760 q 349 720 355 737 q 360 568 321 630 q 484 471 399 506 q 598 651 537 550 q 691 811 659 753 q 779 971 724 870 q 835 1074 834 1072 m 882 739 q 891 783 888 766 q 891 805 893 800 q 879 797 888 810 q 852 749 869 783 q 694 427 712 460 l 710 427 q 810 431 743 425 q 882 739 831 541 z "},"B":{"ha":1158,"x_min":-3,"x_max":1114,"o":"m 896 582 q 1028 483 986 555 q 1067 315 1070 410 q 1028 153 1063 232 q 936 13 994 75 q 805 -94 878 -48 q 648 -162 732 -139 q 484 -182 565 -185 q 356 -157 412 -179 q 267 -99 300 -135 q 216 -20 233 -64 q 200 74 199 24 q 266 247 203 165 q 440 371 329 329 q 490 715 458 552 q 558 946 522 878 q 677 995 589 1003 q 801 951 746 989 q 838 893 848 920 q 828 880 835 886 q 717 676 767 831 q 788 691 755 677 q 844 726 821 705 q 883 776 866 748 q 904 835 899 804 q 906 896 909 865 q 888 955 904 927 q 849 1006 873 983 q 787 1042 825 1028 q 700 1057 748 1055 q 582 1038 643 1059 q 467 979 520 1017 q 374 887 414 941 q 315 776 334 834 q 307 653 296 718 q 364 529 318 587 q 354 500 378 512 q 236 472 295 470 q 62 550 127 475 q 0 732 -3 625 q 34 865 2 802 q 119 978 66 929 q 241 1066 172 1027 q 389 1131 311 1106 q 550 1168 467 1156 q 710 1178 632 1181 q 909 1137 823 1174 q 1039 1046 994 1100 q 1099 925 1084 991 q 1095 794 1114 858 q 1025 672 1076 730 q 896 582 973 615 m 390 176 q 399 106 387 140 q 436 52 411 73 q 428 89 430 68 q 432 272 424 156 q 390 176 397 235 m 838 383 q 819 458 839 429 q 758 490 800 486 q 702 478 730 494 q 656 435 673 463 q 618 50 613 198 q 730 138 678 79 q 809 262 781 197 q 838 383 837 328 z "},"C":{"ha":819,"x_min":-7,"x_max":906,"o":"m 819 403 q 850 437 831 427 q 881 441 868 448 q 900 417 894 434 q 895 371 906 400 q 832 232 865 297 q 749 99 798 167 q 646 -17 701 32 q 520 -98 592 -66 q 371 -135 449 -131 q 79 7 176 -145 q 1 358 -7 140 q 98 767 9 570 q 330 1069 190 969 q 545 1147 432 1142 q 669 1111 615 1151 q 750 1003 723 1070 q 790 855 777 937 q 791 690 802 773 q 755 538 779 608 q 685 425 730 469 q 582 379 639 381 q 499 393 544 378 q 435 435 455 408 q 559 592 499 465 q 635 854 620 721 q 603 1035 652 994 q 557 1048 584 1050 q 412 909 486 1044 q 289 555 332 764 q 272 176 241 325 q 409 18 303 25 q 425 17 417 17 q 527 46 475 18 q 620 115 579 75 q 702 209 661 155 q 769 309 742 264 q 819 403 795 355 z "},"D":{"ha":1221,"x_min":0,"x_max":1160,"o":"m 602 1182 q 1006 1015 861 1181 q 1143 663 1126 878 q 1079 258 1160 458 q 845 -61 997 57 q 464 -182 677 -191 q 337 -157 393 -179 q 247 -99 281 -135 q 196 -20 213 -64 q 180 74 179 24 q 247 247 184 165 q 421 371 310 329 q 470 713 438 549 q 539 946 503 878 q 658 995 570 1003 q 781 951 726 989 q 817 893 827 920 q 807 880 814 886 q 716 733 759 842 q 648 496 674 624 q 609 246 623 369 q 599 45 595 123 q 780 203 701 85 q 888 464 859 321 q 912 741 918 606 q 837 966 906 876 q 650 1055 768 1057 q 488 1009 567 1055 q 356 881 408 963 q 304 705 304 800 q 367 529 304 606 q 357 500 379 511 q 239 472 296 470 q 62 541 123 475 q 0 708 0 608 q 35 867 1 791 q 127 999 68 943 q 262 1098 186 1056 q 426 1161 338 1140 q 602 1182 513 1183 m 371 176 q 379 106 368 140 q 416 52 391 73 q 408 89 410 68 q 412 272 404 156 q 371 176 376 233 z "},"E":{"ha":825,"x_min":-5,"x_max":907,"o":"m 825 407 q 849 437 836 427 q 875 447 863 448 q 897 438 887 446 q 907 414 906 431 q 900 375 907 397 q 835 233 870 300 q 750 98 800 167 q 643 -19 699 30 q 512 -99 587 -68 q 357 -131 437 -130 q 232 -109 292 -132 q 128 -49 172 -87 q 53 39 84 -12 q 8 143 22 89 q 2 252 -5 197 q 37 356 9 308 q 120 444 64 404 q 254 504 176 484 q 186 608 208 545 q 171 739 165 671 q 205 877 176 808 q 282 1002 235 947 q 398 1092 329 1057 q 547 1126 468 1126 q 694 1065 637 1127 q 764 915 752 1004 q 764 736 776 826 q 707 584 752 647 q 602 518 662 520 q 537 529 572 517 q 486 562 502 541 q 591 703 543 588 q 646 924 640 817 q 608 1045 652 1029 q 593 1047 601 1047 q 534 1017 565 1047 q 476 940 503 986 q 428 835 450 893 q 393 723 406 777 q 381 622 381 669 q 397 553 382 576 q 429 524 410 534 q 458 511 449 515 q 466 484 467 507 q 444 411 464 461 q 312 340 352 419 q 296 180 278 273 q 363 48 312 92 q 435 21 395 21 q 533 50 482 22 q 626 119 584 77 q 708 215 668 161 q 776 316 749 270 q 825 407 804 363 z "},"F":{"ha":908,"x_min":-3,"x_max":1131,"o":"m 1018 1278 q 1033 1288 1017 1291 q 1091 1251 1061 1283 q 1129 1161 1130 1211 q 1099 1088 1129 1119 q 1014 1048 1069 1057 q 983 1046 1001 1047 q 950 1046 965 1046 q 909 1047 935 1046 q 869 1048 883 1048 q 821 1051 854 1049 q 774 1054 787 1053 q 612 587 689 967 q 726 707 723 614 q 717 761 726 733 q 727 780 713 772 q 765 789 741 787 q 817 780 793 790 q 858 750 842 770 q 884 707 874 731 q 892 655 895 682 q 880 602 890 627 q 842 552 869 576 q 778 514 816 529 q 628 489 715 489 q 593 490 605 489 q 546 144 561 310 q 539 -94 531 -22 q 508 -128 542 -119 q 417 -117 465 -139 q 348 -21 354 -87 q 347 -16 347 -18 q 386 501 336 129 q 281 485 307 501 q 261 440 257 469 q 243 436 262 429 q 201 475 216 447 q 192 513 191 493 q 229 572 192 552 q 256 582 240 578 q 293 585 271 585 q 328 585 315 585 q 367 583 340 585 q 396 581 393 581 q 485 1047 439 890 q 268 847 273 1010 q 285 761 266 808 q 268 731 291 743 q 205 715 245 719 q 58 775 118 710 q 0 920 1 836 q 76 1094 -2 1021 q 425 1200 189 1199 q 548 1196 479 1200 q 671 1188 618 1192 q 783 1181 725 1184 q 883 1181 842 1178 q 957 1194 924 1184 q 1006 1224 991 1203 q 1018 1278 1021 1245 z "},"G":{"ha":1201,"x_min":-2,"x_max":1172,"o":"m 1128 453 q 1102 293 1111 401 q 1104 71 1094 184 q 1147 -82 1114 -42 q 1130 -117 1162 -100 q 1044 -130 1091 -136 q 982 -87 993 -124 q 974 -47 976 -71 q 736 -135 863 -130 q 600 -118 661 -139 q 496 -57 538 -97 q 424 42 454 -16 q 381 167 395 100 q 366 311 367 234 q 312 266 334 291 q 276 211 290 241 q 265 144 263 181 q 283 66 267 107 q 268 37 290 50 q 207 20 245 23 q 64 66 121 12 q 1 204 7 121 q 7 281 -2 243 q 40 358 16 320 q 101 426 64 395 q 196 479 138 456 q 323 510 253 502 q 353 513 333 511 q 385 515 374 515 q 435 699 402 610 q 517 868 468 788 q 624 1008 566 947 q 757 1106 683 1069 q 909 1147 831 1143 q 1073 1092 1007 1152 q 1155 942 1139 1031 q 1160 763 1172 853 q 1094 607 1149 672 q 961 539 1040 542 q 879 553 923 538 q 815 595 836 568 q 940 727 882 626 q 1007 923 998 828 q 962 1043 1016 1021 q 922 1048 945 1050 q 812 964 869 1044 q 712 762 755 883 q 646 507 669 640 q 862 483 728 500 q 1029 465 997 465 q 1073 483 1048 480 q 1115 476 1099 485 q 1128 453 1132 467 m 981 277 q 997 389 989 348 q 877 394 961 389 q 753 398 792 398 q 631 395 715 399 q 628 248 622 317 q 651 126 634 178 q 704 45 668 75 q 791 17 740 16 q 981 277 949 22 z "},"H":{"ha":1495,"x_min":-19,"x_max":1470,"o":"m 1379 603 q 1398 609 1378 616 q 1451 567 1428 600 q 1470 510 1470 541 q 1324 406 1468 435 q 1231 392 1289 399 q 1197 103 1207 237 q 1193 -94 1186 -31 q 1162 -128 1196 -119 q 1072 -117 1119 -140 q 1002 -22 1008 -88 q 1002 -17 1002 -20 q 1023 378 994 100 q 705 355 793 366 q 690 183 694 256 q 697 39 687 110 q 734 -72 707 -32 q 731 -106 747 -90 q 683 -134 716 -123 q 611 -144 650 -144 q 526 -129 559 -144 q 476 -83 492 -114 q 454 -19 460 -52 q 449 62 449 14 q 472 304 447 169 l 457 297 q 352 203 382 262 q 350 71 322 145 q 338 47 356 57 q 288 35 319 37 q 169 84 220 31 q 119 208 118 138 q 150 309 120 265 q 233 380 179 352 q 352 426 287 409 q 501 454 417 444 q 524 558 506 475 q 548 673 542 641 q 566 767 555 705 q 580 873 576 829 q 583 960 584 918 q 560 1058 583 1025 q 504 1090 538 1090 q 425 1059 461 1090 q 365 976 389 1027 q 329 861 342 925 q 315 735 315 798 q 327 618 314 673 q 366 529 340 562 q 355 500 379 512 q 233 469 300 471 q 32 572 90 469 q 10 799 -19 663 q 132 1041 39 934 q 389 1192 241 1168 q 450 1197 419 1197 q 569 1175 513 1197 q 668 1112 625 1154 q 738 1005 712 1071 q 765 856 764 939 q 763 796 766 829 q 755 720 761 764 q 746 646 750 676 q 733 557 742 616 q 721 472 724 498 q 892 479 783 475 q 1036 484 1001 482 q 1093 853 1061 688 q 1156 1076 1125 1019 q 1275 1125 1186 1133 q 1397 1082 1343 1119 q 1434 1024 1444 1050 q 1425 1011 1432 1017 q 1329 832 1375 971 q 1249 504 1283 693 q 1350 541 1316 517 q 1379 603 1383 565 z "},"I":{"ha":817,"x_min":-19,"x_max":766,"o":"m 765 856 q 751 688 766 795 q 722 476 737 581 q 696 264 707 372 q 693 66 685 157 q 734 -72 702 -24 q 731 -106 747 -90 q 683 -134 716 -123 q 611 -144 650 -144 q 526 -129 559 -144 q 476 -83 492 -114 q 454 -19 460 -52 q 449 62 449 14 q 462 238 448 140 q 496 429 476 336 q 537 614 517 522 q 571 798 557 706 q 583 960 585 890 q 560 1058 583 1025 q 504 1090 538 1090 q 425 1059 461 1090 q 365 976 389 1027 q 329 861 342 925 q 315 735 315 798 q 327 618 314 673 q 366 529 340 562 q 355 500 379 512 q 233 469 300 471 q 32 572 90 469 q 10 799 -19 663 q 132 1041 39 934 q 389 1192 241 1168 q 450 1197 419 1197 q 569 1175 513 1197 q 668 1112 625 1154 q 738 1005 712 1071 q 765 856 764 939 z "},"J":{"ha":929,"x_min":-3,"x_max":1063,"o":"m 1015 1128 q 1052 1109 1042 1128 q 1051 1070 1063 1090 q 1013 1051 1040 1051 l 986 1051 q 982 1046 985 1048 q 911 921 939 1006 q 869 729 882 836 q 847 517 855 622 q 829 305 839 412 q 804 139 819 197 q 686 -62 772 8 q 492 -132 600 -132 q 216 -5 330 -133 q 92 251 123 100 q 105 504 63 395 q 247 636 148 612 q 372 633 303 650 q 484 576 437 618 q 486 546 505 560 q 427 463 452 518 q 390 344 401 408 q 379 213 378 280 q 393 91 380 145 q 436 1 406 36 q 507 -33 466 -33 q 564 -5 538 -33 q 604 79 590 23 q 631 285 624 161 q 636 519 637 410 q 642 760 634 629 q 671 982 650 890 q 694 1057 682 1027 q 612 1051 655 1055 q 525 1034 569 1046 q 434 1003 481 1023 q 353 957 388 984 q 293 895 318 930 q 267 817 268 860 q 286 721 265 774 q 270 690 293 705 q 208 672 248 676 q 66 718 124 663 q 1 856 9 773 q 13 953 -3 905 q 64 1045 28 1001 q 167 1120 100 1088 q 321 1164 233 1152 q 523 1172 410 1176 q 724 1157 636 1168 q 897 1137 812 1147 q 1015 1128 983 1127 z "},"K":{"ha":1194,"x_min":-19,"x_max":1242,"o":"m 1238 974 q 1157 778 1230 901 q 995 547 1084 654 q 842 393 905 439 q 909 290 886 325 q 981 185 932 256 q 1074 68 1031 115 q 1156 -7 1118 20 q 1153 -45 1173 -18 q 1076 -108 1130 -81 q 978 -135 1023 -135 q 906 -113 942 -135 q 842 -57 871 -91 q 786 22 813 -22 q 737 107 759 66 q 697 188 715 149 q 692 200 694 196 q 734 -72 682 7 q 731 -106 747 -90 q 683 -134 716 -123 q 611 -144 650 -144 q 526 -129 559 -144 q 476 -83 492 -114 q 454 -19 460 -52 q 449 62 449 14 q 462 238 448 140 q 496 429 476 336 q 537 614 517 522 q 571 798 557 706 q 583 960 585 890 q 560 1058 583 1025 q 504 1090 538 1090 q 425 1059 461 1090 q 365 976 389 1027 q 329 861 342 925 q 315 735 315 798 q 327 618 314 673 q 366 529 340 562 q 355 500 379 512 q 233 469 300 471 q 32 572 90 469 q 10 799 -19 663 q 132 1041 39 934 q 389 1192 241 1168 q 450 1197 419 1197 q 569 1175 513 1197 q 668 1112 625 1154 q 738 1005 712 1071 q 765 856 764 939 q 734 567 765 770 q 907 835 840 701 q 1000 1114 975 968 q 1044 1137 1004 1135 q 1129 1122 1082 1139 q 1208 1065 1171 1105 q 1238 974 1242 1028 z "},"L":{"ha":817,"x_min":-19,"x_max":1154,"o":"m 355 500 q 233 469 300 471 q 32 572 90 469 q 10 799 -19 663 q 132 1041 39 934 q 389 1192 241 1168 q 450 1197 419 1197 q 569 1175 513 1197 q 668 1112 625 1154 q 738 1005 712 1071 q 765 856 764 939 q 751 688 766 795 q 722 476 737 581 q 696 264 707 372 q 693 66 685 157 q 734 -72 702 -24 q 731 -106 747 -90 q 683 -134 716 -123 q 611 -144 650 -144 q 526 -129 559 -144 q 476 -83 492 -114 q 454 -19 460 -52 q 449 62 449 14 q 462 238 448 140 q 496 429 476 336 q 537 614 517 522 q 571 798 557 706 q 583 960 585 890 q 560 1058 583 1025 q 504 1090 538 1090 q 425 1059 461 1090 q 365 976 389 1027 q 329 861 342 925 q 315 735 315 798 q 327 618 314 673 q 366 529 340 562 q 355 500 379 512 m 1150 -248 q 1107 -345 1154 -303 q 1060 -368 1078 -371 q 1053 -359 1052 -368 q 1039 -310 1054 -329 q 992 -284 1023 -292 q 923 -276 961 -277 q 832 -281 885 -275 q 730 -292 779 -286 q 617 -305 681 -298 q 505 -314 554 -312 q 170 -223 276 -325 q 102 -64 100 -157 q 159 70 105 16 q 282 121 210 121 q 339 109 318 119 q 355 83 360 99 q 345 3 342 41 q 370 -78 349 -44 q 424 -131 391 -113 q 500 -161 457 -150 q 592 -174 543 -173 q 692 -174 640 -175 q 875 -158 750 -172 q 1039 -149 1000 -145 q 1118 -181 1088 -153 q 1150 -248 1148 -209 z "},"M":{"ha":1587,"x_min":-19,"x_max":1605,"o":"m 1597 920 q 1489 447 1535 701 q 1436 -1 1442 192 q 1446 -72 1436 -57 q 1446 -103 1456 -89 q 1367 -134 1426 -134 q 1267 -103 1312 -134 q 1204 -21 1223 -72 q 1190 117 1185 40 q 1209 261 1196 187 q 1235 388 1223 335 q 1275 525 1248 441 q 1315 647 1302 609 q 1364 783 1329 686 q 1375 817 1373 806 q 1375 828 1378 828 q 1353 798 1369 828 q 1254 591 1319 739 q 1180 421 1210 493 q 1117 246 1151 349 q 1071 66 1083 143 q 1072 5 1063 24 q 1065 -7 1078 -3 q 1032 -14 1052 -14 q 902 47 959 -14 q 843 182 845 109 q 848 254 843 217 q 920 579 868 391 q 996 852 961 738 l 1006 890 q 983 844 1000 883 q 791 342 880 604 q 774 294 788 332 q 754 232 761 255 q 735 169 747 209 q 719 99 723 129 q 712 36 714 70 q 715 -25 709 3 q 734 -72 721 -52 q 731 -106 747 -90 q 683 -134 716 -123 q 611 -144 650 -144 q 526 -129 559 -144 q 476 -83 492 -114 q 454 -19 460 -52 q 449 62 449 14 q 462 238 448 140 q 496 429 476 336 q 537 614 517 522 q 571 798 557 706 q 583 960 585 890 q 560 1058 583 1025 q 504 1090 538 1090 q 425 1059 461 1090 q 365 976 389 1027 q 329 861 342 925 q 315 735 315 798 q 327 618 314 673 q 366 529 340 562 q 355 500 379 512 q 233 469 300 471 q 32 572 90 469 q 10 799 -19 663 q 132 1041 39 934 q 389 1192 241 1168 q 450 1197 419 1197 q 570 1175 514 1197 q 669 1112 625 1154 q 739 1005 713 1071 q 765 856 764 939 q 758 734 766 805 q 733 552 750 664 q 710 389 717 439 q 945 1028 839 774 q 977 1093 967 1080 q 1020 1118 991 1115 q 1081 1108 1049 1122 q 1141 1074 1112 1095 q 1190 1021 1171 1052 q 1208 961 1208 990 q 1194 889 1208 939 q 1126 650 1173 805 q 1061 431 1079 495 q 1056 402 1057 408 q 1057 393 1055 397 q 1082 437 1061 393 q 1202 703 1126 530 q 1243 797 1215 732 q 1294 910 1272 861 q 1337 1003 1316 959 q 1385 1090 1362 1055 q 1427 1107 1399 1107 q 1487 1088 1455 1107 q 1548 1042 1520 1068 q 1590 983 1575 1017 q 1597 920 1605 949 z "},"N":{"ha":1290,"x_min":-19,"x_max":1307,"o":"m 1300 920 q 1191 448 1238 704 q 1139 -1 1144 193 q 1149 -72 1137 -52 q 1149 -103 1159 -89 q 1068 -134 1128 -134 q 970 -103 1014 -134 q 907 -21 926 -72 q 893 117 887 33 q 912 262 899 187 q 937 387 926 338 q 978 526 949 436 q 1018 646 1007 616 q 1067 783 1029 677 q 1075 808 1072 797 q 1079 823 1078 819 q 1078 828 1079 827 q 1035 770 1069 828 q 955 623 1000 712 q 862 425 910 533 q 779 217 814 317 q 729 38 744 117 q 734 -72 713 -41 q 731 -106 747 -90 q 683 -134 716 -123 q 611 -144 650 -144 q 526 -129 559 -144 q 476 -83 492 -114 q 454 -19 460 -52 q 449 62 449 14 q 462 238 448 140 q 496 429 476 336 q 537 614 517 522 q 571 798 557 706 q 583 960 585 890 q 560 1058 583 1025 q 504 1090 538 1090 q 425 1059 461 1090 q 365 976 389 1027 q 329 861 342 925 q 315 735 315 798 q 327 618 314 673 q 366 529 340 562 q 355 500 379 512 q 233 469 300 471 q 32 572 90 469 q 10 799 -19 663 q 132 1041 39 934 q 389 1192 241 1168 q 450 1197 419 1197 q 569 1175 513 1197 q 668 1112 625 1154 q 738 1005 712 1071 q 765 856 764 939 q 735 568 766 779 q 697 275 705 357 q 820 573 755 422 q 965 884 884 724 q 1092 1090 1046 1045 q 1142 1107 1114 1109 q 1202 1083 1171 1105 q 1257 1035 1232 1062 q 1294 976 1282 1008 q 1300 920 1307 943 z "},"O":{"ha":1230,"x_min":-2,"x_max":1160,"o":"m 479 1063 q 529 1077 479 1063 q 673 1093 578 1092 q 848 1068 769 1095 q 982 995 927 1042 q 1075 883 1036 947 q 1133 743 1114 818 q 1156 586 1152 668 q 1149 421 1160 503 q 1112 260 1137 339 q 1050 112 1086 180 q 964 -12 1014 44 q 859 -102 915 -68 q 693 -150 781 -148 q 571 -125 626 -151 q 480 -57 516 -99 q 418 42 444 -14 q 382 158 393 99 q 371 278 372 217 q 386 407 371 334 q 426 554 400 480 q 496 685 452 629 q 591 753 540 741 q 680 743 633 763 q 759 685 726 723 q 799 607 791 648 q 787 576 803 583 q 662 411 718 545 q 608 155 606 277 q 686 31 610 33 q 759 61 724 30 q 822 148 795 93 q 871 273 849 202 q 904 422 894 344 q 917 579 914 500 q 906 728 920 657 q 868 854 892 800 q 800 941 844 909 q 699 972 756 973 q 579 935 641 972 q 465 835 518 899 q 372 675 412 771 q 321 471 333 580 q 322 385 315 406 q 294 349 326 363 q 215 334 262 334 q 57 386 113 332 q 0 529 2 439 q 36 706 -2 619 q 141 860 74 792 q 295 981 209 928 q 479 1063 381 1034 z "},"P":{"ha":1187,"x_min":-3,"x_max":1157,"o":"m 679 1083 q 851 1056 772 1082 q 985 988 930 1031 q 1080 888 1040 945 q 1137 767 1119 831 q 1156 635 1156 703 q 1140 501 1157 566 q 1087 376 1123 435 q 999 269 1050 316 q 875 192 947 222 q 718 153 803 161 q 774 -86 725 -19 q 751 -138 795 -115 q 631 -161 703 -163 q 510 -109 543 -157 q 497 -79 500 -96 q 493 180 480 15 q 535 522 505 345 q 595 782 566 698 q 684 860 616 846 q 777 850 736 871 q 802 808 811 833 q 752 608 776 744 q 721 332 729 473 q 813 387 772 349 q 878 473 854 425 q 914 576 902 520 q 924 687 926 632 q 906 792 922 741 q 864 881 890 843 q 794 942 837 920 q 701 964 752 964 q 605 942 654 963 q 510 880 557 922 q 426 781 464 838 q 359 643 387 723 q 321 471 332 563 q 322 385 315 406 q 290 347 327 363 q 201 332 254 330 q 132 344 165 333 q 69 376 99 355 q 20 437 39 398 q 0 529 1 477 q 36 718 -3 629 q 142 874 75 808 q 298 988 210 940 q 484 1060 386 1036 q 679 1083 582 1084 z "},"Q":{"ha":1230,"x_min":-2,"x_max":1225,"o":"m 1143 -65 q 1217 -191 1210 -109 q 1176 -332 1225 -268 q 1017 -414 1118 -407 q 711 -296 879 -423 q 624 -224 673 -266 q 539 -150 576 -182 q 461 -82 502 -117 q 388 -27 420 -48 q 327 5 357 -7 q 274 10 297 17 q 235 -22 250 3 q 213 -15 227 -36 q 195 62 192 16 q 218 125 197 98 q 281 161 242 155 q 367 143 320 167 q 378 136 370 141 q 389 127 385 130 q 371 278 371 209 q 386 407 371 334 q 426 554 400 480 q 496 685 452 629 q 591 753 540 741 q 680 743 633 763 q 759 685 726 723 q 799 607 791 648 q 787 576 803 583 q 662 411 718 545 q 608 155 606 277 q 686 31 610 33 q 759 61 724 30 q 822 148 795 93 q 871 273 849 202 q 904 422 894 344 q 917 579 914 500 q 906 728 920 657 q 868 854 892 800 q 800 941 844 909 q 699 972 756 973 q 579 935 641 972 q 465 835 518 899 q 372 675 412 771 q 321 471 333 580 q 322 385 315 406 q 294 349 326 363 q 215 334 262 334 q 57 386 113 332 q 0 529 2 439 q 36 706 -2 619 q 141 860 74 792 q 295 981 209 928 q 479 1063 381 1034 q 673 1093 578 1092 q 848 1068 769 1095 q 982 995 927 1042 q 1075 883 1036 947 q 1133 743 1114 818 q 1156 586 1152 668 q 1149 421 1160 503 q 1112 260 1137 339 q 1050 112 1086 180 q 964 -12 1014 44 q 859 -102 915 -68 q 743 -144 808 -134 q 1023 -126 924 -245 q 1060 -53 1049 -94 q 1089 -41 1065 -37 q 1143 -65 1113 -45 z "},"R":{"ha":1179,"x_min":-3,"x_max":1162,"o":"m 1139 -16 q 1156 -31 1158 -18 q 1136 -62 1154 -42 q 1058 -112 1106 -92 q 966 -131 1010 -131 q 919 -122 942 -131 q 878 -99 896 -113 q 842 -63 860 -85 q 810 -21 823 -41 q 783 28 798 -1 q 759 78 768 58 q 737 127 750 98 q 718 170 724 156 q 774 -86 723 -15 q 751 -138 795 -115 q 631 -161 703 -163 q 510 -109 543 -157 q 497 -79 500 -96 q 493 180 480 15 q 535 522 505 345 q 595 782 566 698 q 684 860 616 846 q 777 850 736 871 q 802 808 811 833 q 753 617 776 747 q 721 350 730 488 q 813 406 772 368 q 878 491 854 444 q 914 595 902 539 q 924 706 926 651 q 906 811 922 760 q 864 900 890 861 q 795 960 837 938 q 701 982 753 983 q 581 947 642 981 q 467 854 520 914 q 374 698 413 793 q 321 488 334 602 q 322 401 315 425 q 290 365 328 380 q 201 350 253 349 q 132 362 165 351 q 69 395 99 373 q 20 456 39 416 q 0 547 1 495 q 36 736 -3 647 q 142 892 75 826 q 298 1006 210 958 q 484 1078 386 1054 q 679 1100 582 1101 q 866 1068 781 1099 q 1008 987 951 1038 q 1101 870 1064 937 q 1150 731 1138 804 q 1152 584 1162 659 q 1112 440 1143 508 q 1026 315 1081 373 q 900 221 972 257 q 929 184 907 213 q 965 140 952 155 q 1000 97 977 124 q 1039 55 1023 71 q 1074 21 1055 39 q 1109 -5 1093 3 q 1139 -16 1126 -14 z "},"S":{"ha":732,"x_min":-2,"x_max":688,"o":"m 304 375 q 352 377 322 375 q 407 381 382 379 q 464 382 432 382 q 520 380 495 382 q 569 368 545 377 q 611 345 594 359 q 639 306 628 330 q 652 249 650 281 q 612 99 654 180 q 506 -46 570 18 q 363 -151 443 -111 q 216 -187 283 -192 q 71 -79 114 -179 q 50 47 43 -16 q 62 79 52 81 q 66 77 64 79 q 138 47 93 51 q 233 56 183 43 q 334 92 282 68 q 426 141 385 115 q 492 194 466 168 q 518 236 518 220 q 461 264 518 264 q 354 250 427 263 q 240 236 280 237 q 170 241 201 235 q 106 263 138 246 q 52 309 74 281 q 16 386 31 338 q 0 497 1 433 q 17 661 -2 574 q 75 829 35 747 q 168 978 114 911 q 298 1086 222 1045 q 458 1129 374 1128 q 556 1109 513 1130 q 626 1052 600 1088 q 668 969 652 1016 q 686 870 685 922 q 681 766 688 819 q 655 667 675 714 q 611 583 636 619 q 550 524 586 546 q 473 501 513 502 q 413 518 439 500 q 374 572 386 537 q 377 573 375 572 q 380 574 379 574 q 475 680 424 583 q 546 882 528 780 q 523 1000 564 986 q 510 1002 517 1002 q 414 929 470 1001 q 312 764 358 858 q 233 578 266 671 q 201 441 201 485 q 225 391 201 407 q 304 375 248 376 z "},"T":{"ha":707,"x_min":-3,"x_max":1131,"o":"m 1018 1278 q 1033 1288 1017 1291 q 1091 1251 1061 1283 q 1129 1161 1130 1211 q 1099 1087 1129 1118 q 1014 1048 1068 1055 q 965 1045 995 1046 q 912 1046 936 1045 q 843 1049 889 1046 q 774 1053 798 1052 q 675 841 724 1002 q 594 497 626 679 q 547 146 563 315 q 539 -94 530 -22 q 508 -128 542 -119 q 417 -117 465 -140 q 348 -22 354 -88 q 347 -17 347 -20 q 385 491 338 119 q 485 1046 431 863 q 268 847 273 1009 q 285 760 266 809 q 268 730 291 743 q 205 715 245 718 q 57 775 117 710 q 0 920 1 835 q 76 1093 -2 1021 q 425 1198 189 1198 q 548 1194 479 1198 q 671 1186 618 1190 q 783 1180 725 1183 q 882 1180 841 1177 q 957 1193 923 1183 q 1006 1224 990 1202 q 1018 1278 1021 1245 z "},"U":{"ha":1337,"x_min":-19,"x_max":1448,"o":"m 1160 1076 q 1278 1125 1190 1133 q 1401 1082 1347 1119 q 1438 1024 1448 1050 q 1428 1011 1434 1017 q 1329 818 1377 970 q 1249 488 1280 665 q 1203 145 1219 311 q 1197 -94 1188 -20 q 1166 -128 1200 -119 q 1076 -117 1123 -140 q 1006 -23 1013 -89 q 1006 -17 1006 -20 q 1018 281 999 83 q 661 -138 857 -134 q 559 -104 600 -138 q 502 -12 519 -71 q 481 126 486 47 q 486 294 477 205 q 506 477 494 383 q 531 660 517 571 q 552 828 545 749 q 559 967 559 907 q 542 1060 559 1026 q 489 1095 524 1095 q 416 1061 450 1095 q 362 976 383 1028 q 329 860 341 924 q 317 733 317 795 q 330 615 317 671 q 367 529 342 560 q 357 500 380 512 q 235 469 301 471 q 33 572 92 469 q 9 797 -18 662 q 130 1040 37 932 q 389 1192 239 1166 q 453 1197 420 1197 q 741 938 694 1198 q 732 503 769 787 q 717 387 728 464 q 692 140 690 199 q 733 62 695 62 q 835 128 785 63 q 922 290 885 193 q 996 510 960 388 q 1059 741 1032 632 q 1113 945 1085 850 q 1160 1076 1140 1040 z "},"V":{"ha":1180,"x_min":-13,"x_max":1312,"o":"m 1023 1076 q 1141 1125 1053 1133 q 1265 1082 1211 1119 q 1301 1024 1312 1050 q 1292 1011 1299 1017 q 1228 926 1257 983 q 1178 796 1199 868 q 1138 638 1158 724 q 1100 465 1119 553 q 1060 292 1082 378 q 1009 132 1038 206 q 944 1 980 58 q 857 -88 908 -56 q 742 -119 805 -120 q 633 -77 677 -119 q 566 33 588 -36 q 533 192 544 102 q 521 381 522 282 q 523 579 521 480 q 526 767 525 678 q 521 926 526 857 q 498 1036 516 995 q 447 1076 479 1076 q 368 1028 401 1076 q 323 906 336 980 q 312 753 311 833 q 334 603 313 674 q 387 498 354 532 q 382 468 402 484 q 264 425 328 434 q 47 507 117 407 q 3 730 -12 592 q 100 988 18 870 q 333 1162 195 1122 q 436 1177 383 1176 q 722 932 656 1178 q 751 511 760 788 q 747 401 750 473 q 746 141 739 205 q 803 49 757 48 q 804 49 804 49 q 873 138 845 50 q 917 361 901 227 q 945 634 932 495 q 977 900 958 774 q 1023 1076 996 1026 z "},"W":{"ha":1640,"x_min":-19,"x_max":1772,"o":"m 1483 1076 q 1601 1125 1513 1133 q 1725 1082 1670 1119 q 1761 1024 1772 1050 q 1752 1011 1758 1017 q 1688 926 1716 983 q 1638 796 1659 868 q 1598 638 1617 724 q 1560 465 1579 553 q 1520 292 1541 378 q 1469 132 1498 206 q 1404 1 1440 58 q 1316 -88 1368 -56 q 1202 -119 1265 -120 q 1012 77 1060 -118 q 983 488 979 210 q 986 597 984 524 q 734 -110 819 197 q 721 -144 726 -142 q 681 -147 717 -147 q 607 -146 631 -147 q 551 -139 584 -145 q 504 -120 518 -133 q 475 -84 490 -108 q 454 -25 460 -61 q 449 62 449 11 q 462 238 448 140 q 496 429 476 336 q 537 614 517 522 q 571 798 557 706 q 583 960 585 890 q 560 1058 583 1025 q 504 1090 538 1090 q 425 1059 461 1090 q 365 976 389 1027 q 329 861 342 925 q 315 735 315 798 q 327 618 314 673 q 366 529 340 562 q 355 500 379 512 q 233 469 300 471 q 32 572 90 469 q 10 799 -19 663 q 132 1041 39 934 q 389 1192 241 1168 q 450 1197 419 1197 q 570 1175 514 1197 q 669 1112 625 1154 q 739 1005 713 1071 q 765 856 764 939 q 744 635 766 784 q 703 333 722 486 q 693 81 685 180 q 911 699 814 460 q 939 760 925 735 q 994 792 954 787 q 1076 782 1034 796 q 1154 741 1118 768 q 1198 684 1190 713 q 1210 567 1209 646 q 1207 384 1211 488 q 1203 256 1203 280 q 1206 170 1204 205 q 1215 106 1208 136 q 1234 62 1221 76 q 1264 49 1246 48 q 1333 138 1305 50 q 1377 361 1361 227 q 1405 634 1392 495 q 1437 900 1417 774 q 1483 1076 1456 1026 z "},"X":{"ha":1059,"x_min":-19,"x_max":1257,"o":"m 1042 1232 q 1153 1232 1084 1270 q 1230 1162 1203 1205 q 1234 1107 1257 1121 q 1227 1104 1231 1105 q 1066 965 1156 1081 q 864 657 976 848 q 876 543 869 614 q 887 426 882 473 q 900 317 892 379 q 919 211 908 256 q 945 120 930 166 q 983 38 960 73 q 1034 -24 1005 2 q 1023 -78 1057 -46 q 930 -123 989 -109 q 877 -131 901 -131 q 833 -126 852 -132 q 799 -110 814 -121 q 772 -84 783 -98 q 751 -49 761 -70 q 735 -8 742 -28 q 722 37 729 12 q 690 347 705 100 q 600 184 625 227 q 529 60 576 141 q 453 -59 481 -20 q 401 -118 425 -98 q 289 -117 359 -155 q 212 -49 240 -91 q 209 7 185 -7 q 215 9 212 8 q 315 79 260 24 q 432 223 370 134 q 548 403 494 313 q 669 614 602 492 q 648 795 660 717 q 617 945 635 873 q 572 1054 599 1016 q 513 1092 546 1092 q 415 1046 458 1091 q 349 930 372 1000 q 319 784 327 861 q 323 638 311 708 q 367 529 336 568 q 357 500 379 511 q 235 469 299 471 q 34 570 94 469 q 8 793 -19 659 q 127 1035 35 927 q 395 1191 239 1164 q 472 1197 433 1197 q 607 1174 547 1196 q 707 1108 666 1151 q 775 1014 748 1066 q 822 892 803 961 q 953 1117 900 1033 q 1042 1232 1006 1201 z "},"Y":{"ha":1314,"x_min":-19,"x_max":1356,"o":"m 1067 889 q 1186 937 1097 945 q 1310 893 1255 930 q 1345 836 1356 861 q 1336 823 1343 829 q 1256 719 1289 785 q 1200 533 1223 652 q 1166 342 1177 415 q 1139 106 1156 270 q 1121 -49 1127 3 q 1101 -195 1114 -102 q 1075 -340 1088 -289 q 1042 -464 1062 -392 q 996 -575 1021 -536 q 938 -655 970 -615 q 862 -713 905 -696 q 768 -730 819 -730 q 525 -610 623 -730 q 427 -374 446 -513 q 454 -151 408 -243 q 604 -50 503 -54 q 686 -62 642 -49 q 781 -117 739 -79 q 782 -144 796 -132 q 714 -233 743 -172 q 677 -363 686 -294 q 672 -497 668 -433 q 701 -604 676 -562 q 766 -646 726 -646 q 884 -385 838 -645 q 946 146 909 -238 q 962 317 957 260 q 661 28 823 30 q 559 56 600 27 q 502 137 519 85 q 481 256 486 188 q 486 401 477 324 q 506 559 494 478 q 531 718 517 641 q 552 864 545 795 q 559 984 559 932 q 542 1065 559 1035 q 489 1095 524 1095 q 416 1061 450 1095 q 362 976 383 1028 q 329 860 341 924 q 317 733 317 795 q 330 615 317 671 q 367 529 342 560 q 357 500 380 512 q 235 469 301 471 q 33 572 92 469 q 9 797 -18 662 q 130 1040 37 932 q 389 1192 239 1166 q 453 1197 420 1197 q 744 964 699 1198 q 732 596 768 836 q 717 505 727 565 q 692 294 690 345 q 733 228 695 228 q 824 284 780 229 q 904 427 869 340 q 967 602 939 514 q 1023 774 996 690 q 1067 889 1050 858 z "},"Z":{"ha":961,"x_min":-9,"x_max":951,"o":"m 828 39 q 922 -42 894 21 q 925 -173 951 -106 q 817 -277 897 -247 q 547 -264 710 -318 q 458 -231 508 -251 q 370 -195 408 -212 q 289 -163 331 -179 q 216 -139 247 -146 q 157 -130 184 -131 q 114 -140 130 -128 q 92 -176 97 -151 q 71 -176 89 -189 q 36 -117 45 -155 q 39 -64 29 -89 q 67 -23 46 -39 q 119 -7 89 -7 q 130 58 117 24 q 170 138 143 91 q 329 343 203 196 q 238 330 279 334 q 157 328 197 326 q 87 340 117 330 q 36 371 58 351 q 4 424 14 392 q 14 509 -9 467 q 79 559 37 551 q 112 561 99 564 q 125 549 125 557 q 148 467 119 498 q 229 427 176 435 q 410 433 292 414 q 485 519 458 488 q 556 602 512 549 q 626 689 600 655 q 683 769 651 723 q 732 850 715 816 q 761 920 749 884 q 772 986 772 956 q 748 1053 772 1029 q 679 1076 724 1076 q 553 1043 624 1076 q 421 961 483 1010 q 315 850 360 911 q 264 737 270 789 q 255 722 262 724 q 236 724 248 719 q 129 787 178 741 q 58 890 77 838 q 51 990 39 943 q 94 1080 62 1036 q 175 1157 125 1123 q 280 1216 224 1191 q 396 1255 336 1242 q 511 1267 457 1268 q 793 1160 680 1263 q 905 901 906 1058 q 858 707 905 804 q 725 497 811 610 q 785 505 756 503 q 892 465 880 510 q 876 401 901 431 q 854 389 861 384 q 852 392 852 390 q 835 421 850 411 q 793 432 820 431 q 735 429 766 433 q 661 416 704 425 q 609 354 646 397 q 554 289 572 310 q 506 228 537 267 q 458 164 474 189 q 419 104 441 140 q 385 41 397 68 q 362 -18 372 14 q 349 -79 352 -50 q 427 -109 409 -102 q 509 -131 471 -123 q 586 -141 547 -140 q 655 -134 625 -143 q 711 -103 686 -125 q 750 -43 736 -80 q 758 25 760 -15 q 779 42 758 39 q 828 39 799 46 z "},"[":{"ha":647,"x_min":45,"x_max":637,"o":"m 608 1182 q 627 1166 621 1193 q 625 1099 637 1132 q 602 1072 618 1076 q 436 1075 571 1064 q 374 929 406 1041 q 321 674 343 818 q 286 386 299 531 q 277 124 273 241 q 302 -35 281 7 q 464 -71 433 -52 q 479 -132 489 -83 q 457 -180 472 -170 q 444 -179 450 -186 q 224 -113 412 -134 q 199 -110 216 -111 q 175 -107 183 -108 q 153 -103 167 -106 q 131 -98 138 -100 q 111 -91 123 -96 q 93 -81 99 -87 q 78 -68 86 -76 q 65 -51 70 -60 q 58 -29 61 -41 q 53 -1 54 -16 q 99 554 45 110 q 186 1101 153 998 q 197 1127 191 1116 q 209 1147 203 1139 q 225 1161 216 1155 q 242 1170 235 1166 q 263 1175 250 1174 q 283 1177 276 1177 q 306 1177 291 1178 q 329 1175 321 1176 q 354 1172 336 1175 q 378 1169 371 1170 q 608 1182 569 1147 z "},"\\":{"ha":572,"x_min":62,"x_max":521,"o":"m 262 1114 q 247 972 237 1066 q 286 773 256 878 q 357 546 316 669 q 435 317 397 423 q 496 114 472 212 q 518 -37 521 16 q 454 -111 515 -90 q 355 -114 404 -128 q 317 -78 316 -102 q 321 -66 318 -73 q 337 76 347 -18 q 298 272 328 170 q 227 497 268 375 q 149 724 186 619 q 87 929 112 829 q 65 1084 62 1028 q 129 1158 68 1138 q 228 1161 180 1176 q 266 1126 267 1150 q 262 1114 266 1120 z "},"]":{"ha":737,"x_min":57,"x_max":649,"o":"m 86 -183 q 67 -168 74 -194 q 69 -100 58 -132 q 93 -74 77 -78 q 258 -77 123 -66 q 320 69 289 -43 q 373 324 351 180 q 409 613 395 468 q 418 874 422 758 q 392 1034 414 991 q 231 1069 262 1051 q 215 1131 205 1082 q 237 1179 222 1168 q 250 1178 245 1185 q 471 1111 282 1132 q 495 1108 479 1109 q 519 1105 511 1106 q 542 1102 528 1104 q 564 1097 556 1099 q 584 1089 572 1094 q 602 1080 595 1085 q 616 1067 608 1075 q 629 1050 625 1059 q 637 1028 633 1040 q 642 1000 640 1015 q 595 445 649 889 q 509 -103 542 1 q 498 -129 504 -117 q 485 -149 492 -140 q 469 -162 479 -157 q 452 -172 459 -168 q 432 -177 445 -176 q 411 -179 418 -178 q 388 -179 404 -180 q 366 -177 373 -178 q 341 -174 358 -176 q 317 -171 323 -172 q 86 -183 125 -149 z "},"^":{"ha":875,"x_min":113,"x_max":781,"o":"m 444 1006 q 387 890 420 966 q 323 754 353 814 q 265 667 293 694 q 182 670 239 641 q 125 716 140 690 q 129 739 113 734 q 202 806 165 751 q 264 924 239 861 q 323 1055 290 986 q 385 1153 357 1123 q 442 1173 400 1172 q 501 1156 484 1173 q 551 1081 525 1131 q 599 979 576 1031 q 646 875 622 926 q 700 786 671 824 q 760 739 729 749 q 756 707 780 733 q 686 661 729 675 q 623 667 643 646 q 565 754 595 694 q 502 890 535 814 q 444 1006 469 966 z "},"_":{"ha":1091,"x_min":90,"x_max":993,"o":"m 954 -119 q 979 -137 970 -106 q 982 -224 992 -178 q 945 -275 972 -268 q 822 -280 903 -285 q 631 -268 741 -275 q 419 -254 520 -261 q 236 -253 318 -248 q 129 -279 153 -258 q 104 -262 114 -293 q 101 -176 91 -222 q 139 -125 111 -132 q 262 -120 181 -115 q 453 -131 342 -124 q 664 -145 564 -138 q 847 -146 765 -151 q 954 -119 930 -140 z "},"`":{"ha":378,"x_min":71,"x_max":313,"o":"m 310 970 q 281 922 313 936 q 218 918 250 908 q 205 933 203 922 q 176 985 208 946 q 111 1066 145 1025 q 74 1121 77 1107 q 110 1162 71 1144 q 185 1180 149 1181 q 228 1164 220 1179 q 270 1067 233 1138 q 310 970 308 997 z "},"a":{"ha":663,"x_min":-31,"x_max":741,"o":"m 664 428 q 691 457 671 452 q 726 450 711 463 q 737 418 741 437 q 709 313 726 367 q 666 198 692 259 q 606 90 641 138 q 534 21 572 41 q 467 0 500 2 q 369 45 404 -4 q 323 179 334 94 q 253 63 305 115 q 139 11 201 12 q 12 106 54 11 q -16 332 -30 199 q 63 554 -2 469 q 215 633 125 637 q 364 576 290 629 q 366 578 364 578 q 477 634 399 637 q 578 599 535 631 q 602 545 615 570 q 596 538 600 541 q 530 380 562 500 q 507 196 497 256 q 529 167 512 165 q 582 227 550 168 q 635 343 614 286 q 664 428 656 399 m 207 201 q 252 239 229 201 q 294 334 275 277 q 323 429 313 390 q 340 494 334 467 q 298 511 316 511 q 233 468 263 511 q 188 367 203 424 q 174 262 173 311 q 207 201 176 199 z "},"b":{"ha":595,"x_min":-26,"x_max":669,"o":"m 596 418 q 629 441 608 441 q 660 425 651 441 q 659 385 669 408 q 591 280 632 338 q 495 160 549 223 q 381 55 441 98 q 272 12 321 13 q 175 50 224 12 q 176 35 176 45 q 146 1 180 9 q 55 12 103 -10 q -15 108 -8 42 q -16 114 -16 111 q 17 562 -26 258 q 117 970 60 867 q 235 1019 146 1027 q 357 975 303 1013 q 395 918 404 944 q 385 904 392 910 q 236 568 300 836 q 351 623 293 621 q 414 606 386 623 q 458 561 441 589 q 486 497 474 533 q 502 425 498 462 q 506 353 505 388 q 503 293 507 319 q 596 418 568 366 m 184 167 q 261 202 226 156 q 312 316 296 249 q 325 440 328 384 q 311 497 323 478 q 281 514 298 515 q 244 496 262 514 q 215 447 227 477 q 205 414 210 433 q 199 382 201 395 q 195 350 197 370 q 192 325 193 330 q 184 167 181 197 z "},"c":{"ha":483,"x_min":-36,"x_max":560,"o":"m 484 421 q 516 450 496 446 q 549 437 537 454 q 550 393 560 420 q 507 294 530 342 q 448 190 484 245 q 374 94 412 134 q 287 26 336 53 q 186 -1 237 -1 q 14 100 71 -2 q -21 319 -36 189 q 64 539 -6 449 q 253 639 141 638 q 372 597 327 639 q 418 485 418 555 q 407 413 418 453 q 378 354 396 373 q 341 344 363 343 q 302 360 320 345 q 286 396 284 375 q 294 438 286 401 q 302 492 301 475 q 296 517 306 517 q 244 439 274 517 q 199 241 205 338 q 250 122 197 127 q 313 158 277 122 q 384 245 350 194 q 444 343 418 297 q 484 421 469 389 z "},"d":{"ha":663,"x_min":-31,"x_max":741,"o":"m 664 428 q 691 457 671 452 q 726 450 711 463 q 737 418 741 437 q 709 313 726 367 q 666 198 692 259 q 606 90 641 138 q 534 21 572 41 q 467 0 500 2 q 369 45 404 -3 q 323 180 334 92 q 243 56 300 103 q 139 11 189 11 q 12 106 54 11 q -16 332 -30 199 q 63 554 -2 469 q 215 633 125 637 q 343 589 278 631 q 347 586 346 586 q 399 831 370 716 q 443 970 429 945 q 562 1019 473 1027 q 684 975 630 1013 q 722 918 731 944 q 711 904 719 910 q 589 649 654 858 q 511 299 530 458 q 529 167 496 165 q 582 227 550 168 q 635 343 614 286 q 664 428 656 399 m 207 201 q 254 240 231 201 q 294 332 277 278 q 320 429 310 385 q 334 498 330 473 q 285 510 307 515 q 205 418 237 495 q 174 271 174 341 q 182 219 174 238 q 207 201 191 199 z "},"e":{"ha":483,"x_min":-36,"x_max":560,"o":"m 484 421 q 516 450 496 446 q 549 437 537 454 q 550 393 560 420 q 507 294 530 342 q 448 190 484 245 q 374 94 412 134 q 287 26 336 53 q 186 -1 237 -1 q 14 100 71 -2 q -21 319 -36 189 q 64 539 -6 449 q 253 639 141 638 q 383 584 337 640 q 421 443 429 528 q 394 354 416 400 q 333 273 372 309 q 253 237 295 238 q 199 253 227 237 q 250 122 189 122 q 313 158 277 122 q 384 245 350 194 q 444 343 418 297 q 484 421 469 389 m 311 529 q 268 486 291 529 q 231 399 244 442 q 212 330 217 355 q 271 382 239 337 q 318 471 302 427 q 325 514 327 498 q 311 529 322 529 z "},"f":{"ha":458,"x_min":-64,"x_max":538,"o":"m 458 431 q 491 458 469 456 q 526 443 513 460 q 529 404 538 426 q 288 66 425 168 q 332 -83 321 6 q 328 -253 342 -172 q 268 -393 314 -335 q 153 -450 222 -451 q 54 -410 95 -450 q -7 -300 14 -370 q -35 -144 -28 -229 q -39 45 -43 -59 q -62 104 -64 71 q -32 160 -60 138 q 23 543 -16 354 q 92 783 63 732 q 210 832 122 840 q 333 789 279 826 q 370 731 380 758 q 359 718 366 724 q 282 596 319 686 q 221 396 245 506 q 179 163 196 287 q 239 125 213 149 q 458 431 360 212 m 197 -277 q 220 -256 208 -276 q 238 -202 231 -236 q 247 -131 245 -169 q 240 -51 249 -93 q 211 22 231 -9 q 164 5 177 9 q 163 -196 155 -115 q 197 -277 172 -277 z "},"g":{"ha":587,"x_min":-46,"x_max":669,"o":"m 587 418 q 622 447 600 444 q 656 434 644 450 q 659 393 669 417 q 422 41 591 233 q 153 -322 309 -319 q 63 -288 110 -322 q 16 -215 16 -254 q 24 -182 16 -195 q 50 -157 32 -170 q 216 -22 130 -104 q 267 204 238 31 q 245 151 256 174 q 217 100 234 127 q 182 54 201 73 q 139 23 164 35 q 86 9 114 10 q -14 97 16 7 q -23 323 -46 189 q 70 553 1 467 q 211 632 132 631 q 281 608 255 632 q 330 634 292 627 q 409 634 368 641 q 482 600 450 627 q 514 529 514 572 q 498 387 514 488 q 472 235 482 286 q 587 418 550 329 m 160 171 q 205 248 173 172 q 265 410 238 325 q 290 521 292 496 q 199 394 248 504 q 147 219 155 294 q 160 171 142 171 z "},"h":{"ha":616,"x_min":-26,"x_max":694,"o":"m 616 419 q 647 449 626 444 q 681 439 667 454 q 686 400 694 425 q 670 350 676 368 q 650 295 663 331 q 626 234 636 258 q 598 177 615 210 q 566 121 581 143 q 529 75 550 99 q 487 37 508 50 q 440 16 466 24 q 389 11 415 8 q 273 172 273 23 q 323 404 273 249 q 324 433 335 435 q 297 410 315 432 q 209 226 249 345 q 176 35 169 108 q 146 1 180 9 q 55 12 103 -10 q -15 108 -8 42 q -16 114 -16 111 q 17 562 -26 258 q 117 970 60 867 q 235 1019 146 1027 q 357 975 303 1013 q 395 918 404 944 q 385 904 392 910 q 273 701 321 854 q 197 363 224 549 q 241 450 218 409 q 299 535 265 490 q 377 606 334 579 q 465 632 420 632 q 535 603 510 632 q 550 517 559 574 q 508 369 545 490 q 465 201 470 248 q 468 168 463 180 q 481 155 472 155 q 499 166 489 155 q 522 199 510 178 q 544 241 534 220 q 567 293 555 262 q 587 342 580 324 q 605 388 594 361 q 616 419 615 416 z "},"i":{"ha":336,"x_min":-12,"x_max":414,"o":"m 142 708 q 126 778 121 728 q 143 854 130 808 q 171 921 157 900 q 211 946 184 942 q 267 942 233 948 q 328 917 300 935 q 354 875 356 899 q 333 786 352 845 q 298 699 315 727 q 282 682 290 686 q 258 676 275 677 q 197 683 233 675 q 142 708 161 692 m 336 428 q 364 457 344 452 q 399 450 384 463 q 410 418 414 437 q 381 313 398 367 q 339 198 364 259 q 279 90 314 138 q 208 21 245 41 q 139 0 171 2 q 53 34 87 -3 q 6 129 18 70 q -9 257 -7 187 q -3 393 -12 328 q 16 509 5 459 q 37 578 27 559 q 149 634 71 638 q 250 600 208 631 q 275 545 288 571 q 269 538 273 541 q 203 382 235 501 q 180 198 170 259 q 203 167 184 165 q 278 273 232 169 q 336 428 324 376 z "},"j":{"ha":296,"x_min":-277,"x_max":378,"o":"m 296 418 q 331 447 309 444 q 365 434 353 450 q 367 393 378 417 q 131 41 300 233 q -139 -322 17 -319 q -229 -288 -182 -322 q -277 -215 -277 -254 q -268 -182 -277 -195 q -240 -157 -259 -170 q -74 -22 -164 -106 q -35 165 -54 31 q 1 422 -16 300 q 39 578 19 544 q 151 634 72 638 q 252 600 209 631 q 276 545 290 571 q 271 538 274 541 q 231 471 247 513 q 208 396 214 430 q 193 309 201 361 q 180 235 185 257 q 296 418 258 329 m 135 708 q 119 778 114 728 q 136 854 123 808 q 164 921 150 900 q 204 946 177 942 q 260 942 227 948 q 321 917 293 935 q 347 875 349 899 q 327 786 345 845 q 292 699 308 727 q 276 682 283 686 q 252 676 268 677 q 190 683 227 675 q 135 708 154 692 z "},"k":{"ha":536,"x_min":-26,"x_max":610,"o":"m 536 407 q 567 435 547 431 q 598 423 586 438 q 603 385 610 408 q 437 61 528 152 q 336 11 387 11 q 277 27 304 10 q 231 74 250 43 q 200 131 212 104 q 178 192 189 157 q 176 35 171 83 q 146 1 180 9 q 55 12 103 -10 q -15 108 -8 42 q -16 114 -16 111 q 17 562 -26 258 q 117 970 60 867 q 235 1019 146 1027 q 357 975 303 1013 q 395 918 404 944 q 385 904 392 910 q 287 742 331 861 q 214 467 243 623 q 294 548 244 487 q 349 640 343 610 q 387 644 351 653 q 471 595 438 631 q 490 494 513 549 q 448 446 479 472 q 374 392 417 420 q 317 353 330 363 q 298 329 300 340 q 302 297 296 318 q 337 220 315 258 q 379 183 360 183 q 536 407 427 183 z "},"l":{"ha":338,"x_min":-14,"x_max":417,"o":"m 339 428 q 367 457 347 452 q 402 450 387 463 q 412 418 417 437 q 384 313 401 367 q 342 198 367 259 q 282 90 317 138 q 211 21 248 41 q 142 0 174 2 q 22 87 58 -5 q -7 313 -14 178 q 24 591 0 448 q 76 839 48 734 q 118 970 104 944 q 237 1019 149 1027 q 359 975 305 1012 q 397 917 407 943 q 387 904 394 909 q 265 649 330 858 q 188 299 205 458 q 205 167 173 165 q 281 273 235 169 q 339 428 327 376 z "},"m":{"ha":928,"x_min":-19,"x_max":1005,"o":"m 928 419 q 958 449 938 444 q 992 439 979 454 q 997 400 1005 425 q 976 334 985 361 q 948 261 966 307 q 914 183 930 216 q 873 115 897 151 q 824 56 848 78 q 766 21 799 34 q 700 11 734 7 q 585 172 585 23 q 635 404 585 249 q 635 433 646 435 q 610 410 627 432 q 519 227 557 339 q 490 35 481 115 q 459 1 493 9 q 368 13 416 -10 q 299 109 305 43 q 298 114 298 111 q 325 406 289 241 q 325 435 331 435 q 298 410 318 435 q 210 226 250 345 q 178 35 169 108 q 146 1 180 9 q 56 13 104 -9 q -13 109 -7 43 q -14 114 -14 111 q -5 360 -19 195 q 37 578 9 526 q 150 634 71 638 q 251 599 208 631 q 275 545 288 570 q 269 538 273 541 q 200 368 227 492 q 465 632 325 632 q 536 603 511 632 q 551 517 561 574 q 524 395 543 466 q 777 632 641 632 q 846 603 821 632 q 861 517 871 574 q 820 369 857 490 q 778 201 783 248 q 779 168 775 180 q 791 155 783 155 q 928 419 832 155 z "},"n":{"ha":618,"x_min":-19,"x_max":695,"o":"m 618 419 q 648 449 627 444 q 682 439 668 454 q 688 400 695 425 q 671 350 677 368 q 651 295 665 331 q 627 234 637 258 q 600 177 616 210 q 567 121 583 143 q 530 75 551 99 q 488 37 509 50 q 442 16 467 24 q 390 11 416 8 q 275 172 275 23 q 325 404 275 251 q 326 433 336 435 q 298 410 316 432 q 210 226 250 345 q 178 35 169 108 q 146 1 180 9 q 56 13 104 -9 q -13 109 -7 43 q -14 114 -14 111 q -5 360 -19 195 q 37 578 9 526 q 150 634 71 638 q 251 599 208 631 q 275 545 288 570 q 269 538 273 541 q 200 368 227 494 q 465 632 325 632 q 536 603 511 632 q 551 517 561 574 q 509 370 547 492 q 467 201 471 248 q 469 168 465 180 q 482 155 473 155 q 501 166 490 155 q 523 199 511 178 q 546 241 535 220 q 569 293 556 262 q 588 342 581 324 q 606 388 595 361 q 618 419 616 416 z "},"o":{"ha":547,"x_min":-37,"x_max":611,"o":"m 547 419 q 570 444 553 439 q 599 438 587 449 q 607 407 611 427 q 533 245 591 325 q 403 142 474 165 q 176 -12 307 -12 q 64 20 111 -12 q -4 104 17 53 q -31 216 -25 155 q -25 337 -37 277 q 11 443 -13 397 q 100 588 28 534 q 260 644 173 643 q 405 590 345 644 q 472 428 465 535 q 460 288 474 353 q 474 294 467 290 q 486 303 481 298 q 497 315 492 307 q 507 328 503 323 q 516 343 511 333 q 524 359 522 354 q 531 375 526 363 q 537 390 536 387 q 542 406 538 393 q 547 419 547 418 m 298 281 q 322 428 336 376 q 301 463 316 450 q 267 476 286 476 q 228 461 247 476 q 254 449 244 461 q 261 421 263 437 q 245 397 258 407 q 185 313 212 366 q 154 210 159 260 q 154 184 152 199 q 159 156 155 170 q 171 133 162 142 q 193 123 180 123 q 258 193 220 125 q 262 244 252 220 q 298 281 272 269 z "},"p":{"ha":594,"x_min":-37,"x_max":667,"o":"m 595 418 q 627 441 606 441 q 658 425 649 441 q 657 385 667 408 q 606 304 636 348 q 534 208 576 261 q 448 113 491 155 q 357 42 405 71 q 269 12 309 13 q 182 43 226 12 q 262 -310 194 -229 q 243 -363 286 -337 q 125 -394 197 -393 q 1 -349 37 -397 q -14 -322 -9 -337 q -36 -63 -37 -229 q -18 280 -35 102 q 24 543 0 458 q 106 627 41 607 q 199 624 156 642 q 229 585 235 610 q 228 583 228 584 q 220 554 224 573 q 350 623 284 621 q 412 606 385 623 q 456 561 439 589 q 484 497 472 533 q 499 425 496 462 q 503 353 502 388 q 500 293 505 319 q 595 418 569 369 m 183 167 q 279 233 237 153 q 323 400 317 307 q 299 509 329 488 q 282 514 292 515 q 232 482 254 513 q 201 408 211 452 q 185 315 191 364 q 180 227 178 266 q 183 167 181 188 z "},"q":{"ha":729,"x_min":-31,"x_max":808,"o":"m 799 406 q 541 31 686 149 q 610 -93 589 -17 q 629 -250 631 -169 q 608 -390 628 -326 q 546 -495 589 -453 q 446 -538 504 -538 q 371 -519 404 -538 q 319 -465 339 -500 q 287 -385 299 -430 q 271 -282 275 -340 q 268 -165 267 -224 q 275 -37 269 -106 q 252 12 249 -16 q 285 57 256 41 q 301 187 290 102 q 227 63 269 115 q 139 11 184 11 q 12 106 54 11 q -16 332 -30 199 q 63 554 -2 469 q 215 633 125 637 q 343 589 278 631 q 357 581 349 583 q 355 595 355 586 q 390 632 351 625 q 492 612 435 640 q 568 529 556 581 q 567 484 573 507 q 530 325 556 446 q 484 81 504 203 q 729 436 620 186 q 760 457 739 456 q 794 443 781 458 q 799 406 808 427 m 207 201 q 263 265 230 201 q 321 395 297 328 q 349 488 345 461 q 285 510 316 519 q 201 406 235 495 q 175 256 170 326 q 207 201 178 199 m 541 -224 q 525 -109 543 -164 q 467 -22 508 -54 q 490 -364 419 -364 q 523 -321 507 -363 q 541 -224 538 -279 z "},"r":{"ha":450,"x_min":-45,"x_max":530,"o":"m 450 415 q 484 446 463 442 q 517 434 505 450 q 522 397 530 418 q 382 140 481 278 q 283 36 332 72 q 165 0 235 0 q 63 37 103 0 q 22 138 22 75 q 33 204 22 168 q 57 264 45 241 q 93 328 68 287 q 125 383 117 369 q 131 409 136 402 q 106 410 127 416 q 26 393 52 396 q -26 436 -9 389 q -29 545 -45 487 q 38 625 -12 611 q 62 628 50 628 q 103 614 85 628 q 133 587 121 601 q 154 574 145 574 q 226 596 165 574 q 323 618 287 618 q 400 543 402 618 q 378 458 399 507 q 331 367 357 409 q 277 274 306 326 q 235 189 248 223 q 243 146 219 146 q 314 202 268 146 q 396 317 359 257 q 450 415 433 378 z "},"s":{"ha":494,"x_min":-35,"x_max":566,"o":"m 494 411 q 514 432 503 425 q 536 436 526 439 q 555 427 547 434 q 565 408 564 420 q 559 380 566 395 q 527 317 541 343 q 487 247 513 290 q 438 173 461 203 q 383 106 416 142 q 319 48 351 71 q 248 11 288 26 q 170 -4 209 -4 q 61 29 108 -4 q -8 112 15 62 q -32 222 -31 163 q 36 517 -35 353 q 103 617 47 579 q 228 654 160 654 q 315 632 279 654 q 368 577 352 609 q 386 510 385 545 q 368 440 387 469 q 313 411 348 411 q 284 414 294 412 q 273 422 275 416 q 273 435 271 429 q 278 453 275 441 q 281 475 281 465 q 255 520 281 509 q 218 513 233 530 q 208 485 208 503 q 224 435 208 458 q 264 394 240 412 q 312 357 288 376 q 358 311 337 338 q 387 252 380 283 q 494 411 460 349 m 158 132 q 192 149 178 132 q 205 193 205 165 q 193 241 205 218 q 164 282 180 265 q 123 323 149 298 q 83 366 98 349 q 78 304 79 339 q 81 229 77 270 q 105 159 85 187 q 158 132 125 132 z "},"t":{"ha":338,"x_min":-46,"x_max":417,"o":"m 339 428 q 367 457 347 452 q 402 450 387 463 q 412 418 417 437 q 384 313 401 367 q 342 198 367 259 q 282 90 317 138 q 211 21 248 41 q 142 0 174 2 q 62 25 94 -3 q 15 105 30 54 q -5 222 0 157 q -4 367 -10 288 q 13 520 2 446 q 39 672 23 594 l -8 672 q -37 691 -28 672 q -38 728 -46 709 q -8 747 -30 747 l 54 747 q 118 970 96 927 q 237 1019 149 1027 q 359 975 305 1012 q 397 917 407 943 q 387 904 394 909 q 298 747 347 873 l 326 747 q 348 740 339 747 q 358 721 357 732 q 358 699 360 709 q 348 680 356 688 q 328 672 339 672 l 272 672 q 192 335 216 496 q 205 167 169 174 q 281 273 235 169 q 339 428 327 376 z "},"u":{"ha":669,"x_min":-12,"x_max":747,"o":"m 669 428 q 697 457 677 452 q 732 450 717 463 q 743 418 747 437 q 715 313 732 367 q 672 198 698 259 q 612 90 647 138 q 541 21 578 41 q 472 0 506 2 q 375 45 410 -4 q 329 178 340 94 q 208 21 273 58 q 139 0 171 2 q 53 34 87 -3 q 6 129 18 70 q -9 257 -7 187 q -3 393 -12 328 q 16 509 5 459 q 37 578 27 559 q 149 634 71 638 q 250 600 208 631 q 275 545 288 571 q 269 538 273 541 q 203 382 235 501 q 180 198 170 259 q 203 167 184 165 q 261 226 233 169 q 307 352 289 283 q 343 491 324 420 q 371 578 361 561 q 483 634 404 638 q 583 599 541 631 q 608 545 621 570 q 603 538 606 541 q 536 382 568 501 q 512 197 503 258 q 534 167 517 165 q 587 227 555 168 q 641 343 619 286 q 669 428 662 399 z "},"v":{"ha":504,"x_min":-1,"x_max":585,"o":"m 504 415 q 545 447 521 444 q 577 429 569 449 q 571 380 585 409 q 542 333 555 353 q 507 288 528 312 q 464 251 487 264 q 416 239 440 238 q 376 249 395 239 q 290 70 342 139 q 172 0 239 0 q 111 19 138 0 q 66 72 83 38 q 35 142 48 105 q 16 222 22 178 q 6 298 9 267 q 1 359 3 329 q 3 483 -1 427 q 16 561 7 539 q 117 631 41 623 q 224 610 176 637 q 255 562 264 588 q 250 553 254 557 q 214 438 229 522 q 200 279 199 354 q 201 243 200 262 q 210 199 203 223 q 231 175 218 176 q 313 340 264 175 q 290 501 288 414 q 302 590 290 555 q 329 631 311 617 q 366 646 346 646 q 401 630 385 646 q 424 587 418 615 q 428 553 428 571 q 400 334 431 462 q 419 322 410 322 q 504 415 448 322 z "},"w":{"ha":834,"x_min":0,"x_max":916,"o":"m 835 415 q 876 447 852 444 q 908 429 900 449 q 903 380 916 410 q 873 333 887 353 q 839 288 859 312 q 795 251 819 264 q 747 239 771 238 q 707 249 725 239 q 622 70 673 140 q 504 0 570 0 q 354 187 398 0 q 261 33 315 73 q 197 3 231 9 q 107 24 146 -7 q 47 111 68 55 q 14 237 26 168 q 1 372 2 306 q 4 489 0 438 q 16 561 7 541 q 117 631 41 623 q 224 610 176 637 q 255 562 264 588 q 250 553 254 557 q 211 424 227 519 q 201 250 195 330 q 236 176 207 170 q 281 236 261 182 q 310 351 300 289 q 329 477 319 412 q 346 561 339 543 q 447 631 371 623 q 554 610 507 637 q 587 562 595 588 q 582 553 585 557 q 544 439 559 523 q 530 279 529 355 q 532 243 530 262 q 541 199 533 223 q 561 175 548 176 q 644 340 593 175 q 621 501 618 417 q 633 590 621 553 q 659 631 642 617 q 696 646 676 646 q 732 630 716 646 q 754 587 748 615 q 758 553 758 571 q 730 334 761 462 q 750 322 740 322 q 835 415 779 322 z "},"x":{"ha":422,"x_min":-15,"x_max":500,"o":"m 422 428 q 450 457 430 452 q 485 450 470 463 q 496 418 500 437 q 476 344 488 382 q 448 256 465 306 q 408 163 431 206 q 358 82 385 120 q 297 22 332 45 q 225 0 262 0 q 132 47 178 0 l 81 -54 q 46 -80 68 -79 q 12 -63 24 -81 q 12 -21 0 -45 l 85 118 q 9 351 33 215 q 1 547 -15 487 q 90 629 18 612 q 200 623 148 644 q 240 581 242 606 q 236 568 239 574 q 219 491 226 548 q 215 372 213 435 l 340 612 q 376 638 354 637 q 408 622 399 639 q 408 581 418 604 l 232 240 q 283 174 250 174 q 328 207 304 174 q 371 283 352 239 q 404 367 391 328 q 422 428 418 406 z "},"y":{"ha":633,"x_min":-12,"x_max":715,"o":"m 264 -22 q 297 118 279 18 q 208 21 256 47 q 139 0 171 2 q 53 34 87 -3 q 6 129 18 70 q -9 257 -7 187 q -3 393 -12 328 q 16 509 5 459 q 37 578 27 559 q 149 634 71 638 q 250 600 208 631 q 275 545 288 571 q 269 538 273 541 q 203 382 235 501 q 180 198 170 259 q 203 167 184 165 q 256 219 227 168 q 306 338 286 271 q 335 475 326 406 q 326 582 344 545 q 355 629 313 612 q 461 633 400 647 q 553 564 533 616 q 559 529 559 548 q 544 386 559 488 q 518 235 528 283 q 633 418 596 329 q 668 447 646 444 q 703 434 690 450 q 704 393 715 417 q 468 41 637 233 q 199 -322 354 -319 q 109 -288 156 -322 q 61 -215 61 -254 q 70 -182 61 -195 q 97 -157 78 -170 q 264 -22 176 -104 z "},"z":{"ha":543,"x_min":-47,"x_max":621,"o":"m 543 415 q 558 439 548 431 q 580 446 569 447 q 601 440 591 446 q 616 423 611 435 q 616 397 621 412 q 560 239 589 303 q 489 121 531 174 q 391 43 448 68 q 258 17 334 17 q 123 -21 197 -21 q 2 27 41 -24 q -15 106 -27 65 q 41 155 -3 146 q 104 151 69 161 q 180 135 146 140 q 209 274 193 175 q 232 407 225 373 q 120 390 172 393 q 36 396 68 387 q -39 494 -28 419 q -21 602 -47 553 q 26 635 0 642 q 36 631 31 634 q 133 598 53 620 q 285 566 213 576 q 341 632 307 605 q 415 659 376 659 q 471 637 449 659 q 492 583 493 616 q 471 521 492 551 q 419 472 450 492 q 368 155 416 273 q 543 415 479 210 z "},"{":{"ha":559,"x_min":71,"x_max":536,"o":"m 325 1171 q 423 1202 355 1218 q 505 1155 473 1190 q 515 1102 536 1122 q 510 1099 513 1100 q 433 1013 464 1067 q 386 894 402 958 q 359 766 370 830 q 329 632 347 702 q 286 515 311 563 q 301 392 300 464 q 298 255 302 320 q 294 123 294 189 q 311 -3 294 57 q 366 -104 328 -63 q 353 -155 387 -129 q 263 -185 317 -183 q 173 -142 196 -188 q 168 -131 170 -136 q 148 -26 153 -86 q 146 89 143 34 q 152 206 150 144 q 151 320 153 268 q 131 425 149 373 q 81 513 114 476 q 74 541 71 523 q 87 566 76 559 q 167 656 136 599 q 214 781 198 713 q 241 915 229 848 q 274 1053 254 983 q 325 1171 294 1124 z "},"|":{"ha":462,"x_min":57,"x_max":416,"o":"m 199 1126 q 286 1177 219 1179 q 379 1147 339 1176 q 399 1097 416 1120 q 396 1092 398 1094 q 329 930 351 1046 q 306 673 308 815 q 306 389 304 531 q 301 120 308 248 q 272 -66 295 -7 q 186 -116 253 -117 q 94 -87 134 -115 q 72 -38 57 -61 q 77 -32 74 -35 q 144 130 123 16 q 166 386 165 245 q 164 667 167 526 q 169 936 162 808 q 199 1126 175 1065 z "},"}":{"ha":528,"x_min":31,"x_max":496,"o":"m 241 -143 q 144 -174 212 -191 q 62 -127 94 -162 q 52 -74 31 -94 q 57 -71 54 -72 q 134 16 103 -39 q 181 134 165 70 q 208 262 197 198 q 238 396 220 326 q 281 513 256 465 q 266 636 267 564 q 269 773 265 708 q 273 904 273 838 q 256 1030 273 970 q 201 1132 239 1090 q 214 1183 180 1156 q 304 1213 250 1211 q 394 1169 371 1215 q 399 1158 397 1164 q 420 1032 417 1105 q 419 891 423 959 q 414 754 414 823 q 430 622 413 685 q 486 515 447 559 q 493 487 496 505 q 479 463 491 469 q 400 372 431 429 q 353 247 369 315 q 325 112 337 180 q 292 -26 313 45 q 241 -143 272 -96 z "},"~":{"ha":837,"x_min":119,"x_max":724,"o":"m 685 444 q 710 427 700 458 q 713 341 723 387 q 675 290 703 297 q 583 286 635 281 q 466 297 531 290 q 343 311 401 304 q 234 313 285 318 q 158 286 182 307 q 133 304 143 273 q 130 389 120 343 q 168 440 140 433 q 260 445 208 450 q 377 433 312 440 q 500 419 442 426 q 609 418 558 412 q 685 444 661 423 z "},"":{"ha":600,"x_min":83,"x_max":528,"o":"m 437 685 q 382 689 415 682 q 320 713 349 695 q 294 755 292 731 q 315 844 296 785 q 350 930 334 903 q 365 947 357 943 q 389 953 373 951 q 451 946 415 954 q 505 922 488 939 q 522 852 528 903 q 506 775 519 821 q 478 708 492 729 q 437 685 465 687 m 90 -117 q 128 159 83 -46 q 235 564 173 364 q 257 593 241 583 q 297 606 273 604 q 342 608 321 608 q 393 604 364 607 q 435 602 421 602 q 362 308 393 459 q 321 26 332 157 q 339 -155 311 -105 q 312 -199 355 -184 q 197 -205 263 -218 q 96 -140 118 -190 q 90 -117 92 -130 z "},"":{"ha":483,"x_min":-24,"x_max":560,"o":"m 484 421 q 516 450 496 446 q 549 437 537 454 q 550 393 560 420 q 503 285 529 338 q 439 175 476 232 q 356 75 403 119 q 260 12 309 31 l 254 11 l 244 7 q 186 -1 214 -1 l 182 -1 q 154 -60 170 -34 q 90 -75 134 -91 q 45 -42 58 -64 q 49 -17 36 -26 q 85 24 68 -4 q 23 84 48 45 q -13 170 -2 123 q -23 271 -24 217 q -11 376 -23 324 q 24 475 1 427 q 80 559 48 523 q 157 617 113 595 q 253 639 202 639 q 281 637 273 639 q 307 690 294 673 q 372 705 328 722 q 416 671 404 694 q 412 646 426 655 q 371 599 392 631 q 418 485 418 558 q 407 413 418 453 q 378 354 396 373 q 341 344 363 343 q 302 360 320 345 q 286 396 284 375 q 294 438 286 401 q 302 492 301 475 q 296 517 306 517 q 244 439 274 517 q 199 241 205 338 q 250 122 197 127 q 313 158 277 122 q 384 245 350 194 q 444 343 418 297 q 484 421 469 389 z "},"":{"ha":1247,"x_min":99,"x_max":1154,"o":"m 1150 -248 q 1107 -345 1154 -303 q 1060 -368 1078 -371 q 1053 -359 1052 -368 q 1039 -310 1054 -329 q 992 -284 1023 -292 q 923 -276 961 -277 q 832 -281 885 -275 q 730 -292 779 -286 q 617 -305 681 -298 q 505 -314 554 -312 q 170 -223 276 -325 q 102 -64 100 -157 q 159 70 105 16 q 282 121 210 121 q 339 109 318 119 q 355 83 360 99 q 345 3 342 41 q 389 -104 351 -64 q 422 243 446 -12 q 317 215 350 243 q 292 233 302 201 q 288 319 278 273 q 326 370 298 363 q 407 374 353 376 q 390 496 401 418 q 372 621 378 574 q 360 724 366 667 q 355 818 355 780 q 382 967 356 901 q 452 1075 408 1034 q 552 1138 496 1116 q 671 1160 608 1160 q 957 1038 831 1159 q 1100 804 1058 941 q 1103 567 1141 669 q 951 437 1064 460 q 888 432 921 432 q 765 463 821 434 q 755 492 741 474 q 799 602 786 531 q 803 749 812 673 q 773 895 795 825 q 709 1008 751 964 q 616 1053 667 1053 q 561 1020 583 1053 q 538 922 538 987 q 547 788 537 865 q 568 655 557 711 q 602 496 579 600 q 633 349 625 393 q 821 375 775 336 q 846 357 836 389 q 849 271 859 317 q 811 220 839 227 q 656 221 766 209 q 672 25 672 119 q 668 -42 672 -14 q 655 -98 665 -71 q 626 -145 646 -126 q 576 -172 606 -163 q 692 -174 627 -176 q 875 -158 750 -172 q 1039 -149 1000 -145 q 1118 -181 1088 -153 q 1150 -248 1148 -209 z "},"":{"ha":1314,"x_min":-19,"x_max":1356,"o":"m 782 -81 q 764 -66 771 -91 q 766 -3 755 -33 q 789 21 774 18 q 933 20 823 29 l 962 317 q 661 28 823 30 q 559 56 600 27 q 502 137 519 85 q 481 256 486 188 q 486 401 477 324 q 506 559 494 478 q 531 718 517 641 q 552 864 545 795 q 559 984 559 932 q 542 1065 559 1035 q 489 1095 524 1095 q 416 1061 450 1095 q 362 976 383 1028 q 329 860 341 924 q 317 733 317 795 q 330 615 317 671 q 367 529 342 560 q 357 500 380 512 q 235 469 301 471 q 33 572 92 469 q 9 797 -18 662 q 130 1040 37 932 q 389 1192 239 1166 q 453 1197 420 1197 q 744 964 699 1198 q 732 596 768 836 q 717 505 727 565 q 692 294 690 345 q 733 228 695 228 q 824 284 780 229 q 904 427 869 340 q 967 602 939 514 q 1023 774 996 690 q 1067 889 1050 858 q 1186 937 1097 945 q 1310 893 1255 930 q 1345 836 1356 861 q 1336 823 1343 829 q 1296 780 1315 806 q 1262 727 1277 754 q 1234 659 1248 701 q 1212 585 1221 618 q 1192 498 1202 552 q 1176 409 1182 445 q 1162 311 1171 374 q 1151 213 1154 248 q 1139 109 1147 178 q 1128 7 1131 39 q 1203 25 1185 9 q 1222 10 1215 35 q 1219 -54 1231 -23 q 1197 -77 1211 -73 q 1117 -79 1174 -81 q 1093 -240 1105 -173 q 1203 -221 1180 -242 q 1222 -237 1215 -212 q 1219 -301 1231 -271 q 1197 -323 1211 -320 q 1078 -323 1164 -330 q 1033 -486 1058 -416 q 972 -612 1008 -555 q 884 -700 935 -669 q 768 -730 833 -730 q 525 -610 623 -730 q 427 -374 446 -513 q 454 -151 408 -243 q 604 -50 503 -54 q 686 -62 642 -49 q 781 -117 739 -79 q 782 -144 796 -132 q 714 -233 743 -172 q 677 -363 686 -294 q 672 -497 668 -433 q 701 -604 676 -562 q 766 -646 726 -646 q 896 -307 846 -644 q 782 -326 806 -305 q 764 -311 771 -336 q 766 -247 755 -277 q 789 -224 774 -227 q 907 -224 814 -216 q 925 -62 917 -149 q 782 -81 811 -55 z "},"":{"ha":711,"x_min":66,"x_max":623,"o":"m 468 682 q 413 686 446 680 q 352 710 380 692 q 325 753 323 728 q 346 841 327 782 q 382 928 365 900 q 396 945 389 941 q 421 950 404 949 q 484 944 447 951 q 538 920 520 936 q 554 850 560 899 q 536 770 549 814 q 510 705 524 726 q 468 682 497 684 m 229 -236 q 106 -140 146 -213 q 94 36 66 -68 q 146 168 106 80 q 221 332 186 256 q 277 488 256 407 q 285 614 298 569 q 309 640 278 633 q 375 636 338 646 q 426 611 408 627 q 449 572 445 595 q 451 528 454 550 q 440 476 449 507 q 386 339 423 416 q 312 199 348 262 q 240 63 276 137 q 189 -62 204 -10 q 215 -160 167 -146 q 281 -149 247 -170 q 342 -90 316 -128 q 389 -3 368 -51 q 412 90 409 45 q 406 168 416 135 q 416 184 401 180 q 500 180 460 191 q 608 75 592 154 q 568 -87 623 0 q 427 -215 515 -172 q 229 -236 328 -264 z "},"":{"ha":1196,"x_min":0,"x_max":1189,"o":"m 1051 1280 q 1026 1336 1055 1294 q 965 1422 997 1379 q 932 1480 933 1466 q 969 1520 930 1504 q 1050 1533 1009 1535 q 1092 1512 1090 1531 q 1127 1412 1095 1487 q 1160 1310 1160 1337 q 1143 1273 1160 1286 q 1105 1258 1126 1259 q 1064 1264 1084 1257 q 1051 1280 1049 1270 m 835 1074 q 972 1126 867 1131 q 1129 1083 1057 1121 q 1185 1023 1189 1052 q 1178 1007 1185 1015 q 1098 804 1131 955 q 1048 461 1065 653 q 1122 469 1086 467 q 1156 454 1146 472 q 1157 415 1166 435 q 1129 393 1149 395 q 1042 379 1111 392 q 1036 135 1034 235 q 1084 -33 1045 -9 q 1099 -50 1099 -42 q 1091 -67 1099 -58 q 1074 -81 1083 -76 q 974 -107 1031 -107 q 894 -92 928 -107 q 838 -52 859 -77 q 802 8 816 -28 q 783 79 789 43 q 778 159 778 115 q 780 236 777 202 q 789 309 783 271 q 789 315 789 311 q 790 322 790 320 q 627 294 673 301 q 501 86 548 155 q 471 42 480 55 q 441 1 463 29 q 405 -42 419 -28 q 368 -76 391 -56 q 324 -107 345 -97 q 277 -124 304 -117 q 222 -132 250 -132 q 118 -103 170 -132 q 34 -27 67 -75 q 0 75 1 22 q 39 106 0 118 q 82 98 58 98 q 349 290 191 104 q 229 329 281 302 q 145 393 176 357 q 98 471 114 430 q 81 555 81 513 q 131 700 79 640 q 268 760 182 760 q 331 748 307 760 q 349 720 355 737 q 360 568 321 630 q 484 471 399 506 q 598 651 537 550 q 691 811 659 753 q 779 971 724 870 q 835 1074 834 1072 m 882 739 q 891 783 888 766 q 891 805 893 800 q 879 797 888 810 q 852 749 869 783 q 694 427 712 460 l 710 427 q 810 431 743 425 q 882 739 831 541 z "},"":{"ha":1196,"x_min":0,"x_max":1244,"o":"m 1122 1279 q 1109 1263 1124 1269 q 1068 1257 1089 1256 q 1030 1271 1047 1257 q 1014 1308 1014 1285 q 1046 1411 1014 1336 q 1082 1511 1079 1486 q 1124 1532 1083 1529 q 1204 1518 1164 1534 q 1242 1479 1244 1503 q 1208 1421 1240 1465 q 1148 1335 1177 1377 q 1122 1279 1119 1293 m 835 1074 q 972 1126 867 1131 q 1129 1083 1057 1121 q 1185 1023 1189 1052 q 1178 1007 1185 1015 q 1098 804 1131 955 q 1048 461 1065 653 q 1122 469 1086 467 q 1156 454 1146 472 q 1157 415 1166 435 q 1129 393 1149 395 q 1042 379 1111 392 q 1036 135 1034 235 q 1084 -33 1045 -9 q 1099 -50 1099 -42 q 1091 -67 1099 -58 q 1074 -81 1083 -76 q 974 -107 1031 -107 q 894 -92 928 -107 q 838 -52 859 -77 q 802 8 816 -28 q 783 79 789 43 q 778 159 778 115 q 780 236 777 202 q 789 309 783 271 q 789 315 789 311 q 790 322 790 320 q 627 294 673 301 q 501 86 548 155 q 471 42 480 55 q 441 1 463 29 q 405 -42 419 -28 q 368 -76 391 -56 q 324 -107 345 -97 q 277 -124 304 -117 q 222 -132 250 -132 q 118 -103 170 -132 q 34 -27 67 -75 q 0 75 1 22 q 39 106 0 118 q 82 98 58 98 q 349 290 191 104 q 229 329 281 302 q 145 393 176 357 q 98 471 114 430 q 81 555 81 513 q 131 700 79 640 q 268 760 182 760 q 331 748 307 760 q 349 720 355 737 q 360 568 321 630 q 484 471 399 506 q 598 651 537 550 q 691 811 659 753 q 779 971 724 870 q 835 1074 834 1072 m 882 739 q 891 783 888 766 q 891 805 893 800 q 879 797 888 810 q 852 749 869 783 q 694 427 712 460 l 710 427 q 810 431 743 425 q 882 739 831 541 z "},"":{"ha":1196,"x_min":0,"x_max":1308,"o":"m 945 1512 q 957 1529 943 1523 q 998 1535 977 1536 q 1036 1520 1019 1535 q 1053 1483 1053 1506 q 1020 1380 1053 1455 q 985 1280 987 1305 q 943 1260 983 1262 q 863 1273 902 1257 q 825 1312 823 1289 q 859 1370 827 1326 q 919 1456 890 1414 q 945 1512 948 1499 m 1186 1512 q 1212 1456 1183 1499 q 1272 1370 1240 1414 q 1305 1312 1304 1326 q 1268 1273 1308 1289 q 1188 1260 1229 1257 q 1146 1280 1147 1262 q 1111 1380 1143 1305 q 1078 1483 1078 1455 q 1094 1520 1078 1506 q 1132 1535 1111 1535 q 1174 1529 1154 1536 q 1186 1512 1188 1523 m 835 1074 q 972 1126 867 1131 q 1129 1083 1057 1121 q 1185 1023 1189 1052 q 1178 1007 1185 1015 q 1098 804 1131 955 q 1048 461 1065 653 q 1122 469 1086 467 q 1156 454 1146 472 q 1157 415 1166 435 q 1129 393 1149 395 q 1042 379 1111 392 q 1036 135 1034 235 q 1084 -33 1045 -9 q 1099 -50 1099 -42 q 1091 -67 1099 -58 q 1074 -81 1083 -76 q 974 -107 1031 -107 q 894 -92 928 -107 q 838 -52 859 -77 q 802 8 816 -28 q 783 79 789 43 q 778 159 778 115 q 780 236 777 202 q 789 309 783 271 q 789 315 789 311 q 790 322 790 320 q 627 294 673 301 q 501 86 548 155 q 471 42 480 55 q 441 1 463 29 q 405 -42 419 -28 q 368 -76 391 -56 q 324 -107 345 -97 q 277 -124 304 -117 q 222 -132 250 -132 q 118 -103 170 -132 q 34 -27 67 -75 q 0 75 1 22 q 39 106 0 118 q 82 98 58 98 q 349 290 191 104 q 229 329 281 302 q 145 393 176 357 q 98 471 114 430 q 81 555 81 513 q 131 700 79 640 q 268 760 182 760 q 331 748 307 760 q 349 720 355 737 q 360 568 321 630 q 484 471 399 506 q 598 651 537 550 q 691 811 659 753 q 779 971 724 870 q 835 1074 834 1072 m 882 739 q 891 783 888 766 q 891 805 893 800 q 879 797 888 810 q 852 749 869 783 q 694 427 712 460 l 710 427 q 810 431 743 425 q 882 739 831 541 z "},"":{"ha":1196,"x_min":0,"x_max":1257,"o":"m 804 1254 q 778 1272 788 1240 q 776 1360 765 1313 q 812 1410 785 1402 q 893 1415 852 1419 q 983 1403 935 1410 q 1073 1389 1031 1396 q 1155 1388 1115 1382 q 1218 1414 1194 1393 q 1244 1396 1234 1428 q 1246 1310 1257 1356 q 1208 1260 1236 1267 q 1128 1255 1170 1251 q 1039 1266 1087 1259 q 949 1280 991 1274 q 868 1281 907 1286 q 804 1254 828 1275 m 835 1074 q 972 1126 867 1131 q 1129 1083 1057 1121 q 1185 1023 1189 1052 q 1178 1007 1185 1015 q 1098 804 1131 955 q 1048 461 1065 653 q 1122 469 1086 467 q 1156 454 1146 472 q 1157 415 1166 435 q 1129 393 1149 395 q 1042 379 1111 392 q 1036 135 1034 235 q 1084 -33 1045 -9 q 1099 -50 1099 -42 q 1091 -67 1099 -58 q 1074 -81 1083 -76 q 974 -107 1031 -107 q 894 -92 928 -107 q 838 -52 859 -77 q 802 8 816 -28 q 783 79 789 43 q 778 159 778 115 q 780 236 777 202 q 789 309 783 271 q 789 315 789 311 q 790 322 790 320 q 627 294 673 301 q 501 86 548 155 q 471 42 480 55 q 441 1 463 29 q 405 -42 419 -28 q 368 -76 391 -56 q 324 -107 345 -97 q 277 -124 304 -117 q 222 -132 250 -132 q 118 -103 170 -132 q 34 -27 67 -75 q 0 75 1 22 q 39 106 0 118 q 82 98 58 98 q 349 290 191 104 q 229 329 281 302 q 145 393 176 357 q 98 471 114 430 q 81 555 81 513 q 131 700 79 640 q 268 760 182 760 q 331 748 307 760 q 349 720 355 737 q 360 568 321 630 q 484 471 399 506 q 598 651 537 550 q 691 811 659 753 q 779 971 724 870 q 835 1074 834 1072 m 882 739 q 891 783 888 766 q 891 805 893 800 q 879 797 888 810 q 852 749 869 783 q 694 427 712 460 l 710 427 q 810 431 743 425 q 882 739 831 541 z "},"":{"ha":1196,"x_min":0,"x_max":1277,"o":"m 930 1296 q 918 1344 913 1310 q 928 1397 920 1364 q 946 1444 937 1429 q 974 1461 954 1459 q 1011 1459 989 1463 q 1054 1444 1034 1456 q 1074 1415 1074 1432 q 1061 1353 1072 1394 q 1038 1293 1049 1312 q 1011 1278 1030 1280 q 969 1280 994 1276 q 930 1296 943 1285 m 1133 1296 q 1121 1344 1116 1310 q 1131 1397 1122 1364 q 1149 1444 1139 1429 q 1177 1461 1157 1459 q 1214 1459 1192 1463 q 1257 1444 1237 1456 q 1276 1415 1277 1432 q 1263 1353 1275 1394 q 1240 1293 1252 1312 q 1214 1278 1233 1280 q 1172 1280 1197 1276 q 1133 1296 1146 1285 m 835 1074 q 972 1126 867 1131 q 1129 1083 1057 1121 q 1185 1023 1189 1052 q 1178 1007 1185 1015 q 1098 804 1131 955 q 1048 461 1065 653 q 1122 469 1086 467 q 1156 454 1146 472 q 1157 415 1166 435 q 1129 393 1149 395 q 1042 379 1111 392 q 1036 135 1034 235 q 1084 -33 1045 -9 q 1099 -50 1099 -42 q 1091 -67 1099 -58 q 1074 -81 1083 -76 q 974 -107 1031 -107 q 894 -92 928 -107 q 838 -52 859 -77 q 802 8 816 -28 q 783 79 789 43 q 778 159 778 115 q 780 236 777 202 q 789 309 783 271 q 789 315 789 311 q 790 322 790 320 q 627 294 673 301 q 501 86 548 155 q 471 42 480 55 q 441 1 463 29 q 405 -42 419 -28 q 368 -76 391 -56 q 324 -107 345 -97 q 277 -124 304 -117 q 222 -132 250 -132 q 118 -103 170 -132 q 34 -27 67 -75 q 0 75 1 22 q 39 106 0 118 q 82 98 58 98 q 349 290 191 104 q 229 329 281 302 q 145 393 176 357 q 98 471 114 430 q 81 555 81 513 q 131 700 79 640 q 268 760 182 760 q 331 748 307 760 q 349 720 355 737 q 360 568 321 630 q 484 471 399 506 q 598 651 537 550 q 691 811 659 753 q 779 971 724 870 q 835 1074 834 1072 m 882 739 q 891 783 888 766 q 891 805 893 800 q 879 797 888 810 q 852 749 869 783 q 694 427 712 460 l 710 427 q 810 431 743 425 q 882 739 831 541 z "},"":{"ha":1196,"x_min":0,"x_max":1196,"o":"m 835 1074 q 958 1125 865 1127 q 945 1147 952 1133 q 933 1247 922 1195 q 987 1335 944 1301 q 1082 1358 1029 1370 q 1160 1296 1135 1345 q 1173 1194 1184 1253 q 1120 1108 1160 1140 q 1101 1096 1114 1102 q 1173 1052 1150 1076 q 1178 1007 1196 1027 q 1098 804 1131 955 q 1048 461 1065 653 q 1122 469 1086 467 q 1156 454 1146 472 q 1157 415 1166 435 q 1129 393 1149 395 q 1042 379 1111 392 q 1036 135 1034 235 q 1084 -33 1045 -9 q 1099 -50 1099 -42 q 1091 -67 1099 -58 q 1074 -81 1083 -76 q 974 -107 1031 -107 q 894 -92 928 -107 q 838 -52 859 -77 q 802 8 816 -28 q 783 79 789 43 q 778 159 778 115 q 780 236 777 202 q 789 309 783 271 q 789 315 789 311 q 790 322 790 320 q 627 294 673 301 q 501 86 548 155 q 471 42 480 55 q 441 1 463 29 q 405 -42 419 -28 q 368 -76 391 -56 q 324 -107 345 -97 q 277 -124 304 -117 q 222 -132 250 -132 q 118 -103 170 -132 q 34 -27 67 -75 q 0 75 1 22 q 39 106 0 118 q 82 98 58 98 q 349 290 191 104 q 229 329 281 302 q 145 393 176 357 q 98 471 114 430 q 81 555 81 513 q 131 700 79 640 q 268 760 182 760 q 331 748 307 760 q 349 720 355 737 q 360 568 321 630 q 484 471 399 506 q 598 651 537 550 q 691 811 659 753 q 779 971 724 870 q 835 1074 834 1072 m 882 739 q 891 783 888 766 q 891 805 893 800 q 879 797 888 810 q 852 749 869 783 q 694 427 712 460 l 710 427 q 810 431 743 425 q 882 739 831 541 m 1019 1229 q 1022 1186 1013 1202 q 1047 1171 1031 1169 q 1071 1181 1060 1171 q 1086 1213 1082 1192 q 1088 1229 1088 1218 q 1079 1261 1088 1250 q 1059 1272 1071 1272 q 1035 1260 1046 1271 q 1019 1229 1023 1249 z "},"":{"ha":1579,"x_min":1,"x_max":1662,"o":"m 1579 407 q 1604 437 1590 427 q 1629 447 1617 448 q 1651 438 1641 446 q 1661 414 1660 431 q 1654 375 1662 397 q 1589 233 1624 300 q 1504 98 1554 167 q 1397 -19 1453 30 q 1266 -99 1341 -68 q 1111 -131 1192 -130 q 993 -111 1049 -131 q 893 -58 937 -92 q 818 21 850 -24 q 770 115 786 66 q 753 218 753 165 q 772 318 753 271 q 628 294 660 298 q 503 86 549 155 q 473 42 481 55 q 442 1 464 29 q 407 -42 420 -28 q 369 -76 393 -56 q 326 -107 346 -97 q 278 -124 305 -117 q 224 -132 252 -132 q 120 -103 171 -132 q 35 -27 68 -75 q 1 75 2 22 q 40 106 1 118 q 83 98 58 98 q 350 290 193 104 q 230 329 283 302 q 146 393 178 357 q 99 471 115 430 q 82 555 83 513 q 132 700 81 640 q 269 760 184 760 q 332 748 309 760 q 350 720 356 737 q 361 568 322 630 q 485 471 401 506 q 599 651 538 550 q 693 811 660 753 q 781 971 726 870 q 836 1074 836 1072 q 913 1122 857 1112 q 1029 1118 970 1131 q 1133 1080 1088 1105 q 1301 1126 1214 1126 q 1449 1065 1391 1127 q 1518 915 1506 1004 q 1518 736 1530 826 q 1461 584 1506 647 q 1356 518 1416 520 q 1291 529 1326 517 q 1240 562 1256 541 q 1345 703 1297 588 q 1400 924 1394 817 q 1362 1045 1407 1030 q 1348 1047 1355 1047 q 1289 1017 1320 1047 q 1231 940 1257 986 q 1182 835 1204 893 q 1147 723 1160 777 q 1136 622 1135 669 q 1152 553 1136 576 q 1183 524 1164 534 q 1212 511 1203 515 q 1220 484 1221 507 q 1198 411 1218 461 q 1066 340 1106 419 q 1050 180 1032 273 q 1118 48 1066 92 q 1189 21 1149 21 q 1287 50 1236 22 q 1380 119 1338 77 q 1462 215 1422 161 q 1530 316 1503 270 q 1579 407 1558 363 m 884 739 q 893 783 890 766 q 893 805 895 800 q 881 797 890 810 q 854 749 871 783 q 696 427 724 481 l 711 427 q 811 431 745 425 q 884 739 830 531 z "},"":{"ha":825,"x_min":-5,"x_max":907,"o":"m 529 1278 q 504 1334 532 1291 q 443 1420 475 1376 q 410 1478 411 1463 q 447 1517 408 1501 q 528 1530 487 1533 q 570 1510 568 1528 q 605 1410 572 1485 q 637 1307 637 1335 q 621 1270 637 1284 q 583 1255 604 1256 q 542 1261 562 1255 q 529 1278 527 1267 m 825 407 q 849 437 836 427 q 875 447 863 448 q 897 438 887 446 q 907 414 906 431 q 900 375 907 397 q 835 233 870 300 q 750 98 800 167 q 643 -19 699 30 q 512 -99 587 -68 q 357 -131 437 -130 q 232 -109 292 -132 q 128 -49 172 -87 q 53 39 84 -12 q 8 143 22 89 q 2 252 -5 197 q 37 356 9 308 q 120 444 64 404 q 254 504 176 484 q 186 608 208 545 q 171 739 165 671 q 205 877 176 808 q 282 1002 235 947 q 398 1092 329 1057 q 547 1126 468 1126 q 694 1065 637 1127 q 764 915 752 1004 q 764 736 776 826 q 707 584 752 647 q 602 518 662 520 q 537 529 572 517 q 486 562 502 541 q 591 703 543 588 q 646 924 640 817 q 608 1045 652 1029 q 593 1047 601 1047 q 534 1017 565 1047 q 476 940 503 986 q 428 835 450 893 q 393 723 406 777 q 381 622 381 669 q 397 553 382 576 q 429 524 410 534 q 458 511 449 515 q 466 484 467 507 q 444 411 464 461 q 312 340 352 419 q 296 180 278 273 q 363 48 312 92 q 435 21 395 21 q 533 50 482 22 q 626 119 584 77 q 708 215 668 161 q 776 316 749 270 q 825 407 804 363 z "},"":{"ha":825,"x_min":-5,"x_max":907,"o":"m 676 1279 q 664 1263 678 1269 q 623 1257 644 1256 q 585 1271 602 1257 q 568 1308 568 1285 q 601 1411 568 1336 q 636 1511 633 1486 q 678 1532 637 1529 q 759 1518 719 1534 q 796 1479 798 1503 q 763 1421 795 1465 q 702 1335 730 1377 q 676 1279 673 1293 m 825 407 q 849 437 836 427 q 875 447 863 448 q 897 438 887 446 q 907 414 906 431 q 900 375 907 397 q 835 233 870 300 q 750 98 800 167 q 643 -19 699 30 q 512 -99 587 -68 q 357 -131 437 -130 q 232 -109 292 -132 q 128 -49 172 -87 q 53 39 84 -12 q 8 143 22 89 q 2 252 -5 197 q 37 356 9 308 q 120 444 64 404 q 254 504 176 484 q 186 608 208 545 q 171 739 165 671 q 205 877 176 808 q 282 1002 235 947 q 398 1092 329 1057 q 547 1126 468 1126 q 694 1065 637 1127 q 764 915 752 1004 q 764 736 776 826 q 707 584 752 647 q 602 518 662 520 q 537 529 572 517 q 486 562 502 541 q 591 703 543 588 q 646 924 640 817 q 608 1045 652 1029 q 593 1047 601 1047 q 534 1017 565 1047 q 476 940 503 986 q 428 835 450 893 q 393 723 406 777 q 381 622 381 669 q 397 553 382 576 q 429 524 410 534 q 458 511 449 515 q 466 484 467 507 q 444 411 464 461 q 312 340 352 419 q 296 180 278 273 q 363 48 312 92 q 435 21 395 21 q 533 50 482 22 q 626 119 584 77 q 708 215 668 161 q 776 316 749 270 q 825 407 804 363 z "},"":{"ha":825,"x_min":-5,"x_max":907,"o":"m 433 1514 q 446 1531 431 1525 q 487 1537 466 1537 q 525 1522 509 1536 q 542 1485 542 1508 q 509 1382 542 1457 q 473 1282 476 1307 q 431 1261 472 1263 q 351 1274 391 1259 q 314 1314 312 1290 q 347 1372 315 1328 q 408 1458 379 1415 q 433 1514 437 1500 m 675 1514 q 700 1458 671 1500 q 761 1372 729 1415 q 794 1314 793 1328 q 757 1274 796 1290 q 677 1261 718 1259 q 635 1282 636 1263 q 600 1382 632 1307 q 567 1485 567 1457 q 584 1522 567 1508 q 621 1537 600 1536 q 663 1531 642 1537 q 675 1514 677 1525 m 825 407 q 849 437 836 427 q 875 447 863 448 q 897 438 887 446 q 907 414 906 431 q 900 375 907 397 q 835 233 870 300 q 750 98 800 167 q 643 -19 699 30 q 512 -99 587 -68 q 357 -131 437 -130 q 232 -109 292 -132 q 128 -49 172 -87 q 53 39 84 -12 q 8 143 22 89 q 2 252 -5 197 q 37 356 9 308 q 120 444 64 404 q 254 504 176 484 q 186 608 208 545 q 171 739 165 671 q 205 877 176 808 q 282 1002 235 947 q 398 1092 329 1057 q 547 1126 468 1126 q 694 1065 637 1127 q 764 915 752 1004 q 764 736 776 826 q 707 584 752 647 q 602 518 662 520 q 537 529 572 517 q 486 562 502 541 q 591 703 543 588 q 646 924 640 817 q 608 1045 652 1029 q 593 1047 601 1047 q 534 1017 565 1047 q 476 940 503 986 q 428 835 450 893 q 393 723 406 777 q 381 622 381 669 q 397 553 382 576 q 429 524 410 534 q 458 511 449 515 q 466 484 467 507 q 444 411 464 461 q 312 340 352 419 q 296 180 278 273 q 363 48 312 92 q 435 21 395 21 q 533 50 482 22 q 626 119 584 77 q 708 215 668 161 q 776 316 749 270 q 825 407 804 363 z "},"":{"ha":825,"x_min":-5,"x_max":907,"o":"m 446 1299 q 433 1348 428 1313 q 443 1399 435 1368 q 461 1447 452 1431 q 489 1464 470 1462 q 516 1463 500 1466 q 549 1457 532 1461 q 577 1441 566 1452 q 589 1418 589 1431 q 576 1356 587 1396 q 553 1296 564 1315 q 526 1280 545 1282 q 484 1283 509 1278 q 446 1299 458 1288 m 648 1299 q 636 1348 631 1313 q 646 1399 637 1368 q 664 1447 654 1431 q 692 1464 673 1462 q 719 1463 703 1466 q 752 1457 735 1461 q 780 1441 768 1452 q 791 1418 792 1431 q 779 1356 790 1396 q 755 1296 767 1315 q 729 1280 748 1282 q 687 1283 712 1278 q 648 1299 661 1288 m 825 407 q 849 437 836 427 q 875 447 863 448 q 897 438 887 446 q 907 414 906 431 q 900 375 907 397 q 835 233 870 300 q 750 98 800 167 q 643 -19 699 30 q 512 -99 587 -68 q 357 -131 437 -130 q 232 -109 292 -132 q 128 -49 172 -87 q 53 39 84 -12 q 8 143 22 89 q 2 252 -5 197 q 37 356 9 308 q 120 444 64 404 q 254 504 176 484 q 186 608 208 545 q 171 739 165 671 q 205 877 176 808 q 282 1002 235 947 q 398 1092 329 1057 q 547 1126 468 1126 q 694 1065 637 1127 q 764 915 752 1004 q 764 736 776 826 q 707 584 752 647 q 602 518 662 520 q 537 529 572 517 q 486 562 502 541 q 591 703 543 588 q 646 924 640 817 q 608 1045 652 1029 q 593 1047 601 1047 q 534 1017 565 1047 q 476 940 503 986 q 428 835 450 893 q 393 723 406 777 q 381 622 381 669 q 397 553 382 576 q 429 524 410 534 q 458 511 449 515 q 466 484 467 507 q 444 411 464 461 q 312 340 352 419 q 296 180 278 273 q 363 48 312 92 q 435 21 395 21 q 533 50 482 22 q 626 119 584 77 q 708 215 668 161 q 776 316 749 270 q 825 407 804 363 z "},"":{"ha":817,"x_min":-19,"x_max":766,"o":"m 482 1280 q 457 1336 486 1294 q 396 1422 428 1379 q 363 1480 364 1466 q 400 1520 361 1504 q 480 1533 439 1535 q 522 1512 521 1531 q 557 1412 525 1487 q 590 1310 590 1337 q 573 1273 590 1286 q 536 1258 557 1259 q 494 1264 515 1257 q 482 1280 480 1270 m 765 856 q 751 688 766 795 q 722 476 737 581 q 696 264 707 372 q 693 66 685 157 q 734 -72 702 -24 q 731 -106 747 -90 q 683 -134 716 -123 q 611 -144 650 -144 q 526 -129 559 -144 q 476 -83 492 -114 q 454 -19 460 -52 q 449 62 449 14 q 462 238 448 140 q 496 429 476 336 q 537 614 517 522 q 571 798 557 706 q 583 960 585 890 q 560 1058 583 1025 q 504 1090 538 1090 q 425 1059 461 1090 q 365 976 389 1027 q 329 861 342 925 q 315 735 315 798 q 327 618 314 673 q 366 529 340 562 q 355 500 379 512 q 233 469 300 471 q 32 572 90 469 q 10 799 -19 663 q 132 1041 39 934 q 389 1192 241 1168 q 450 1197 419 1197 q 569 1175 513 1197 q 668 1112 625 1154 q 738 1005 712 1071 q 765 856 764 939 z "},"":{"ha":817,"x_min":-19,"x_max":766,"o":"m 515 1284 q 503 1268 517 1274 q 461 1262 482 1261 q 424 1277 440 1263 q 407 1314 407 1291 q 439 1416 407 1341 q 475 1516 472 1491 q 517 1537 476 1535 q 597 1524 557 1539 q 635 1485 637 1508 q 602 1427 633 1470 q 541 1340 570 1383 q 515 1284 512 1298 m 765 856 q 751 688 766 795 q 722 476 737 581 q 696 264 707 372 q 693 66 685 157 q 734 -72 702 -24 q 731 -106 747 -90 q 683 -134 716 -123 q 611 -144 650 -144 q 526 -129 559 -144 q 476 -83 492 -114 q 454 -19 460 -52 q 449 62 449 14 q 462 238 448 140 q 496 429 476 336 q 537 614 517 522 q 571 798 557 706 q 583 960 585 890 q 560 1058 583 1025 q 504 1090 538 1090 q 425 1059 461 1090 q 365 976 389 1027 q 329 861 342 925 q 315 735 315 798 q 327 618 314 673 q 366 529 340 562 q 355 500 379 512 q 233 469 300 471 q 32 572 90 469 q 10 799 -19 663 q 132 1041 39 934 q 389 1192 241 1168 q 450 1197 419 1197 q 569 1175 513 1197 q 668 1112 625 1154 q 738 1005 712 1071 q 765 856 764 939 z "},"":{"ha":817,"x_min":-19,"x_max":766,"o":"m 346 1535 q 358 1552 344 1546 q 400 1558 378 1558 q 438 1543 421 1557 q 454 1506 454 1529 q 421 1403 454 1478 q 386 1303 389 1328 q 344 1282 385 1284 q 264 1295 303 1280 q 227 1335 224 1311 q 260 1393 228 1349 q 320 1479 292 1436 q 346 1535 349 1521 m 587 1535 q 613 1479 584 1521 q 673 1393 642 1436 q 707 1335 705 1349 q 669 1295 709 1311 q 589 1282 630 1280 q 547 1303 549 1284 q 512 1403 545 1328 q 479 1506 479 1478 q 496 1543 479 1529 q 534 1558 513 1557 q 575 1552 555 1558 q 587 1535 589 1546 m 765 856 q 751 688 766 795 q 722 476 737 581 q 696 264 707 372 q 693 66 685 157 q 734 -72 702 -24 q 731 -106 747 -90 q 683 -134 716 -123 q 611 -144 650 -144 q 526 -129 559 -144 q 476 -83 492 -114 q 454 -19 460 -52 q 449 62 449 14 q 462 238 448 140 q 496 429 476 336 q 537 614 517 522 q 571 798 557 706 q 583 960 585 890 q 560 1058 583 1025 q 504 1090 538 1090 q 425 1059 461 1090 q 365 976 389 1027 q 329 861 342 925 q 315 735 315 798 q 327 618 314 673 q 366 529 340 562 q 355 500 379 512 q 233 469 300 471 q 32 572 90 469 q 10 799 -19 663 q 132 1041 39 934 q 389 1192 241 1168 q 450 1197 419 1197 q 569 1175 513 1197 q 668 1112 625 1154 q 738 1005 712 1071 q 765 856 764 939 z "},"":{"ha":817,"x_min":-19,"x_max":766,"o":"m 317 1297 q 304 1346 299 1312 q 314 1398 306 1367 q 332 1446 322 1430 q 359 1463 340 1461 q 397 1461 374 1465 q 440 1446 420 1457 q 460 1417 460 1434 q 447 1354 458 1395 q 424 1295 435 1314 q 397 1279 416 1281 q 355 1282 380 1277 q 317 1297 330 1286 m 519 1297 q 507 1346 502 1312 q 517 1398 509 1367 q 534 1446 525 1430 q 562 1463 543 1461 q 600 1461 577 1465 q 643 1446 623 1457 q 663 1417 663 1434 q 650 1354 661 1395 q 627 1295 638 1314 q 600 1279 619 1281 q 558 1282 583 1277 q 519 1297 532 1286 m 765 856 q 751 688 766 795 q 722 476 737 581 q 696 264 707 372 q 693 66 685 157 q 734 -72 702 -24 q 731 -106 747 -90 q 683 -134 716 -123 q 611 -144 650 -144 q 526 -129 559 -144 q 476 -83 492 -114 q 454 -19 460 -52 q 449 62 449 14 q 462 238 448 140 q 496 429 476 336 q 537 614 517 522 q 571 798 557 706 q 583 960 585 890 q 560 1058 583 1025 q 504 1090 538 1090 q 425 1059 461 1090 q 365 976 389 1027 q 329 861 342 925 q 315 735 315 798 q 327 618 314 673 q 366 529 340 562 q 355 500 379 512 q 233 469 300 471 q 32 572 90 469 q 10 799 -19 663 q 132 1041 39 934 q 389 1192 241 1168 q 450 1197 419 1197 q 569 1175 513 1197 q 668 1112 625 1154 q 738 1005 712 1071 q 765 856 764 939 z "},"":{"ha":1221,"x_min":0,"x_max":1160,"o":"m 602 1182 q 1006 1015 861 1181 q 1143 663 1126 878 q 1079 258 1160 458 q 845 -61 997 57 q 464 -182 677 -191 q 337 -157 393 -179 q 247 -99 281 -135 q 196 -20 213 -64 q 180 74 179 24 q 239 237 184 159 q 395 359 295 315 q 290 332 322 359 q 264 349 275 317 q 262 435 252 389 q 281 475 268 461 q 239 472 258 470 q 62 541 123 475 q 0 708 0 608 q 35 867 1 791 q 127 999 68 943 q 262 1098 186 1056 q 426 1161 338 1140 q 602 1182 513 1183 m 794 492 q 820 473 810 505 q 823 387 833 433 q 785 336 812 343 q 619 338 741 325 q 599 45 594 167 q 780 203 701 85 q 888 464 859 321 q 912 741 918 606 q 837 966 906 876 q 650 1055 768 1057 q 488 1009 567 1055 q 356 881 408 963 q 304 705 304 800 q 367 529 304 606 q 357 500 379 511 l 339 492 q 433 486 373 493 q 480 762 452 635 q 539 946 509 888 q 658 995 570 1003 q 781 951 726 989 q 817 893 827 920 q 807 880 814 886 q 713 725 756 839 q 642 463 671 612 q 794 492 753 456 m 371 176 q 379 106 368 140 q 416 52 391 73 q 408 89 410 68 q 412 272 404 156 q 371 176 376 233 z "},"":{"ha":1290,"x_min":-19,"x_max":1307,"o":"m 717 1272 q 690 1290 701 1259 q 688 1377 677 1330 q 725 1428 698 1420 q 806 1432 764 1437 q 896 1420 847 1428 q 986 1407 944 1413 q 1067 1405 1027 1400 q 1131 1432 1107 1411 q 1157 1413 1147 1445 q 1159 1328 1170 1373 q 1121 1278 1149 1284 q 1041 1273 1082 1268 q 951 1284 1000 1277 q 862 1298 903 1291 q 780 1299 820 1304 q 717 1272 741 1293 m 1300 920 q 1191 448 1238 704 q 1139 -1 1144 193 q 1149 -72 1137 -52 q 1149 -103 1159 -89 q 1068 -134 1128 -134 q 970 -103 1014 -134 q 907 -21 926 -72 q 893 117 887 33 q 912 262 899 187 q 937 387 926 338 q 978 526 949 436 q 1018 646 1007 616 q 1067 783 1029 677 q 1075 808 1072 797 q 1079 823 1078 819 q 1078 828 1079 827 q 1035 770 1069 828 q 955 623 1000 712 q 862 425 910 533 q 779 217 814 317 q 729 38 744 117 q 734 -72 713 -41 q 731 -106 747 -90 q 683 -134 716 -123 q 611 -144 650 -144 q 526 -129 559 -144 q 476 -83 492 -114 q 454 -19 460 -52 q 449 62 449 14 q 462 238 448 140 q 496 429 476 336 q 537 614 517 522 q 571 798 557 706 q 583 960 585 890 q 560 1058 583 1025 q 504 1090 538 1090 q 425 1059 461 1090 q 365 976 389 1027 q 329 861 342 925 q 315 735 315 798 q 327 618 314 673 q 366 529 340 562 q 355 500 379 512 q 233 469 300 471 q 32 572 90 469 q 10 799 -19 663 q 132 1041 39 934 q 389 1192 241 1168 q 450 1197 419 1197 q 569 1175 513 1197 q 668 1112 625 1154 q 738 1005 712 1071 q 765 856 764 939 q 735 568 766 779 q 697 275 705 357 q 820 573 755 422 q 965 884 884 724 q 1092 1090 1046 1045 q 1142 1107 1114 1109 q 1202 1083 1171 1105 q 1257 1035 1232 1062 q 1294 976 1282 1008 q 1300 920 1307 943 z "},"":{"ha":1230,"x_min":-2,"x_max":1160,"o":"m 743 1279 q 718 1335 747 1293 q 657 1421 689 1377 q 624 1479 625 1465 q 661 1518 622 1503 q 741 1532 701 1534 q 783 1511 782 1529 q 819 1411 786 1486 q 851 1308 851 1336 q 834 1271 851 1285 q 797 1257 818 1257 q 755 1263 776 1256 q 743 1279 741 1269 m 479 1063 q 529 1077 479 1063 q 673 1093 578 1092 q 848 1068 769 1095 q 982 995 927 1042 q 1075 883 1036 947 q 1133 743 1114 818 q 1156 586 1152 668 q 1149 421 1160 503 q 1112 260 1137 339 q 1050 112 1086 180 q 964 -12 1014 44 q 859 -102 915 -68 q 693 -150 781 -148 q 571 -125 626 -151 q 480 -57 516 -99 q 418 42 444 -14 q 382 158 393 99 q 371 278 372 217 q 386 407 371 334 q 426 554 400 480 q 496 685 452 629 q 591 753 540 741 q 680 743 633 763 q 759 685 726 723 q 799 607 791 648 q 787 576 803 583 q 662 411 718 545 q 608 155 606 277 q 686 31 610 33 q 759 61 724 30 q 822 148 795 93 q 871 273 849 202 q 904 422 894 344 q 917 579 914 500 q 906 728 920 657 q 868 854 892 800 q 800 941 844 909 q 699 972 756 973 q 579 935 641 972 q 465 835 518 899 q 372 675 412 771 q 321 471 333 580 q 322 385 315 406 q 294 349 326 363 q 215 334 262 334 q 57 386 113 332 q 0 529 2 439 q 36 706 -2 619 q 141 860 74 792 q 295 981 209 928 q 479 1063 381 1034 z "},"":{"ha":1230,"x_min":-2,"x_max":1160,"o":"m 810 1279 q 798 1263 812 1269 q 756 1257 777 1256 q 718 1271 734 1257 q 701 1308 701 1285 q 734 1411 701 1336 q 770 1511 767 1486 q 812 1532 771 1529 q 892 1518 852 1534 q 929 1479 931 1503 q 896 1421 928 1465 q 835 1335 864 1377 q 810 1279 806 1293 m 479 1063 q 529 1077 479 1063 q 673 1093 578 1092 q 848 1068 769 1095 q 982 995 927 1042 q 1075 883 1036 947 q 1133 743 1114 818 q 1156 586 1152 668 q 1149 421 1160 503 q 1112 260 1137 339 q 1050 112 1086 180 q 964 -12 1014 44 q 859 -102 915 -68 q 693 -150 781 -148 q 571 -125 626 -151 q 480 -57 516 -99 q 418 42 444 -14 q 382 158 393 99 q 371 278 372 217 q 386 407 371 334 q 426 554 400 480 q 496 685 452 629 q 591 753 540 741 q 680 743 633 763 q 759 685 726 723 q 799 607 791 648 q 787 576 803 583 q 662 411 718 545 q 608 155 606 277 q 686 31 610 33 q 759 61 724 30 q 822 148 795 93 q 871 273 849 202 q 904 422 894 344 q 917 579 914 500 q 906 728 920 657 q 868 854 892 800 q 800 941 844 909 q 699 972 756 973 q 579 935 641 972 q 465 835 518 899 q 372 675 412 771 q 321 471 333 580 q 322 385 315 406 q 294 349 326 363 q 215 334 262 334 q 57 386 113 332 q 0 529 2 439 q 36 706 -2 619 q 141 860 74 792 q 295 981 209 928 q 479 1063 381 1034 z "},"":{"ha":1230,"x_min":-2,"x_max":1160,"o":"m 589 1511 q 602 1528 587 1522 q 643 1534 622 1535 q 681 1519 664 1533 q 697 1482 697 1505 q 665 1379 697 1454 q 629 1279 632 1304 q 587 1258 628 1261 q 507 1272 547 1256 q 469 1311 467 1287 q 503 1369 471 1325 q 563 1455 534 1413 q 589 1511 592 1497 m 831 1511 q 856 1455 827 1497 q 917 1369 885 1413 q 950 1311 949 1325 q 912 1272 952 1287 q 832 1258 873 1256 q 790 1279 791 1261 q 755 1379 787 1304 q 722 1482 722 1454 q 739 1519 722 1505 q 777 1534 755 1533 q 818 1528 798 1535 q 831 1511 833 1522 m 479 1063 q 529 1077 479 1063 q 673 1093 578 1092 q 848 1068 769 1095 q 982 995 927 1042 q 1075 883 1036 947 q 1133 743 1114 818 q 1156 586 1152 668 q 1149 421 1160 503 q 1112 260 1137 339 q 1050 112 1086 180 q 964 -12 1014 44 q 859 -102 915 -68 q 693 -150 781 -148 q 571 -125 626 -151 q 480 -57 516 -99 q 418 42 444 -14 q 382 158 393 99 q 371 278 372 217 q 386 407 371 334 q 426 554 400 480 q 496 685 452 629 q 591 753 540 741 q 680 743 633 763 q 759 685 726 723 q 799 607 791 648 q 787 576 803 583 q 662 411 718 545 q 608 155 606 277 q 686 31 610 33 q 759 61 724 30 q 822 148 795 93 q 871 273 849 202 q 904 422 894 344 q 917 579 914 500 q 906 728 920 657 q 868 854 892 800 q 800 941 844 909 q 699 972 756 973 q 579 935 641 972 q 465 835 518 899 q 372 675 412 771 q 321 471 333 580 q 322 385 315 406 q 294 349 326 363 q 215 334 262 334 q 57 386 113 332 q 0 529 2 439 q 36 706 -2 619 q 141 860 74 792 q 295 981 209 928 q 479 1063 381 1034 z "},"":{"ha":1230,"x_min":-2,"x_max":1160,"o":"m 581 1272 q 554 1290 565 1259 q 551 1377 541 1330 q 589 1428 562 1420 q 669 1432 628 1437 q 759 1420 711 1428 q 849 1407 808 1413 q 931 1405 891 1400 q 994 1432 970 1411 q 1021 1413 1010 1445 q 1023 1328 1034 1373 q 985 1278 1013 1284 q 905 1273 946 1268 q 815 1284 863 1277 q 725 1298 767 1291 q 644 1299 684 1304 q 581 1272 604 1293 m 479 1063 q 529 1077 479 1063 q 673 1093 578 1092 q 848 1068 769 1095 q 982 995 927 1042 q 1075 883 1036 947 q 1133 743 1114 818 q 1156 586 1152 668 q 1149 421 1160 503 q 1112 260 1137 339 q 1050 112 1086 180 q 964 -12 1014 44 q 859 -102 915 -68 q 693 -150 781 -148 q 571 -125 626 -151 q 480 -57 516 -99 q 418 42 444 -14 q 382 158 393 99 q 371 278 372 217 q 386 407 371 334 q 426 554 400 480 q 496 685 452 629 q 591 753 540 741 q 680 743 633 763 q 759 685 726 723 q 799 607 791 648 q 787 576 803 583 q 662 411 718 545 q 608 155 606 277 q 686 31 610 33 q 759 61 724 30 q 822 148 795 93 q 871 273 849 202 q 904 422 894 344 q 917 579 914 500 q 906 728 920 657 q 868 854 892 800 q 800 941 844 909 q 699 972 756 973 q 579 935 641 972 q 465 835 518 899 q 372 675 412 771 q 321 471 333 580 q 322 385 315 406 q 294 349 326 363 q 215 334 262 334 q 57 386 113 332 q 0 529 2 439 q 36 706 -2 619 q 141 860 74 792 q 295 981 209 928 q 479 1063 381 1034 z "},"":{"ha":1230,"x_min":-2,"x_max":1160,"o":"m 587 1297 q 575 1346 570 1312 q 585 1398 576 1367 q 603 1446 593 1430 q 631 1463 612 1461 q 658 1462 642 1464 q 691 1455 674 1460 q 719 1440 707 1451 q 730 1417 731 1430 q 718 1354 729 1395 q 694 1295 706 1314 q 668 1279 687 1281 q 626 1282 651 1277 q 587 1297 600 1286 m 790 1297 q 778 1346 772 1312 q 788 1398 779 1367 q 806 1446 796 1430 q 833 1463 814 1461 q 861 1462 844 1464 q 893 1455 877 1460 q 922 1440 910 1451 q 933 1417 934 1430 q 920 1354 932 1395 q 897 1295 909 1314 q 871 1279 890 1281 q 828 1282 854 1277 q 790 1297 803 1286 m 479 1063 q 529 1077 479 1063 q 673 1093 578 1092 q 848 1068 769 1095 q 982 995 927 1042 q 1075 883 1036 947 q 1133 743 1114 818 q 1156 586 1152 668 q 1149 421 1160 503 q 1112 260 1137 339 q 1050 112 1086 180 q 964 -12 1014 44 q 859 -102 915 -68 q 693 -150 781 -148 q 571 -125 626 -151 q 480 -57 516 -99 q 418 42 444 -14 q 382 158 393 99 q 371 278 372 217 q 386 407 371 334 q 426 554 400 480 q 496 685 452 629 q 591 753 540 741 q 680 743 633 763 q 759 685 726 723 q 799 607 791 648 q 787 576 803 583 q 662 411 718 545 q 608 155 606 277 q 686 31 610 33 q 759 61 724 30 q 822 148 795 93 q 871 273 849 202 q 904 422 894 344 q 917 579 914 500 q 906 728 920 657 q 868 854 892 800 q 800 941 844 909 q 699 972 756 973 q 579 935 641 972 q 465 835 518 899 q 372 675 412 771 q 321 471 333 580 q 322 385 315 406 q 294 349 326 363 q 215 334 262 334 q 57 386 113 332 q 0 529 2 439 q 36 706 -2 619 q 141 860 74 792 q 295 981 209 928 q 479 1063 381 1034 z "},"":{"ha":1230,"x_min":-2,"x_max":1160,"o":"m 479 1063 q 529 1077 479 1063 q 673 1093 578 1092 q 848 1068 769 1095 q 982 995 927 1042 q 1075 883 1036 947 q 1133 743 1114 818 q 1156 586 1152 668 q 1149 421 1160 503 q 1112 260 1137 339 q 1050 112 1086 180 q 964 -12 1014 44 q 859 -102 915 -68 q 693 -150 781 -148 q 571 -125 626 -151 q 480 -57 516 -99 q 418 42 444 -14 q 382 158 393 99 q 371 278 372 217 q 386 407 371 334 q 426 554 400 480 q 496 685 452 629 q 591 753 540 741 q 680 743 633 763 q 759 685 726 723 q 799 607 791 648 q 787 576 803 583 q 662 411 718 545 q 608 155 606 277 q 686 31 610 33 q 759 61 724 30 q 822 148 795 93 q 871 273 849 202 q 904 422 894 344 q 917 579 914 500 q 906 728 920 657 q 868 854 892 800 q 800 941 844 909 q 699 972 756 973 q 579 935 641 972 q 465 835 518 899 q 372 675 412 771 q 321 471 333 580 q 322 385 315 406 q 294 349 326 363 q 215 334 262 334 q 57 386 113 332 q 0 529 2 439 q 36 706 -2 619 q 141 860 74 792 q 295 981 209 928 q 479 1063 381 1034 m 1014 1131 q 992 944 1017 1063 q 928 699 966 825 q 848 427 890 573 q 775 158 806 281 q 735 -77 745 35 q 751 -248 725 -189 q 727 -300 766 -281 q 635 -308 687 -320 q 554 -243 572 -294 q 549 -212 549 -229 q 571 -31 546 -149 q 634 213 596 86 q 714 487 673 339 q 787 759 756 634 q 827 996 817 883 q 811 1165 837 1108 q 836 1218 798 1199 q 928 1225 876 1238 q 1008 1160 990 1211 q 1014 1131 1013 1147 z "},"":{"ha":1337,"x_min":-19,"x_max":1448,"o":"m 908 1280 q 883 1336 911 1294 q 822 1422 854 1379 q 789 1480 790 1466 q 826 1520 787 1504 q 907 1533 866 1535 q 949 1512 947 1531 q 984 1412 951 1487 q 1017 1310 1017 1337 q 1000 1273 1017 1286 q 962 1258 983 1259 q 921 1264 941 1257 q 908 1280 906 1270 m 1160 1076 q 1278 1125 1190 1133 q 1401 1082 1347 1119 q 1438 1024 1448 1050 q 1428 1011 1434 1017 q 1329 818 1377 970 q 1249 488 1280 665 q 1203 145 1219 311 q 1197 -94 1188 -20 q 1166 -128 1200 -119 q 1076 -117 1123 -140 q 1006 -23 1013 -89 q 1006 -17 1006 -20 q 1018 281 999 83 q 661 -138 857 -134 q 559 -104 600 -138 q 502 -12 519 -71 q 481 126 486 47 q 486 294 477 205 q 506 477 494 383 q 531 660 517 571 q 552 828 545 749 q 559 967 559 907 q 542 1060 559 1026 q 489 1095 524 1095 q 416 1061 450 1095 q 362 976 383 1028 q 329 860 341 924 q 317 733 317 795 q 330 615 317 671 q 367 529 342 560 q 357 500 380 512 q 235 469 301 471 q 33 572 92 469 q 9 797 -18 662 q 130 1040 37 932 q 389 1192 239 1166 q 453 1197 420 1197 q 741 938 694 1198 q 732 503 769 787 q 717 387 728 464 q 692 140 690 199 q 733 62 695 62 q 835 128 785 63 q 922 290 885 193 q 996 510 960 388 q 1059 741 1032 632 q 1113 945 1085 850 q 1160 1076 1140 1040 z "},"":{"ha":1337,"x_min":-19,"x_max":1448,"o":"m 1008 1279 q 996 1263 1010 1269 q 954 1257 975 1256 q 917 1271 933 1257 q 900 1308 900 1285 q 932 1411 900 1336 q 968 1511 965 1486 q 1010 1532 969 1529 q 1090 1518 1050 1534 q 1128 1479 1130 1503 q 1095 1421 1126 1465 q 1034 1335 1063 1377 q 1008 1279 1005 1293 m 1160 1076 q 1278 1125 1190 1133 q 1401 1082 1347 1119 q 1438 1024 1448 1050 q 1428 1011 1434 1017 q 1329 818 1377 970 q 1249 488 1280 665 q 1203 145 1219 311 q 1197 -94 1188 -20 q 1166 -128 1200 -119 q 1076 -117 1123 -140 q 1006 -23 1013 -89 q 1006 -17 1006 -20 q 1018 281 999 83 q 661 -138 857 -134 q 559 -104 600 -138 q 502 -12 519 -71 q 481 126 486 47 q 486 294 477 205 q 506 477 494 383 q 531 660 517 571 q 552 828 545 749 q 559 967 559 907 q 542 1060 559 1026 q 489 1095 524 1095 q 416 1061 450 1095 q 362 976 383 1028 q 329 860 341 924 q 317 733 317 795 q 330 615 317 671 q 367 529 342 560 q 357 500 380 512 q 235 469 301 471 q 33 572 92 469 q 9 797 -18 662 q 130 1040 37 932 q 389 1192 239 1166 q 453 1197 420 1197 q 741 938 694 1198 q 732 503 769 787 q 717 387 728 464 q 692 140 690 199 q 733 62 695 62 q 835 128 785 63 q 922 290 885 193 q 996 510 960 388 q 1059 741 1032 632 q 1113 945 1085 850 q 1160 1076 1140 1040 z "},"":{"ha":1337,"x_min":-19,"x_max":1448,"o":"m 821 1535 q 833 1552 819 1546 q 875 1558 854 1558 q 912 1543 896 1557 q 929 1506 929 1529 q 897 1403 929 1478 q 861 1303 864 1328 q 819 1282 860 1284 q 739 1295 779 1280 q 701 1335 699 1311 q 734 1393 703 1349 q 795 1479 766 1436 q 821 1535 824 1521 m 1063 1535 q 1088 1479 1059 1521 q 1149 1393 1117 1436 q 1182 1335 1181 1349 q 1144 1295 1184 1311 q 1064 1282 1105 1280 q 1022 1303 1023 1284 q 987 1403 1019 1328 q 954 1506 954 1478 q 971 1543 954 1529 q 1008 1558 987 1557 q 1050 1552 1029 1558 q 1063 1535 1065 1546 m 1160 1076 q 1278 1125 1190 1133 q 1401 1082 1347 1119 q 1438 1024 1448 1050 q 1428 1011 1434 1017 q 1329 818 1377 970 q 1249 488 1280 665 q 1203 145 1219 311 q 1197 -94 1188 -20 q 1166 -128 1200 -119 q 1076 -117 1123 -140 q 1006 -23 1013 -89 q 1006 -17 1006 -20 q 1018 281 999 83 q 661 -138 857 -134 q 559 -104 600 -138 q 502 -12 519 -71 q 481 126 486 47 q 486 294 477 205 q 506 477 494 383 q 531 660 517 571 q 552 828 545 749 q 559 967 559 907 q 542 1060 559 1026 q 489 1095 524 1095 q 416 1061 450 1095 q 362 976 383 1028 q 329 860 341 924 q 317 733 317 795 q 330 615 317 671 q 367 529 342 560 q 357 500 380 512 q 235 469 301 471 q 33 572 92 469 q 9 797 -18 662 q 130 1040 37 932 q 389 1192 239 1166 q 453 1197 420 1197 q 741 938 694 1198 q 732 503 769 787 q 717 387 728 464 q 692 140 690 199 q 733 62 695 62 q 835 128 785 63 q 922 290 885 193 q 996 510 960 388 q 1059 741 1032 632 q 1113 945 1085 850 q 1160 1076 1140 1040 z "},"":{"ha":1337,"x_min":-19,"x_max":1448,"o":"m 803 1297 q 790 1346 785 1312 q 800 1398 791 1367 q 818 1446 808 1430 q 846 1463 827 1461 q 884 1461 861 1465 q 927 1446 907 1457 q 946 1417 947 1434 q 933 1355 945 1396 q 909 1295 921 1314 q 900 1283 905 1286 q 884 1279 895 1280 q 841 1282 867 1277 q 803 1297 816 1286 m 1006 1297 q 993 1346 987 1312 q 1003 1398 994 1367 q 1021 1446 1011 1430 q 1048 1463 1029 1461 q 1086 1461 1063 1465 q 1129 1446 1109 1457 q 1149 1417 1149 1434 q 1136 1355 1147 1396 q 1112 1295 1124 1314 q 1102 1283 1107 1286 q 1086 1279 1097 1280 q 1044 1282 1069 1277 q 1006 1297 1019 1286 m 1160 1076 q 1278 1125 1190 1133 q 1401 1082 1347 1119 q 1438 1024 1448 1050 q 1428 1011 1434 1017 q 1329 818 1377 970 q 1249 488 1280 665 q 1203 145 1219 311 q 1197 -94 1188 -20 q 1166 -128 1200 -119 q 1076 -117 1123 -140 q 1006 -23 1013 -89 q 1006 -17 1006 -20 q 1018 281 999 83 q 661 -138 857 -134 q 559 -104 600 -138 q 502 -12 519 -71 q 481 126 486 47 q 486 294 477 205 q 506 477 494 383 q 531 660 517 571 q 552 828 545 749 q 559 967 559 907 q 542 1060 559 1026 q 489 1095 524 1095 q 416 1061 450 1095 q 362 976 383 1028 q 329 860 341 924 q 317 733 317 795 q 330 615 317 671 q 367 529 342 560 q 357 500 380 512 q 235 469 301 471 q 33 572 92 469 q 9 797 -18 662 q 130 1040 37 932 q 389 1192 239 1166 q 453 1197 420 1197 q 741 938 694 1198 q 732 503 769 787 q 717 387 728 464 q 692 140 690 199 q 733 62 695 62 q 835 128 785 63 q 922 290 885 193 q 996 510 960 388 q 1059 741 1032 632 q 1113 945 1085 850 q 1160 1076 1140 1040 z "},"":{"ha":1314,"x_min":-19,"x_max":1356,"o":"m 1008 1279 q 996 1263 1010 1269 q 954 1257 975 1256 q 917 1271 933 1257 q 900 1308 900 1285 q 932 1411 900 1336 q 968 1511 965 1486 q 1010 1532 969 1529 q 1090 1518 1050 1534 q 1128 1479 1130 1503 q 1095 1421 1126 1465 q 1034 1335 1063 1377 q 1008 1279 1005 1293 m 1067 889 q 1186 937 1097 945 q 1310 893 1255 930 q 1345 836 1356 861 q 1336 823 1343 829 q 1256 719 1289 785 q 1200 533 1223 652 q 1166 342 1177 415 q 1139 106 1156 270 q 1121 -49 1127 3 q 1101 -195 1114 -102 q 1075 -340 1088 -289 q 1042 -464 1062 -392 q 996 -575 1021 -536 q 938 -655 970 -615 q 862 -713 905 -696 q 768 -730 819 -730 q 525 -610 623 -730 q 427 -374 446 -513 q 454 -151 408 -243 q 604 -50 503 -54 q 686 -62 642 -49 q 781 -117 739 -79 q 782 -144 796 -132 q 714 -233 743 -172 q 677 -363 686 -294 q 672 -497 668 -433 q 701 -604 676 -562 q 766 -646 726 -646 q 884 -385 838 -645 q 946 146 909 -238 q 962 317 957 260 q 661 28 823 30 q 559 56 600 27 q 502 137 519 85 q 481 256 486 188 q 486 401 477 324 q 506 559 494 478 q 531 718 517 641 q 552 864 545 795 q 559 984 559 932 q 542 1065 559 1035 q 489 1095 524 1095 q 416 1061 450 1095 q 362 976 383 1028 q 329 860 341 924 q 317 733 317 795 q 330 615 317 671 q 367 529 342 560 q 357 500 380 512 q 235 469 301 471 q 33 572 92 469 q 9 797 -18 662 q 130 1040 37 932 q 389 1192 239 1166 q 453 1197 420 1197 q 744 964 699 1198 q 732 596 768 836 q 717 505 727 565 q 692 294 690 345 q 733 228 695 228 q 824 284 780 229 q 904 427 869 340 q 967 602 939 514 q 1023 774 996 690 q 1067 889 1050 858 z "},"":{"ha":663,"x_min":-31,"x_max":741,"o":"m 340 728 q 315 784 344 741 q 254 870 286 826 q 221 928 222 913 q 258 967 219 951 q 338 980 298 983 q 380 960 379 978 q 416 860 383 935 q 449 757 449 785 q 432 720 449 734 q 394 705 416 706 q 353 711 373 705 q 340 728 338 718 m 664 428 q 691 457 671 452 q 726 450 711 463 q 737 418 741 437 q 709 313 726 367 q 666 198 692 259 q 606 90 641 138 q 534 21 572 41 q 467 0 500 2 q 369 45 404 -4 q 323 179 334 94 q 253 63 305 115 q 139 11 201 12 q 12 106 54 11 q -16 332 -30 199 q 63 554 -2 469 q 215 633 125 637 q 364 576 290 629 q 366 578 364 578 q 477 634 399 637 q 578 599 535 631 q 602 545 615 570 q 596 538 600 541 q 530 380 562 500 q 507 196 497 256 q 529 167 512 165 q 582 227 550 168 q 635 343 614 286 q 664 428 656 399 m 207 201 q 252 239 229 201 q 294 334 275 277 q 323 429 313 390 q 340 494 334 467 q 298 511 316 511 q 233 468 263 511 q 188 367 203 424 q 174 262 173 311 q 207 201 176 199 z "},"":{"ha":663,"x_min":-31,"x_max":741,"o":"m 389 728 q 376 711 391 718 q 335 705 356 705 q 297 720 314 706 q 281 757 281 734 q 313 860 281 785 q 349 960 346 935 q 391 980 350 978 q 471 967 431 983 q 509 928 511 951 q 475 870 507 913 q 414 784 443 826 q 389 728 385 741 m 664 428 q 691 457 671 452 q 726 450 711 463 q 737 418 741 437 q 709 313 726 367 q 666 198 692 259 q 606 90 641 138 q 534 21 572 41 q 467 0 500 2 q 369 45 404 -4 q 323 179 334 94 q 253 63 305 115 q 139 11 201 12 q 12 106 54 11 q -16 332 -30 199 q 63 554 -2 469 q 215 633 125 637 q 364 576 290 629 q 366 578 364 578 q 477 634 399 637 q 578 599 535 631 q 602 545 615 570 q 596 538 600 541 q 530 380 562 500 q 507 196 497 256 q 529 167 512 165 q 582 227 550 168 q 635 343 614 286 q 664 428 656 399 m 207 201 q 252 239 229 201 q 294 334 275 277 q 323 429 313 390 q 340 494 334 467 q 298 511 316 511 q 233 468 263 511 q 188 367 203 424 q 174 262 173 311 q 207 201 176 199 z "},"":{"ha":663,"x_min":-31,"x_max":741,"o":"m 338 721 q 319 706 336 710 q 277 705 301 702 q 231 715 254 708 q 192 736 208 723 q 179 764 177 749 q 217 820 182 778 q 284 902 252 861 q 313 956 315 942 q 345 975 311 969 q 413 975 379 981 q 446 956 448 969 q 474 902 443 942 q 541 820 506 861 q 579 764 576 778 q 566 736 581 749 q 528 715 551 723 q 481 705 505 708 q 440 706 458 702 q 421 721 422 710 q 379 819 418 743 q 338 721 342 745 m 664 428 q 691 457 671 452 q 726 450 711 463 q 737 418 741 437 q 709 313 726 367 q 666 198 692 259 q 606 90 641 138 q 534 21 572 41 q 467 0 500 2 q 369 45 404 -4 q 323 179 334 94 q 253 63 305 115 q 139 11 201 12 q 12 106 54 11 q -16 332 -30 199 q 63 554 -2 469 q 215 633 125 637 q 364 576 290 629 q 366 578 364 578 q 477 634 399 637 q 578 599 535 631 q 602 545 615 570 q 596 538 600 541 q 530 380 562 500 q 507 196 497 256 q 529 167 512 165 q 582 227 550 168 q 635 343 614 286 q 664 428 656 399 m 207 201 q 252 239 229 201 q 294 334 275 277 q 323 429 313 390 q 340 494 334 467 q 298 511 316 511 q 233 468 263 511 q 188 367 203 424 q 174 262 173 311 q 207 201 176 199 z "},"":{"ha":663,"x_min":-31,"x_max":741,"o":"m 147 749 q 121 766 132 735 q 118 853 108 806 q 155 904 128 897 q 236 909 195 913 q 326 897 277 904 q 416 883 374 890 q 497 882 458 876 q 561 908 537 887 q 587 890 577 922 q 589 804 600 850 q 551 754 579 761 q 471 749 513 745 q 382 761 430 753 q 292 774 334 768 q 211 775 250 781 q 147 749 171 770 m 664 428 q 691 457 671 452 q 726 450 711 463 q 737 418 741 437 q 709 313 726 367 q 666 198 692 259 q 606 90 641 138 q 534 21 572 41 q 467 0 500 2 q 369 45 404 -4 q 323 179 334 94 q 253 63 305 115 q 139 11 201 12 q 12 106 54 11 q -16 332 -30 199 q 63 554 -2 469 q 215 633 125 637 q 364 576 290 629 q 366 578 364 578 q 477 634 399 637 q 578 599 535 631 q 602 545 615 570 q 596 538 600 541 q 530 380 562 500 q 507 196 497 256 q 529 167 512 165 q 582 227 550 168 q 635 343 614 286 q 664 428 656 399 m 207 201 q 252 239 229 201 q 294 334 275 277 q 323 429 313 390 q 340 494 334 467 q 298 511 316 511 q 233 468 263 511 q 188 367 203 424 q 174 262 173 311 q 207 201 176 199 z "},"":{"ha":663,"x_min":-31,"x_max":741,"o":"m 214 754 q 201 803 196 768 q 211 855 203 823 q 229 903 220 886 q 257 920 238 918 q 284 919 268 921 q 317 912 300 917 q 346 897 334 907 q 357 873 357 886 q 344 811 355 852 q 321 751 332 770 q 294 736 313 738 q 252 739 277 734 q 214 754 227 743 m 416 754 q 404 803 399 768 q 414 855 406 823 q 432 903 422 886 q 460 920 441 918 q 487 919 471 921 q 520 912 503 917 q 548 897 536 907 q 559 873 560 886 q 547 811 558 852 q 524 751 535 770 q 497 736 516 738 q 455 739 480 734 q 416 754 429 743 m 664 428 q 691 457 671 452 q 726 450 711 463 q 737 418 741 437 q 709 313 726 367 q 666 198 692 259 q 606 90 641 138 q 534 21 572 41 q 467 0 500 2 q 369 45 404 -4 q 323 179 334 94 q 253 63 305 115 q 139 11 201 12 q 12 106 54 11 q -16 332 -30 199 q 63 554 -2 469 q 215 633 125 637 q 364 576 290 629 q 366 578 364 578 q 477 634 399 637 q 578 599 535 631 q 602 545 615 570 q 596 538 600 541 q 530 380 562 500 q 507 196 497 256 q 529 167 512 165 q 582 227 550 168 q 635 343 614 286 q 664 428 656 399 m 207 201 q 252 239 229 201 q 294 334 275 277 q 323 429 313 390 q 340 494 334 467 q 298 511 316 511 q 233 468 263 511 q 188 367 203 424 q 174 262 173 311 q 207 201 176 199 z "},"":{"ha":663,"x_min":-31,"x_max":741,"o":"m 358 689 q 300 705 327 688 q 256 754 273 722 q 244 854 233 802 q 298 942 255 907 q 393 965 341 977 q 471 903 446 953 q 484 802 495 859 q 431 715 471 747 q 358 689 398 689 m 330 836 q 333 793 324 810 q 358 778 342 777 q 382 788 371 778 q 397 819 393 799 q 399 836 399 825 q 390 868 399 857 q 370 879 382 879 q 346 867 357 878 q 330 836 334 856 m 664 428 q 691 457 671 452 q 726 450 711 463 q 737 418 741 437 q 709 313 726 367 q 666 198 692 259 q 606 90 641 138 q 534 21 572 41 q 467 0 500 2 q 369 45 404 -4 q 323 179 334 94 q 253 63 305 115 q 139 11 201 12 q 12 106 54 11 q -16 332 -30 199 q 63 554 -2 469 q 215 633 125 637 q 364 576 290 629 q 366 578 364 578 q 477 634 399 637 q 578 599 535 631 q 602 545 615 570 q 596 538 600 541 q 530 380 562 500 q 507 196 497 256 q 529 167 512 165 q 582 227 550 168 q 635 343 614 286 q 664 428 656 399 m 207 201 q 252 239 229 201 q 294 334 275 277 q 323 429 313 390 q 340 494 334 467 q 298 511 316 511 q 233 468 263 511 q 188 367 203 424 q 174 262 173 311 q 207 201 176 199 z "},"":{"ha":483,"x_min":-36,"x_max":560,"o":"m 290 728 q 265 784 294 741 q 204 870 236 826 q 171 928 172 913 q 208 967 169 951 q 288 980 248 983 q 330 960 329 978 q 366 860 333 935 q 399 757 399 785 q 382 720 399 734 q 344 705 366 706 q 302 711 323 705 q 290 728 288 718 m 484 421 q 516 450 496 446 q 549 437 537 454 q 550 393 560 420 q 507 294 530 342 q 448 190 484 245 q 374 94 412 134 q 287 26 336 53 q 186 -1 237 -1 q 14 100 71 -2 q -21 319 -36 189 q 64 539 -6 449 q 253 639 141 638 q 383 584 337 640 q 421 443 429 528 q 394 354 416 400 q 333 273 372 309 q 253 237 295 238 q 199 253 227 237 q 250 122 189 122 q 313 158 277 122 q 384 245 350 194 q 444 343 418 297 q 484 421 469 389 m 311 529 q 268 486 291 529 q 231 399 244 442 q 212 330 217 355 q 271 382 239 337 q 318 471 302 427 q 325 514 327 498 q 311 529 322 529 z "},"":{"ha":483,"x_min":-36,"x_max":560,"o":"m 325 728 q 313 711 327 718 q 271 705 292 705 q 233 720 250 706 q 216 757 216 734 q 249 860 216 785 q 285 960 282 935 q 327 980 286 978 q 407 967 368 983 q 444 928 446 951 q 411 870 443 913 q 350 784 379 826 q 325 728 321 741 m 484 421 q 516 450 496 446 q 549 437 537 454 q 550 393 560 420 q 507 294 530 342 q 448 190 484 245 q 374 94 412 134 q 287 26 336 53 q 186 -1 237 -1 q 14 100 71 -2 q -21 319 -36 189 q 64 539 -6 449 q 253 639 141 638 q 383 584 337 640 q 421 443 429 528 q 394 354 416 400 q 333 273 372 309 q 253 237 295 238 q 199 253 227 237 q 250 122 189 122 q 313 158 277 122 q 384 245 350 194 q 444 343 418 297 q 484 421 469 389 m 311 529 q 268 486 291 529 q 231 399 244 442 q 212 330 217 355 q 271 382 239 337 q 318 471 302 427 q 325 514 327 498 q 311 529 322 529 z "},"":{"ha":483,"x_min":-36,"x_max":560,"o":"m 231 721 q 212 706 229 710 q 170 705 194 702 q 123 715 146 708 q 85 736 100 723 q 72 764 70 749 q 110 820 75 778 q 177 902 145 861 q 205 956 208 942 q 238 975 203 969 q 307 975 273 981 q 339 956 341 969 q 368 902 336 942 q 434 820 399 861 q 472 764 469 778 q 459 736 474 749 q 420 715 444 723 q 374 705 397 708 q 333 706 351 702 q 314 721 315 710 q 272 819 311 743 q 231 721 235 745 m 484 421 q 516 450 496 446 q 549 437 537 454 q 550 393 560 420 q 507 294 530 342 q 448 190 484 245 q 374 94 412 134 q 287 26 336 53 q 186 -1 237 -1 q 14 100 71 -2 q -21 319 -36 189 q 64 539 -6 449 q 253 639 141 638 q 383 584 337 640 q 421 443 429 528 q 394 354 416 400 q 333 273 372 309 q 253 237 295 238 q 199 253 227 237 q 250 122 189 122 q 313 158 277 122 q 384 245 350 194 q 444 343 418 297 q 484 421 469 389 m 311 529 q 268 486 291 529 q 231 399 244 442 q 212 330 217 355 q 271 382 239 337 q 318 471 302 427 q 325 514 327 498 q 311 529 322 529 z "},"":{"ha":483,"x_min":-36,"x_max":560,"o":"m 150 754 q 138 803 132 768 q 148 855 139 823 q 165 903 156 886 q 193 920 174 918 q 220 919 204 921 q 253 912 237 917 q 282 897 270 907 q 293 873 294 886 q 280 811 292 852 q 257 751 269 770 q 231 736 250 738 q 188 739 214 734 q 150 754 163 743 m 353 754 q 340 803 335 768 q 350 855 342 823 q 368 903 359 886 q 396 920 377 918 q 423 919 407 921 q 456 912 439 917 q 485 897 473 907 q 496 873 496 886 q 483 811 494 852 q 460 751 471 770 q 433 736 452 738 q 391 739 416 734 q 353 754 366 743 m 484 421 q 516 450 496 446 q 549 437 537 454 q 550 393 560 420 q 507 294 530 342 q 448 190 484 245 q 374 94 412 134 q 287 26 336 53 q 186 -1 237 -1 q 14 100 71 -2 q -21 319 -36 189 q 64 539 -6 449 q 253 639 141 638 q 383 584 337 640 q 421 443 429 528 q 394 354 416 400 q 333 273 372 309 q 253 237 295 238 q 199 253 227 237 q 250 122 189 122 q 313 158 277 122 q 384 245 350 194 q 444 343 418 297 q 484 421 469 389 m 311 529 q 268 486 291 529 q 231 399 244 442 q 212 330 217 355 q 271 382 239 337 q 318 471 302 427 q 325 514 327 498 q 311 529 322 529 z "},"":{"ha":618,"x_min":-19,"x_max":695,"o":"m 125 749 q 99 766 109 735 q 96 853 86 806 q 134 904 106 897 q 214 909 173 913 q 304 897 256 904 q 394 883 353 890 q 476 882 436 876 q 539 908 515 887 q 565 890 555 922 q 568 805 578 851 q 529 754 557 761 q 449 749 490 745 q 359 761 408 753 q 270 774 311 768 q 188 775 228 781 q 125 749 149 770 m 618 419 q 648 449 627 444 q 682 439 668 454 q 688 400 695 425 q 671 350 677 368 q 651 295 665 331 q 627 234 637 258 q 600 177 616 210 q 567 121 583 143 q 530 75 551 99 q 488 37 509 50 q 442 16 467 24 q 390 11 416 8 q 275 172 275 23 q 325 404 275 251 q 326 433 336 435 q 298 410 316 432 q 210 226 250 345 q 178 35 169 108 q 146 1 180 9 q 56 13 104 -9 q -13 109 -7 43 q -14 114 -14 111 q -5 360 -19 195 q 37 578 9 526 q 150 634 71 638 q 251 599 208 631 q 275 545 288 570 q 269 538 273 541 q 200 368 227 494 q 465 632 325 632 q 536 603 511 632 q 551 517 561 574 q 509 370 547 492 q 467 201 471 248 q 469 168 465 180 q 482 155 473 155 q 501 166 490 155 q 523 199 511 178 q 546 241 535 220 q 569 293 556 262 q 588 342 581 324 q 606 388 595 361 q 618 419 616 416 z "},"":{"ha":547,"x_min":-37,"x_max":611,"o":"m 296 728 q 270 784 299 741 q 210 870 241 826 q 176 928 178 913 q 214 967 174 951 q 294 980 254 983 q 336 960 335 978 q 372 860 339 935 q 404 757 404 785 q 388 720 404 734 q 350 705 371 706 q 309 711 329 705 q 296 728 294 718 m 547 419 q 570 444 553 439 q 599 438 587 449 q 607 407 611 427 q 533 245 591 325 q 403 142 474 165 q 176 -12 307 -12 q 64 20 111 -12 q -4 104 17 53 q -31 216 -25 155 q -25 337 -37 277 q 11 443 -13 397 q 100 588 28 534 q 260 644 173 643 q 405 590 345 644 q 472 428 465 535 q 460 288 474 353 q 474 294 467 290 q 486 303 481 298 q 497 315 492 307 q 507 328 503 323 q 516 343 511 333 q 524 359 522 354 q 531 375 526 363 q 537 390 536 387 q 542 406 538 393 q 547 419 547 418 m 298 281 q 322 428 336 376 q 301 463 316 450 q 267 476 286 476 q 228 461 247 476 q 254 449 244 461 q 261 421 263 437 q 245 397 258 407 q 185 313 212 366 q 154 210 159 260 q 154 184 152 199 q 159 156 155 170 q 171 133 162 142 q 193 123 180 123 q 258 193 220 125 q 262 244 252 220 q 298 281 272 269 z "},"":{"ha":547,"x_min":-37,"x_max":611,"o":"m 363 728 q 350 711 365 718 q 309 705 330 705 q 271 720 288 706 q 254 757 254 734 q 287 860 254 785 q 322 960 319 935 q 364 980 323 978 q 445 967 405 983 q 482 928 484 951 q 449 870 481 913 q 388 784 417 826 q 363 728 359 741 m 547 419 q 570 444 553 439 q 599 438 587 449 q 607 407 611 427 q 533 245 591 325 q 403 142 474 165 q 176 -12 307 -12 q 64 20 111 -12 q -4 104 17 53 q -31 216 -25 155 q -25 337 -37 277 q 11 443 -13 397 q 100 588 28 534 q 260 644 173 643 q 405 590 345 644 q 472 428 465 535 q 460 288 474 353 q 474 294 467 290 q 486 303 481 298 q 497 315 492 307 q 507 328 503 323 q 516 343 511 333 q 524 359 522 354 q 531 375 526 363 q 537 390 536 387 q 542 406 538 393 q 547 419 547 418 m 298 281 q 322 428 336 376 q 301 463 316 450 q 267 476 286 476 q 228 461 247 476 q 254 449 244 461 q 261 421 263 437 q 245 397 258 407 q 185 313 212 366 q 154 210 159 260 q 154 184 152 199 q 159 156 155 170 q 171 133 162 142 q 193 123 180 123 q 258 193 220 125 q 262 244 252 220 q 298 281 272 269 z "},"":{"ha":547,"x_min":-37,"x_max":611,"o":"m 248 721 q 229 706 246 710 q 187 705 211 702 q 140 715 163 708 q 102 736 117 723 q 89 764 87 749 q 127 820 92 778 q 194 902 162 861 q 222 956 225 942 q 255 975 220 969 q 323 975 289 981 q 355 956 357 969 q 384 902 353 942 q 451 820 416 861 q 489 764 486 778 q 476 736 491 749 q 437 715 460 723 q 391 705 414 708 q 349 706 367 702 q 330 721 332 710 q 289 819 326 745 q 248 721 252 745 m 547 419 q 570 444 553 439 q 599 438 587 449 q 607 407 611 427 q 533 245 591 325 q 403 142 474 165 q 176 -12 307 -12 q 64 20 111 -12 q -4 104 17 53 q -31 216 -25 155 q -25 337 -37 277 q 11 443 -13 397 q 100 588 28 534 q 260 644 173 643 q 405 590 345 644 q 472 428 465 535 q 460 288 474 353 q 474 294 467 290 q 486 303 481 298 q 497 315 492 307 q 507 328 503 323 q 516 343 511 333 q 524 359 522 354 q 531 375 526 363 q 537 390 536 387 q 542 406 538 393 q 547 419 547 418 m 298 281 q 322 428 336 376 q 301 463 316 450 q 267 476 286 476 q 228 461 247 476 q 254 449 244 461 q 261 421 263 437 q 245 397 258 407 q 185 313 212 366 q 154 210 159 260 q 154 184 152 199 q 159 156 155 170 q 171 133 162 142 q 193 123 180 123 q 258 193 220 125 q 262 244 252 220 q 298 281 272 269 z "},"":{"ha":547,"x_min":-37,"x_max":611,"o":"m 78 749 q 52 766 62 735 q 49 853 39 806 q 86 904 59 897 q 167 909 125 913 q 257 897 208 904 q 347 883 305 890 q 428 882 389 876 q 492 908 468 887 q 518 890 508 922 q 520 804 531 850 q 482 754 510 761 q 402 749 444 745 q 313 761 361 753 q 223 774 264 768 q 141 775 181 781 q 78 749 102 770 m 547 419 q 570 444 553 439 q 599 438 587 449 q 607 407 611 427 q 533 245 591 325 q 403 142 474 165 q 176 -12 307 -12 q 64 20 111 -12 q -4 104 17 53 q -31 216 -25 155 q -25 337 -37 277 q 11 443 -13 397 q 100 588 28 534 q 260 644 173 643 q 405 590 345 644 q 472 428 465 535 q 460 288 474 353 q 474 294 467 290 q 486 303 481 298 q 497 315 492 307 q 507 328 503 323 q 516 343 511 333 q 524 359 522 354 q 531 375 526 363 q 537 390 536 387 q 542 406 538 393 q 547 419 547 418 m 298 281 q 322 428 336 376 q 301 463 316 450 q 267 476 286 476 q 228 461 247 476 q 254 449 244 461 q 261 421 263 437 q 245 397 258 407 q 185 313 212 366 q 154 210 159 260 q 154 184 152 199 q 159 156 155 170 q 171 133 162 142 q 193 123 180 123 q 258 193 220 125 q 262 244 252 220 q 298 281 272 269 z "},"":{"ha":547,"x_min":-37,"x_max":611,"o":"m 139 754 q 126 803 121 769 q 136 855 127 823 q 154 903 144 886 q 182 920 163 918 q 220 918 197 922 q 263 902 243 914 q 282 873 283 890 q 269 812 281 852 q 245 751 257 771 q 236 740 241 743 q 220 736 231 737 q 177 739 203 734 q 139 754 152 743 m 342 754 q 329 803 323 769 q 339 855 330 823 q 357 903 347 886 q 385 920 366 918 q 422 918 399 922 q 466 902 446 914 q 485 873 486 890 q 472 811 484 852 q 449 751 460 770 q 422 736 441 738 q 380 739 406 734 q 342 754 355 743 m 547 419 q 570 444 553 439 q 599 438 587 449 q 607 407 611 427 q 533 245 591 325 q 403 142 474 165 q 176 -12 307 -12 q 64 20 111 -12 q -4 104 17 53 q -31 216 -25 155 q -25 337 -37 277 q 11 443 -13 397 q 100 588 28 534 q 260 644 173 643 q 405 590 345 644 q 472 428 465 535 q 460 288 474 353 q 474 294 467 290 q 486 303 481 298 q 497 315 492 307 q 507 328 503 323 q 516 343 511 333 q 524 359 522 354 q 531 375 526 363 q 537 390 536 387 q 542 406 538 393 q 547 419 547 418 m 298 281 q 322 428 336 376 q 301 463 316 450 q 267 476 286 476 q 228 461 247 476 q 254 449 244 461 q 261 421 263 437 q 245 397 258 407 q 185 313 212 366 q 154 210 159 260 q 154 184 152 199 q 159 156 155 170 q 171 133 162 142 q 193 123 180 123 q 258 193 220 125 q 262 244 252 220 q 298 281 272 269 z "},"":{"ha":669,"x_min":-12,"x_max":747,"o":"m 297 728 q 272 784 300 741 q 211 870 243 826 q 178 928 179 913 q 215 967 176 951 q 296 980 255 983 q 338 960 336 978 q 373 860 340 935 q 406 757 406 785 q 389 720 406 734 q 351 705 372 706 q 310 711 330 705 q 297 728 295 718 m 669 428 q 697 457 677 452 q 732 450 717 463 q 743 418 747 437 q 715 313 732 367 q 672 198 698 259 q 612 90 647 138 q 541 21 578 41 q 472 0 506 2 q 375 45 410 -4 q 329 178 340 94 q 208 21 273 58 q 139 0 171 2 q 53 34 87 -3 q 6 129 18 70 q -9 257 -7 187 q -3 393 -12 328 q 16 509 5 459 q 37 578 27 559 q 149 634 71 638 q 250 600 208 631 q 275 545 288 571 q 269 538 273 541 q 203 382 235 501 q 180 198 170 259 q 203 167 184 165 q 261 226 233 169 q 307 352 289 283 q 343 491 324 420 q 371 578 361 561 q 483 634 404 638 q 583 599 541 631 q 608 545 621 570 q 603 538 606 541 q 536 382 568 501 q 512 197 503 258 q 534 167 517 165 q 587 227 555 168 q 641 343 619 286 q 669 428 662 399 z "},"":{"ha":669,"x_min":-12,"x_max":747,"o":"m 325 728 q 313 711 327 718 q 271 705 292 705 q 233 720 250 706 q 216 757 216 734 q 249 860 216 785 q 285 960 282 935 q 327 980 286 978 q 407 967 368 983 q 444 928 446 951 q 411 870 443 913 q 350 784 379 826 q 325 728 321 741 m 669 428 q 697 457 677 452 q 732 450 717 463 q 743 418 747 437 q 715 313 732 367 q 672 198 698 259 q 612 90 647 138 q 541 21 578 41 q 472 0 506 2 q 375 45 410 -4 q 329 178 340 94 q 208 21 273 58 q 139 0 171 2 q 53 34 87 -3 q 6 129 18 70 q -9 257 -7 187 q -3 393 -12 328 q 16 509 5 459 q 37 578 27 559 q 149 634 71 638 q 250 600 208 631 q 275 545 288 571 q 269 538 273 541 q 203 382 235 501 q 180 198 170 259 q 203 167 184 165 q 261 226 233 169 q 307 352 289 283 q 343 491 324 420 q 371 578 361 561 q 483 634 404 638 q 583 599 541 631 q 608 545 621 570 q 603 538 606 541 q 536 382 568 501 q 512 197 503 258 q 534 167 517 165 q 587 227 555 168 q 641 343 619 286 q 669 428 662 399 z "},"":{"ha":669,"x_min":-12,"x_max":747,"o":"m 298 721 q 279 706 297 710 q 238 705 262 702 q 192 715 215 708 q 154 736 169 723 q 140 764 138 749 q 178 820 143 778 q 244 902 213 861 q 273 956 276 942 q 306 975 271 969 q 375 975 340 981 q 407 956 409 969 q 436 902 404 942 q 503 820 467 861 q 541 764 538 778 q 527 736 543 749 q 489 715 512 723 q 442 705 466 708 q 401 706 418 702 q 382 721 383 710 q 340 819 378 745 q 298 721 302 743 m 669 428 q 697 457 677 452 q 732 450 717 463 q 743 418 747 437 q 715 313 732 367 q 672 198 698 259 q 612 90 647 138 q 541 21 578 41 q 472 0 506 2 q 375 45 410 -4 q 329 178 340 94 q 208 21 273 58 q 139 0 171 2 q 53 34 87 -3 q 6 129 18 70 q -9 257 -7 187 q -3 393 -12 328 q 16 509 5 459 q 37 578 27 559 q 149 634 71 638 q 250 600 208 631 q 275 545 288 571 q 269 538 273 541 q 203 382 235 501 q 180 198 170 259 q 203 167 184 165 q 261 226 233 169 q 307 352 289 283 q 343 491 324 420 q 371 578 361 561 q 483 634 404 638 q 583 599 541 631 q 608 545 621 570 q 603 538 606 541 q 536 382 568 501 q 512 197 503 258 q 534 167 517 165 q 587 227 555 168 q 641 343 619 286 q 669 428 662 399 z "},"":{"ha":669,"x_min":-12,"x_max":747,"o":"m 179 754 q 167 803 161 768 q 177 855 168 823 q 195 903 185 886 q 222 920 203 918 q 250 919 233 921 q 282 912 266 917 q 311 897 299 907 q 322 873 323 886 q 309 811 321 852 q 286 751 298 770 q 260 736 279 738 q 217 739 243 734 q 179 754 192 743 m 382 754 q 370 803 364 768 q 379 855 371 823 q 397 903 388 886 q 425 920 406 918 q 452 919 436 921 q 485 912 469 917 q 514 897 502 907 q 525 873 526 886 q 512 811 524 852 q 489 751 500 770 q 463 736 481 738 q 420 739 446 734 q 382 754 395 743 m 669 428 q 697 457 677 452 q 732 450 717 463 q 743 418 747 437 q 715 313 732 367 q 672 198 698 259 q 612 90 647 138 q 541 21 578 41 q 472 0 506 2 q 375 45 410 -4 q 329 178 340 94 q 208 21 273 58 q 139 0 171 2 q 53 34 87 -3 q 6 129 18 70 q -9 257 -7 187 q -3 393 -12 328 q 16 509 5 459 q 37 578 27 559 q 149 634 71 638 q 250 600 208 631 q 275 545 288 571 q 269 538 273 541 q 203 382 235 501 q 180 198 170 259 q 203 167 184 165 q 261 226 233 169 q 307 352 289 283 q 343 491 324 420 q 371 578 361 561 q 483 634 404 638 q 583 599 541 631 q 608 545 621 570 q 603 538 606 541 q 536 382 568 501 q 512 197 503 258 q 534 167 517 165 q 587 227 555 168 q 641 343 619 286 q 669 428 662 399 z "},"":{"ha":633,"x_min":-12,"x_max":715,"o":"m 325 728 q 313 711 327 718 q 271 705 292 705 q 233 720 250 706 q 216 757 216 734 q 249 860 216 785 q 285 960 282 935 q 327 980 286 978 q 407 967 368 983 q 444 928 446 951 q 411 870 443 913 q 350 784 379 826 q 325 728 321 741 m 264 -22 q 97 -157 176 -104 q 70 -182 78 -170 q 61 -215 61 -195 q 109 -288 61 -254 q 199 -322 156 -322 q 468 41 354 -319 q 704 393 637 233 q 703 434 715 417 q 668 447 690 450 q 633 418 646 444 q 518 235 596 329 q 544 386 528 283 q 559 529 559 488 q 490 623 559 594 q 376 635 435 646 q 323 599 328 625 q 326 582 322 591 q 335 475 344 545 q 306 338 326 406 q 256 219 286 271 q 203 167 227 168 q 180 264 170 165 q 230 465 191 366 q 269 538 250 517 q 258 592 292 562 q 165 633 223 625 q 47 593 87 644 q 37 578 42 586 q 16 509 27 559 q -3 393 5 459 q -9 257 -12 328 q 6 129 -7 187 q 53 34 18 70 q 139 0 87 -3 q 208 21 171 2 q 297 118 256 47 q 264 -22 279 18 z "},"":{"ha":633,"x_min":-12,"x_max":715,"o":"m 170 754 q 157 803 151 769 q 166 855 158 823 q 184 903 175 886 q 212 920 193 918 q 250 918 227 922 q 293 902 273 914 q 313 873 313 890 q 300 811 311 852 q 277 751 288 770 q 250 736 269 738 q 208 739 233 734 q 170 754 182 743 m 372 754 q 359 803 354 769 q 369 855 361 823 q 387 903 378 886 q 415 920 396 918 q 453 918 430 922 q 496 902 476 914 q 515 873 516 890 q 503 811 514 852 q 479 751 491 770 q 453 736 472 738 q 411 739 436 734 q 372 754 385 743 m 264 -22 q 97 -157 176 -104 q 70 -182 78 -170 q 61 -215 61 -195 q 109 -288 61 -254 q 199 -322 156 -322 q 468 41 354 -319 q 704 393 637 233 q 703 434 715 417 q 668 447 690 450 q 633 418 646 444 q 518 235 596 329 q 544 386 528 283 q 559 529 559 488 q 490 623 559 594 q 376 635 435 646 q 323 599 328 625 q 326 582 322 591 q 335 475 344 545 q 306 338 326 406 q 256 219 286 271 q 203 167 227 168 q 180 264 170 165 q 230 465 191 366 q 269 538 250 517 q 258 592 292 562 q 165 633 223 625 q 47 593 87 644 q 37 578 42 586 q 16 509 27 559 q -3 393 5 459 q -9 257 -12 328 q 6 129 -7 187 q 53 34 18 70 q 139 0 87 -3 q 208 21 171 2 q 297 118 256 47 q 264 -22 279 18 z "},"":{"ha":1565,"x_min":-2,"x_max":1648,"o":"m 1565 407 q 1589 437 1575 427 q 1615 447 1603 448 q 1636 438 1627 446 q 1647 414 1646 431 q 1640 375 1648 397 q 1576 233 1611 300 q 1490 98 1541 167 q 1383 -19 1440 30 q 1253 -99 1327 -68 q 1097 -131 1178 -130 q 900 -72 991 -131 l 859 -102 q 693 -150 781 -148 q 571 -125 626 -151 q 480 -57 516 -99 q 418 42 444 -14 q 382 158 393 99 q 371 278 372 217 q 386 407 371 334 q 426 554 400 480 q 496 685 452 629 q 591 753 540 741 q 680 743 633 763 q 759 685 726 723 q 799 607 791 648 q 787 576 803 583 q 662 411 718 545 q 608 155 606 277 q 686 31 610 33 q 774 75 729 28 q 741 200 745 136 q 761 323 738 264 q 843 432 783 383 q 994 504 903 480 q 909 694 913 572 q 842 897 895 821 q 699 972 790 973 q 579 935 641 972 q 465 835 518 899 q 372 675 412 771 q 321 471 333 580 q 322 385 315 406 q 294 349 326 363 q 215 334 262 334 q 57 386 113 332 q 0 529 2 439 q 36 706 -2 619 q 141 860 74 792 q 295 981 209 928 q 479 1063 381 1034 q 673 1093 578 1092 q 1002 977 877 1097 q 1127 1085 1055 1045 q 1287 1126 1200 1126 q 1434 1065 1377 1127 q 1504 915 1492 1004 q 1504 736 1516 826 q 1447 584 1492 647 q 1341 518 1402 520 q 1277 529 1312 517 q 1226 562 1242 541 q 1331 703 1282 588 q 1386 924 1380 817 q 1348 1045 1392 1030 q 1333 1047 1341 1047 q 1274 1017 1305 1047 q 1217 940 1243 986 q 1168 835 1190 893 q 1133 723 1145 777 q 1121 622 1121 669 q 1137 553 1122 576 q 1163 528 1148 536 q 1188 516 1179 519 q 1204 504 1198 513 q 1205 473 1210 495 q 1185 411 1201 452 q 1053 340 1093 419 q 1036 180 1019 273 q 1104 48 1053 92 q 1175 21 1136 21 q 1274 50 1223 22 q 1366 119 1324 78 q 1448 215 1408 161 q 1516 316 1489 270 q 1565 407 1544 363 z "},"":{"ha":732,"x_min":-2,"x_max":688,"o":"m 519 1514 q 538 1529 521 1525 q 579 1530 556 1533 q 626 1519 603 1527 q 664 1499 649 1512 q 677 1471 680 1486 q 640 1415 675 1457 q 573 1333 605 1373 q 545 1279 542 1293 q 512 1260 547 1265 q 443 1260 477 1254 q 411 1279 409 1265 q 382 1333 414 1293 q 316 1415 351 1373 q 278 1471 281 1457 q 291 1499 276 1486 q 330 1519 307 1512 q 376 1530 353 1527 q 417 1529 399 1533 q 436 1514 435 1525 q 478 1415 439 1491 q 519 1514 515 1489 m 304 375 q 352 377 322 375 q 407 381 382 379 q 464 382 432 382 q 520 380 495 382 q 569 368 545 377 q 611 345 594 359 q 639 306 628 330 q 652 249 650 281 q 612 99 654 180 q 506 -46 570 18 q 363 -151 443 -111 q 216 -187 283 -192 q 71 -79 114 -179 q 50 47 43 -16 q 62 79 52 81 q 66 77 64 79 q 138 47 93 51 q 233 56 183 43 q 334 92 282 68 q 426 141 385 115 q 492 194 466 168 q 518 236 518 220 q 461 264 518 264 q 354 250 427 263 q 240 236 280 237 q 170 241 201 235 q 106 263 138 246 q 52 309 74 281 q 16 386 31 338 q 0 497 1 433 q 17 661 -2 574 q 75 829 35 747 q 168 978 114 911 q 298 1086 222 1045 q 458 1129 374 1128 q 556 1109 513 1130 q 626 1052 600 1088 q 668 969 652 1016 q 686 870 685 922 q 681 766 688 819 q 655 667 675 714 q 611 583 636 619 q 550 524 586 546 q 473 501 513 502 q 413 518 439 500 q 374 572 386 537 q 377 573 375 572 q 380 574 379 574 q 475 680 424 583 q 546 882 528 780 q 523 1000 564 986 q 510 1002 517 1002 q 414 929 470 1001 q 312 764 358 858 q 233 578 266 671 q 201 441 201 485 q 225 391 201 407 q 304 375 248 376 z "},"":{"ha":1314,"x_min":-19,"x_max":1356,"o":"m 842 1297 q 829 1346 824 1312 q 839 1398 831 1367 q 857 1446 848 1430 q 885 1463 866 1461 q 912 1462 896 1464 q 945 1455 928 1460 q 974 1440 962 1451 q 985 1417 985 1430 q 972 1354 983 1395 q 949 1295 960 1314 q 922 1279 941 1281 q 880 1282 905 1277 q 842 1297 854 1286 m 1044 1297 q 1032 1346 1027 1312 q 1042 1398 1034 1367 q 1060 1446 1050 1430 q 1088 1463 1069 1461 q 1115 1462 1099 1464 q 1148 1455 1131 1460 q 1176 1440 1164 1451 q 1187 1417 1188 1430 q 1175 1354 1186 1395 q 1152 1295 1163 1314 q 1125 1279 1144 1281 q 1083 1282 1108 1277 q 1044 1297 1057 1286 m 1067 889 q 1186 937 1097 945 q 1310 893 1255 930 q 1345 836 1356 861 q 1336 823 1343 829 q 1256 719 1289 785 q 1200 533 1223 652 q 1166 342 1177 415 q 1139 106 1156 270 q 1121 -49 1127 3 q 1101 -195 1114 -102 q 1075 -340 1088 -289 q 1042 -464 1062 -392 q 996 -575 1021 -536 q 938 -655 970 -615 q 862 -713 905 -696 q 768 -730 819 -730 q 525 -610 623 -730 q 427 -374 446 -513 q 454 -151 408 -243 q 604 -50 503 -54 q 686 -62 642 -49 q 781 -117 739 -79 q 782 -144 796 -132 q 714 -233 743 -172 q 677 -363 686 -294 q 672 -497 668 -433 q 701 -604 676 -562 q 766 -646 726 -646 q 884 -385 838 -645 q 946 146 909 -238 q 962 317 957 260 q 661 28 823 30 q 559 56 600 27 q 502 137 519 85 q 481 256 486 188 q 486 401 477 324 q 506 559 494 478 q 531 718 517 641 q 552 864 545 795 q 559 984 559 932 q 542 1065 559 1035 q 489 1095 524 1095 q 416 1061 450 1095 q 362 976 383 1028 q 329 860 341 924 q 317 733 317 795 q 330 615 317 671 q 367 529 342 560 q 357 500 380 512 q 235 469 301 471 q 33 572 92 469 q 9 797 -18 662 q 130 1040 37 932 q 389 1192 239 1166 q 453 1197 420 1197 q 744 964 699 1198 q 732 596 768 836 q 717 505 727 565 q 692 294 690 345 q 733 228 695 228 q 824 284 780 229 q 904 427 869 340 q 967 602 939 514 q 1023 774 996 690 q 1067 889 1050 858 z "},"":{"ha":961,"x_min":-9,"x_max":951,"o":"m 456 1638 q 497 1539 460 1612 q 539 1638 536 1614 q 558 1653 541 1649 q 599 1653 576 1657 q 646 1643 623 1650 q 684 1622 669 1635 q 697 1594 699 1609 q 659 1538 694 1580 q 592 1456 624 1497 q 564 1402 561 1416 q 531 1383 566 1389 q 463 1383 497 1377 q 431 1402 429 1389 q 402 1456 433 1416 q 335 1538 370 1497 q 297 1594 300 1580 q 310 1622 295 1609 q 349 1643 326 1635 q 395 1653 372 1650 q 437 1653 419 1657 q 456 1638 454 1649 m 828 39 q 922 -42 894 21 q 925 -173 951 -106 q 817 -277 897 -247 q 547 -264 710 -318 q 458 -231 508 -251 q 370 -195 408 -212 q 289 -163 331 -179 q 216 -139 247 -146 q 157 -130 184 -131 q 114 -140 130 -128 q 92 -176 97 -151 q 71 -176 89 -189 q 36 -117 45 -155 q 39 -64 29 -89 q 67 -23 46 -39 q 119 -7 89 -7 q 130 58 117 24 q 170 138 143 91 q 329 343 203 196 q 238 330 279 334 q 157 328 197 326 q 87 340 117 330 q 36 371 58 351 q 4 424 14 392 q 14 509 -9 467 q 79 559 37 551 q 112 561 99 564 q 125 549 125 557 q 148 467 119 498 q 229 427 176 435 q 410 433 292 414 q 485 519 458 488 q 556 602 512 549 q 626 689 600 655 q 683 769 651 723 q 732 850 715 816 q 761 920 749 884 q 772 986 772 956 q 748 1053 772 1029 q 679 1076 724 1076 q 553 1043 624 1076 q 421 961 483 1010 q 315 850 360 911 q 264 737 270 789 q 255 722 262 724 q 236 724 248 719 q 129 787 178 741 q 58 890 77 838 q 51 990 39 943 q 94 1080 62 1036 q 175 1157 125 1123 q 280 1216 224 1191 q 396 1255 336 1242 q 511 1267 457 1268 q 793 1160 680 1263 q 905 901 906 1058 q 858 707 905 804 q 725 497 811 610 q 785 505 756 503 q 892 465 880 510 q 876 401 901 431 q 854 389 861 384 q 852 392 852 390 q 835 421 850 411 q 793 432 820 431 q 735 429 766 433 q 661 416 704 425 q 609 354 646 397 q 554 289 572 310 q 506 228 537 267 q 458 164 474 189 q 419 104 441 140 q 385 41 397 68 q 362 -18 372 14 q 349 -79 352 -50 q 427 -109 409 -102 q 509 -131 471 -123 q 586 -141 547 -140 q 655 -134 625 -143 q 711 -103 686 -125 q 750 -43 736 -80 q 758 25 760 -15 q 779 42 758 39 q 828 39 799 46 z "},"":{"ha":521,"x_min":-69,"x_max":599,"o":"m 160 949 q 201 850 164 923 q 243 949 239 923 q 262 964 244 960 q 303 964 279 968 q 350 954 327 961 q 388 933 373 946 q 401 905 404 920 q 363 850 399 891 q 297 768 328 808 q 268 714 265 728 q 236 695 270 701 q 167 695 201 689 q 135 714 133 701 q 106 768 138 728 q 39 850 75 808 q 1 905 4 891 q 15 933 -1 920 q 53 954 30 946 q 100 964 76 961 q 141 964 123 968 q 160 949 159 960 m 521 415 q 536 439 526 431 q 558 446 547 447 q 579 440 570 446 q 594 423 589 435 q 595 397 599 412 q 550 268 572 323 q 498 164 528 214 q 431 83 467 114 q 346 35 395 53 q 236 17 296 17 q 102 -21 175 -21 q -20 27 19 -24 q -37 106 -49 65 q 19 155 -25 146 q 82 151 47 161 q 158 135 124 140 q 187 274 171 175 q 210 407 203 373 q 97 390 149 393 q 14 396 45 387 q -61 494 -50 419 q -43 602 -69 553 q 4 635 -22 642 q 14 631 9 634 q 111 598 31 620 q 262 566 191 576 q 319 632 284 605 q 393 659 354 659 q 449 637 427 659 q 469 583 471 616 q 449 521 469 551 q 397 472 428 492 q 346 155 395 274 q 521 415 457 210 z "},"":{"ha":1005,"x_min":42,"x_max":896,"o":"m 844 555 q 874 536 862 571 q 880 439 889 492 q 833 372 869 381 q 765 365 808 366 q 668 368 722 364 q 560 378 614 372 q 441 389 507 383 q 328 397 375 395 q 350 265 334 321 q 396 174 366 208 q 465 142 426 140 q 633 328 562 146 l 833 328 q 685 121 777 196 q 478 46 593 46 q 354 72 411 46 q 257 146 298 98 q 189 255 216 193 q 146 390 161 316 q 87 366 105 381 q 58 385 70 350 q 52 482 42 428 q 98 550 62 541 l 127 554 q 138 711 125 621 q 87 689 103 703 q 58 708 70 674 q 52 804 42 750 q 98 872 62 863 q 175 879 131 879 q 323 1139 226 1040 q 551 1239 420 1239 q 682 1215 623 1238 q 782 1147 741 1191 q 852 1046 824 1104 q 896 917 880 989 l 714 913 q 583 1128 694 1128 q 466 1056 519 1128 q 378 865 414 985 q 667 844 594 844 q 844 878 804 842 q 874 859 862 893 q 880 763 889 817 q 833 693 869 703 q 767 686 808 687 q 674 689 726 685 q 571 698 622 693 q 455 709 519 703 q 345 718 391 715 q 326 547 330 635 q 412 539 350 545 q 505 530 474 532 q 590 524 536 528 q 676 521 644 520 q 745 524 707 522 q 806 534 782 526 q 844 555 830 543 z "}}}
